<svg xmlns="http://www.w3.org/2000/svg" xmlns:v="https://svgstorm.com"
viewBox = "0 0 1138 880"
width="1138"
height="880">
<g fill="None" fill-opacity="0.0" stroke="#000000" stroke-opacity="0.00" stroke-width="0.3"><path d="
M 0.00 880.00 
L 1138.00 880.00
L 1138.00 0.00
L 0.00 0.00
L 0.00 880.00
M 584.00 29.00 
C 592.71 31.16 599.26 42.00 607.08 46.92 C 614.90 51.84 621.74 60.92 629.25 66.75 C 636.75 72.59 643.90 79.41 651.25 85.75 C 658.59 92.10 666.19 99.14 673.75 105.25 C 681.31 111.37 688.07 118.25 695.75 124.25 C 703.43 130.25 710.88 137.17 718.25 143.75 C 725.61 150.33 733.18 156.70 740.25 163.75 C 747.32 170.81 753.47 177.34 760.25 184.75 C 767.03 192.16 772.91 199.94 778.92 208.08 C 784.93 216.22 790.21 223.57 795.25 232.75 C 800.30 241.92 804.81 251.27 808.31 261.69 C 811.80 272.12 814.94 285.21 815.00 297.00 C 815.06 308.79 815.46 324.96 813.00 336.00 C 810.54 347.04 806.46 357.36 802.22 367.22 C 797.98 377.09 793.14 384.98 787.70 393.70 C 782.26 402.41 776.41 410.24 770.25 418.25 C 764.08 426.26 758.08 432.94 751.75 440.75 C 745.43 448.57 738.33 455.11 730.75 461.75 C 723.17 468.40 717.49 476.37 710.25 483.25 C 703.01 490.13 697.28 497.36 690.75 504.75 C 684.22 512.14 677.65 519.66 671.25 527.25 C 664.85 534.84 659.91 542.63 653.23 550.23 C 646.55 557.83 640.59 565.30 634.70 573.70 C 628.81 582.09 622.76 589.09 617.23 598.23 C 611.70 607.37 606.91 613.46 602.08 624.08 C 597.24 634.70 592.14 638.77 587.70 651.69 C 583.25 664.62 571.72 657.87 568.70 646.31 C 565.67 634.74 558.87 628.49 554.23 618.77 C 549.59 609.05 544.02 602.10 538.70 593.30 C 533.37 584.50 526.67 577.26 521.08 568.92 C 515.49 560.58 508.17 553.67 502.25 545.75 C 496.33 537.83 490.01 530.89 483.75 523.25 C 477.50 515.61 471.15 507.75 464.70 500.30 C 458.24 492.85 451.59 486.44 444.75 479.25 C 437.92 472.06 431.76 464.32 423.92 458.08 C 416.08 451.84 410.14 443.75 403.75 436.25 C 397.36 428.76 391.11 421.86 385.25 413.75 C 379.38 405.65 373.54 397.58 368.23 388.77 C 362.92 379.96 358.24 371.75 354.23 361.77 C 350.22 351.79 346.54 340.20 345.01 328.99 C 343.48 317.79 343.47 300.76 344.33 289.33 C 345.19 277.90 349.30 266.13 352.93 255.93 C 356.56 245.72 361.35 236.60 366.77 227.77 C 372.19 218.94 376.99 211.14 383.30 203.30 C 389.61 195.46 395.98 188.00 402.75 180.75 C 409.52 173.50 415.31 166.34 422.75 159.75 C 430.20 153.17 437.43 146.48 444.75 139.75 C 452.07 133.02 460.33 127.27 467.75 120.75 C 475.16 114.23 482.24 108.05 489.75 101.75 C 497.27 95.46 504.65 88.36 512.23 82.23 C 519.81 76.10 526.12 68.76 533.75 62.75 C 541.38 56.74 548.49 49.02 556.25 43.25 C 564.01 37.48 573.11 26.30 584.00 29.00
M 89.00 329.00 
C 103.11 330.37 119.41 333.22 133.07 336.93 C 146.73 340.63 160.16 345.09 173.08 349.92 C 185.99 354.76 198.39 359.81 210.69 365.31 C 223.00 370.80 234.41 376.84 246.23 382.77 C 258.05 388.70 269.14 395.05 280.25 401.75 C 291.35 408.45 302.64 414.53 313.08 421.92 C 323.52 429.30 333.65 435.66 343.70 443.30 C 353.74 450.94 363.42 458.91 373.08 466.92 C 382.74 474.93 391.43 483.87 400.75 492.25 C 410.08 500.62 418.05 510.24 426.75 519.25 C 435.45 528.26 443.04 538.23 451.25 547.75 C 459.45 557.27 467.03 567.22 474.75 577.25 C 482.48 587.28 488.50 597.63 495.77 608.23 C 503.04 618.83 509.46 629.63 515.92 641.08 C 522.38 652.53 528.23 663.88 533.77 676.23 C 539.31 688.58 544.06 701.30 548.32 714.68 C 552.58 728.05 556.54 743.46 558.00 758.00 C 559.46 772.54 559.53 792.61 555.02 806.02 C 550.52 819.43 544.22 828.79 531.75 835.75 C 519.29 842.72 507.23 845.88 492.78 848.78 C 478.33 851.68 457.39 850.95 442.00 851.00 C 426.61 851.05 409.23 847.79 394.98 845.02 C 380.72 842.26 367.42 837.60 354.77 832.23 C 342.12 826.86 330.83 821.43 319.77 814.23 C 308.71 807.03 299.21 799.99 289.30 791.70 C 279.40 783.40 271.81 775.21 263.25 765.75 C 254.68 756.29 246.97 746.71 239.70 736.30 C 232.42 725.90 224.73 715.86 218.25 704.75 C 211.76 693.65 205.35 682.36 199.23 670.77 C 193.11 659.18 187.64 646.98 182.08 634.92 C 176.52 622.87 171.42 610.17 166.22 597.78 C 161.03 585.38 157.06 572.59 152.07 559.93 C 147.08 547.26 142.86 533.72 138.22 520.78 C 133.58 507.83 129.18 494.12 125.02 480.98 C 120.87 467.83 116.04 454.08 112.02 440.98 C 108.00 427.87 102.95 413.82 99.02 400.98 C 95.10 388.13 89.17 373.90 85.22 361.78 C 81.28 349.65 67.34 326.90 89.00 329.00
M 1082.00 330.00 
C 1078.74 355.10 1067.01 378.62 1059.68 402.68 C 1052.34 426.74 1043.27 451.16 1036.07 475.07 C 1028.88 498.99 1019.94 522.70 1012.07 546.07 C 1004.20 569.45 994.33 592.78 985.23 615.23 C 976.13 637.68 965.66 659.36 954.23 680.23 C 942.80 701.10 931.94 719.90 917.75 738.75 C 903.55 757.60 890.38 773.20 872.25 789.25 C 854.11 805.30 837.68 816.24 815.31 827.31 C 792.93 838.37 767.06 845.42 741.00 849.00 C 714.94 852.58 677.84 851.62 652.78 845.22 C 627.72 838.82 608.12 826.65 602.67 800.33 C 597.22 774.01 601.98 741.04 609.93 716.93 C 617.87 692.81 626.59 670.64 638.31 649.31 C 650.02 627.97 661.33 609.97 674.77 590.77 C 688.21 571.57 701.61 554.20 716.77 536.77 C 731.93 519.34 745.95 503.82 762.75 487.75 C 779.55 471.69 796.31 457.75 814.75 443.75 C 833.20 429.75 852.24 417.64 872.23 405.23 C 892.22 392.82 912.25 382.71 934.08 372.08 C 955.90 361.44 978.27 351.88 1002.07 344.07 C 1025.88 336.27 1055.81 327.21 1082.00 330.00 Z"/>
</g>
<g fill="None" fill-opacity="0.0" stroke="#000000" stroke-opacity="1.00" stroke-width="0.3"><path d="
M 584.00 29.00 
C 573.11 26.30 564.01 37.48 556.25 43.25 C 548.49 49.02 541.38 56.74 533.75 62.75 C 526.12 68.76 519.81 76.10 512.23 82.23 C 504.65 88.36 497.27 95.46 489.75 101.75 C 482.24 108.05 475.16 114.23 467.75 120.75 C 460.33 127.27 452.07 133.02 444.75 139.75 C 437.43 146.48 430.20 153.17 422.75 159.75 C 415.31 166.34 409.52 173.50 402.75 180.75 C 395.98 188.00 389.61 195.46 383.30 203.30 C 376.99 211.14 372.19 218.94 366.77 227.77 C 361.35 236.60 356.56 245.72 352.93 255.93 C 349.30 266.13 345.19 277.90 344.33 289.33 C 343.47 300.76 343.48 317.79 345.01 328.99 C 346.54 340.20 350.22 351.79 354.23 361.77 C 358.24 371.75 362.92 379.96 368.23 388.77 C 373.54 397.58 379.38 405.65 385.25 413.75 C 391.11 421.86 397.36 428.76 403.75 436.25 C 410.14 443.75 416.08 451.84 423.92 458.08 C 431.76 464.32 437.92 472.06 444.75 479.25 C 451.59 486.44 458.24 492.85 464.70 500.30 C 471.15 507.75 477.50 515.61 483.75 523.25 C 490.01 530.89 496.33 537.83 502.25 545.75 C 508.17 553.67 515.49 560.58 521.08 568.92 C 526.67 577.26 533.37 584.50 538.70 593.30 C 544.02 602.10 549.59 609.05 554.23 618.77 C 558.87 628.49 565.67 634.74 568.70 646.31 C 571.72 657.87 583.25 664.62 587.70 651.69 C 592.14 638.77 597.24 634.70 602.08 624.08 C 606.91 613.46 611.70 607.37 617.23 598.23 C 622.76 589.09 628.81 582.09 634.70 573.70 C 640.59 565.30 646.55 557.83 653.23 550.23 C 659.91 542.63 664.85 534.84 671.25 527.25 C 677.65 519.66 684.22 512.14 690.75 504.75 C 697.28 497.36 703.01 490.13 710.25 483.25 C 717.49 476.37 723.17 468.40 730.75 461.75 C 738.33 455.11 745.43 448.57 751.75 440.75 C 758.08 432.94 764.08 426.26 770.25 418.25 C 776.41 410.24 782.26 402.41 787.70 393.70 C 793.14 384.98 797.98 377.09 802.22 367.22 C 806.46 357.36 810.54 347.04 813.00 336.00 C 815.46 324.96 815.06 308.79 815.00 297.00 C 814.94 285.21 811.80 272.12 808.31 261.69 C 804.81 251.27 800.30 241.92 795.25 232.75 C 790.21 223.57 784.93 216.22 778.92 208.08 C 772.91 199.94 767.03 192.16 760.25 184.75 C 753.47 177.34 747.32 170.81 740.25 163.75 C 733.18 156.70 725.61 150.33 718.25 143.75 C 710.88 137.17 703.43 130.25 695.75 124.25 C 688.07 118.25 681.31 111.37 673.75 105.25 C 666.19 99.14 658.59 92.10 651.25 85.75 C 643.90 79.41 636.75 72.59 629.25 66.75 C 621.74 60.92 614.90 51.84 607.08 46.92 C 599.26 42.00 592.71 31.16 584.00 29.00
M 582.00 42.00 
C 587.69 43.61 592.99 50.99 597.00 55.00
C 599.98 57.55 602.94 59.82 606.00 62.00
C 617.61 70.29 627.92 80.92 638.00 91.00
C 644.00 96.13 649.71 101.51 656.00 106.00
C 660.90 109.50 664.81 113.81 669.00 118.00
C 670.58 119.35 672.50 120.67 674.00 122.00
C 701.28 141.49 731.19 166.82 752.00 194.00
C 752.99 195.29 754.01 196.79 755.00 198.00
C 758.28 201.41 761.54 203.95 764.00 208.00
C 768.74 215.82 775.10 223.08 780.00 231.00
C 781.08 232.42 782.11 233.25 783.00 235.00
C 792.32 253.25 799.31 267.52 803.98 288.02 C 808.64 308.53 803.16 331.52 797.00 351.00
C 796.47 352.69 795.79 353.64 795.00 355.00
C 788.62 370.00 779.25 383.10 771.00 397.00
C 769.73 399.14 769.15 400.60 767.00 402.00
C 766.78 402.36 767.00 403.00 767.00 403.00
C 763.92 407.96 760.07 411.93 756.00 416.00
C 754.04 418.29 752.59 420.58 751.00 423.00
C 734.62 447.88 707.07 469.93 686.00 491.00
C 679.80 498.26 672.99 505.26 668.00 513.00
C 665.46 516.94 662.25 519.75 659.00 523.00
C 649.00 534.70 637.82 547.10 630.00 560.00
C 626.85 565.20 623.03 569.64 619.00 574.00
C 615.63 578.63 612.62 583.14 610.00 588.00
C 608.53 590.72 606.76 592.73 605.00 595.00
C 595.56 610.24 586.74 626.19 579.00 642.00
C 559.07 593.52 524.36 552.79 491.00 512.00
C 487.30 508.30 482.33 504.75 480.00 500.00
C 479.80 499.60 480.00 499.00 480.00 499.00
C 467.69 490.40 457.13 475.15 446.75 464.25 C 436.37 453.35 419.50 442.31 413.00 429.00
C 412.80 428.60 413.00 428.00 413.00 428.00
C 408.93 425.15 405.60 421.04 403.00 417.00
C 392.62 400.91 379.81 386.23 371.00 369.00
C 368.70 365.40 366.53 362.25 365.00 358.00
C 358.90 341.06 352.87 324.79 353.00 306.00 C 353.13 287.21 359.87 271.03 366.00 254.00
C 367.52 249.78 369.58 246.52 372.00 243.00
C 380.05 228.40 391.19 215.90 400.00 202.00
C 403.05 197.19 406.22 193.46 411.00 189.00
C 416.30 181.76 430.34 166.07 439.00 160.00
C 447.09 154.32 453.50 145.57 462.00 141.00
C 465.37 139.19 468.10 136.48 471.00 134.00
C 475.03 129.97 476.80 127.61 481.00 125.00
C 481.64 124.60 482.39 124.37 483.00 124.00
C 486.28 120.94 489.94 117.58 492.00 116.00
C 497.86 111.49 501.64 106.06 507.00 103.00
C 508.90 101.31 511.12 99.61 513.00 98.00
C 518.41 92.59 521.54 89.00 527.00 85.00
C 527.95 84.30 529.10 83.68 530.00 83.00
C 536.06 77.44 538.82 71.52 546.00 68.00
C 546.40 67.80 547.00 68.00 547.00 68.00
C 553.74 58.35 563.75 50.43 573.00 45.00
C 575.83 43.34 578.82 41.10 582.00 42.00 Z"/>
</g>
<g fill="None" fill-opacity="0.0" stroke="#000000" stroke-opacity="0.00" stroke-width="0.3"><path d="
M 573.00 45.00 
C 564.56 51.47 556.68 63.26 547.00 68.00
C 547.00 68.00 546.40 67.80 546.00 68.00
C 542.09 73.59 535.40 78.92 530.00 83.00
C 529.10 83.68 527.95 84.30 527.00 85.00
C 522.32 89.30 517.87 93.84 513.00 98.00
C 511.12 99.61 508.90 101.31 507.00 103.00
C 502.19 107.27 496.90 111.65 492.00 116.00
C 489.27 118.42 486.26 122.01 483.00 124.00
C 482.39 124.37 481.64 124.60 481.00 125.00
C 477.73 128.05 474.44 131.06 471.00 134.00
C 468.10 136.48 465.37 139.19 462.00 141.00
C 453.84 147.84 446.24 155.96 438.00 163.00
C 429.23 170.49 420.45 179.28 413.00 188.00
C 408.86 192.84 403.88 197.28 400.00 202.00
C 391.19 215.90 380.05 228.40 372.00 243.00
C 370.02 246.59 367.70 250.57 366.00 254.00
C 359.87 271.03 353.13 287.21 353.00 306.00 C 352.87 324.79 358.90 341.06 365.00 358.00
C 366.74 361.51 369.12 365.31 371.00 369.00
C 379.81 386.23 392.62 400.91 403.00 417.00
C 405.89 420.52 410.93 423.76 413.00 428.00
C 413.00 428.00 412.80 428.60 413.00 429.00
C 421.23 434.76 427.70 444.69 435.25 451.75 C 442.79 458.81 451.79 466.78 458.25 474.75 C 464.70 482.73 475.54 489.89 480.00 499.00
C 480.00 499.00 479.80 499.60 480.00 500.00
C 484.51 503.15 487.51 507.92 491.00 512.00
C 524.36 552.79 559.07 593.52 579.00 642.00
C 586.74 626.19 595.56 610.24 605.00 595.00
C 606.54 592.51 608.49 590.23 610.00 588.00
C 612.62 583.14 615.63 578.63 619.00 574.00
C 622.54 569.15 626.47 564.61 630.00 560.00
C 637.82 547.10 649.00 534.70 659.00 523.00
C 661.90 519.61 665.26 516.34 668.00 513.00
C 672.99 505.26 679.80 498.26 686.00 491.00
C 706.21 467.35 731.24 446.59 751.00 423.00
C 752.59 420.58 754.04 418.29 756.00 416.00
C 759.66 411.72 762.40 406.21 767.00 403.00
C 767.00 403.00 766.78 402.36 767.00 402.00
C 768.19 400.09 769.80 398.62 771.00 397.00
C 779.25 383.10 788.62 370.00 795.00 355.00
C 795.55 353.72 796.52 352.08 797.00 351.00
C 803.16 331.52 808.64 308.53 803.98 288.02 C 799.31 267.52 792.32 253.25 783.00 235.00
C 782.19 233.73 780.89 232.44 780.00 231.00
C 775.10 223.08 768.74 215.82 764.00 208.00
C 761.23 204.63 757.83 201.45 755.00 198.00
C 754.01 196.79 752.99 195.29 752.00 194.00
C 727.23 168.24 700.15 145.25 674.00 122.00
C 672.50 120.67 670.58 119.35 669.00 118.00
C 664.51 114.16 660.41 109.69 656.00 106.00
C 649.71 101.51 644.00 96.13 638.00 91.00
C 627.04 81.63 616.90 71.13 606.00 62.00
C 602.94 59.82 599.98 57.55 597.00 55.00
C 592.80 51.41 586.74 43.95 582.00 42.00
C 578.82 41.10 575.83 43.34 573.00 45.00 Z"/>
</g>
<g fill="None" fill-opacity="0.0" stroke="#7C7C7C" stroke-opacity="1.00" stroke-width="0.3"><path d="
M 597.00 55.00 
C 592.99 50.99 587.69 43.61 582.00 42.00
C 586.74 43.95 592.80 51.41 597.00 55.00 Z"/>
</g>
<g fill="None" fill-opacity="0.0" stroke="#767676" stroke-opacity="1.00" stroke-width="0.3"><path d="
M 547.00 68.00 
C 556.68 63.26 564.56 51.47 573.00 45.00
C 563.75 50.43 553.74 58.35 547.00 68.00 Z"/>
</g>
<g fill="None" fill-opacity="0.0" stroke="#787878" stroke-opacity="1.00" stroke-width="0.3"><path d="
M 638.00 91.00 
C 627.92 80.92 617.61 70.29 606.00 62.00
C 616.90 71.13 627.04 81.63 638.00 91.00 Z"/>
</g>
<g fill="None" fill-opacity="0.0" stroke="#717171" stroke-opacity="1.00" stroke-width="0.3"><path d="
M 530.00 83.00 
C 535.40 78.92 542.09 73.59 546.00 68.00
C 538.82 71.52 536.06 77.44 530.00 83.00 Z"/>
</g>
<g fill="None" fill-opacity="0.0" stroke="#777777" stroke-opacity="1.00" stroke-width="0.3"><path d="
M 513.00 98.00 
C 517.87 93.84 522.32 89.30 527.00 85.00
C 521.54 89.00 518.41 92.59 513.00 98.00 Z"/>
</g>
<g fill="None" fill-opacity="0.0" stroke="#686868" stroke-opacity="1.00" stroke-width="0.3"><path d="
M 492.00 116.00 
C 496.90 111.65 502.19 107.27 507.00 103.00
C 501.64 106.06 497.86 111.49 492.00 116.00 Z"/>
</g>
<g fill="None" fill-opacity="0.0" stroke="#8A8A8A" stroke-opacity="1.00" stroke-width="0.3"><path d="
M 669.00 118.00 
C 664.81 113.81 660.90 109.50 656.00 106.00
C 660.41 109.69 664.51 114.16 669.00 118.00 Z"/>
</g>
<g fill="None" fill-opacity="0.0" stroke="#858585" stroke-opacity="1.00" stroke-width="0.3"><path d="
M 483.00 124.00 
C 486.26 122.01 489.27 118.42 492.00 116.00
C 489.94 117.58 486.28 120.94 483.00 124.00 Z"/>
</g>
<g fill="None" fill-opacity="0.0" stroke="#6F6F6F" stroke-opacity="1.00" stroke-width="0.3"><path d="
M 752.00 194.00 
C 731.19 166.82 701.28 141.49 674.00 122.00
C 700.15 145.25 727.23 168.24 752.00 194.00 Z"/>
</g>
<g fill="None" fill-opacity="0.0" stroke="#6C6C6C" stroke-opacity="1.00" stroke-width="0.3"><path d="
M 471.00 134.00 
C 474.44 131.06 477.73 128.05 481.00 125.00
C 476.80 127.61 475.03 129.97 471.00 134.00 Z"/>
</g>
<g fill="None" fill-opacity="0.0" stroke="#727272" stroke-opacity="1.00" stroke-width="0.3"><path d="
M 439.00 160.00 
C 439.34 159.55 438.54 162.35 438.00 163.00
C 446.24 155.96 453.84 147.84 462.00 141.00
C 453.50 145.57 447.09 154.32 439.00 160.00 Z"/>
</g>
<g fill="None" fill-opacity="0.0" stroke="#565656" stroke-opacity="1.00" stroke-width="0.3"><path d="
M 411.00 189.00 
C 411.49 188.54 412.57 188.40 413.00 188.00
C 420.45 179.28 429.23 170.49 438.00 163.00
C 438.54 162.35 439.34 159.55 439.00 160.00
C 430.34 166.07 416.30 181.76 411.00 189.00 Z"/>
</g>
<g fill="None" fill-opacity="0.0" stroke="#7F7F7F" stroke-opacity="1.00" stroke-width="0.3"><path d="
M 411.00 189.00 
C 406.22 193.46 403.05 197.19 400.00 202.00
C 403.88 197.28 408.86 192.84 413.00 188.00
C 412.57 188.40 411.49 188.54 411.00 189.00 Z"/>
</g>
<g fill="None" fill-opacity="0.0" stroke="#797979" stroke-opacity="1.00" stroke-width="0.3"><path d="
M 764.00 208.00 
C 761.54 203.95 758.28 201.41 755.00 198.00
C 757.83 201.45 761.23 204.63 764.00 208.00 Z"/>
</g>
<g fill="None" fill-opacity="0.0" stroke="#7B7B7B" stroke-opacity="1.00" stroke-width="0.3"><path d="
M 783.00 235.00 
C 782.11 233.25 781.08 232.42 780.00 231.00
C 780.89 232.44 782.19 233.73 783.00 235.00 Z"/>
</g>
<g fill="None" fill-opacity="0.0" stroke="#868686" stroke-opacity="1.00" stroke-width="0.3"><path d="
M 366.00 254.00 
C 367.70 250.57 370.02 246.59 372.00 243.00
C 369.58 246.52 367.52 249.78 366.00 254.00 Z"/>
</g>
<g fill="None" fill-opacity="0.0" stroke="#000000" stroke-opacity="1.00" stroke-width="0.3"><path d="
M 89.00 329.00 
C 67.34 326.90 81.28 349.65 85.22 361.78 C 89.17 373.90 95.10 388.13 99.02 400.98 C 102.95 413.82 108.00 427.87 112.02 440.98 C 116.04 454.08 120.87 467.83 125.02 480.98 C 129.18 494.12 133.58 507.83 138.22 520.78 C 142.86 533.72 147.08 547.26 152.07 559.93 C 157.06 572.59 161.03 585.38 166.22 597.78 C 171.42 610.17 176.52 622.87 182.08 634.92 C 187.64 646.98 193.11 659.18 199.23 670.77 C 205.35 682.36 211.76 693.65 218.25 704.75 C 224.73 715.86 232.42 725.90 239.70 736.30 C 246.97 746.71 254.68 756.29 263.25 765.75 C 271.81 775.21 279.40 783.40 289.30 791.70 C 299.21 799.99 308.71 807.03 319.77 814.23 C 330.83 821.43 342.12 826.86 354.77 832.23 C 367.42 837.60 380.72 842.26 394.98 845.02 C 409.23 847.79 426.61 851.05 442.00 851.00 C 457.39 850.95 478.33 851.68 492.78 848.78 C 507.23 845.88 519.29 842.72 531.75 835.75 C 544.22 828.79 550.52 819.43 555.02 806.02 C 559.53 792.61 559.46 772.54 558.00 758.00 C 556.54 743.46 552.58 728.05 548.32 714.68 C 544.06 701.30 539.31 688.58 533.77 676.23 C 528.23 663.88 522.38 652.53 515.92 641.08 C 509.46 629.63 503.04 618.83 495.77 608.23 C 488.50 597.63 482.48 587.28 474.75 577.25 C 467.03 567.22 459.45 557.27 451.25 547.75 C 443.04 538.23 435.45 528.26 426.75 519.25 C 418.05 510.24 410.08 500.62 400.75 492.25 C 391.43 483.87 382.74 474.93 373.08 466.92 C 363.42 458.91 353.74 450.94 343.70 443.30 C 333.65 435.66 323.52 429.30 313.08 421.92 C 302.64 414.53 291.35 408.45 280.25 401.75 C 269.14 395.05 258.05 388.70 246.23 382.77 C 234.41 376.84 223.00 370.80 210.69 365.31 C 198.39 359.81 185.99 354.76 173.08 349.92 C 160.16 345.09 146.73 340.63 133.07 336.93 C 119.41 333.22 103.11 330.37 89.00 329.00
M 209.00 377.00 
C 221.01 381.32 233.45 388.26 244.00 395.00
C 249.10 397.60 253.84 400.56 259.00 403.00
C 260.95 403.92 262.32 404.91 264.00 406.00
C 265.04 406.47 265.98 406.60 267.00 407.00
C 268.88 407.75 269.62 408.95 271.00 410.00
C 273.06 411.28 274.97 411.97 277.00 413.00
C 278.75 413.89 279.63 414.96 281.00 416.00
C 300.77 428.24 319.28 443.04 339.00 455.00
C 347.98 460.44 355.37 467.87 363.00 475.00
C 363.63 475.39 364.40 475.63 365.00 476.00
C 369.79 478.98 373.71 483.33 378.00 487.00
C 392.62 499.49 408.67 514.76 420.00 530.00
C 431.85 545.94 445.76 560.50 458.00 576.00
C 461.41 579.41 464.61 582.76 467.00 587.00
C 468.51 589.69 470.16 592.32 472.00 595.00
C 473.57 596.82 474.73 597.87 476.00 600.00
C 481.30 608.93 487.54 617.18 493.00 626.00
C 494.06 627.39 495.47 628.04 496.00 630.00
C 496.13 630.47 496.00 631.00 496.00 631.00
C 497.62 632.18 498.10 633.23 499.00 635.00
C 503.08 643.00 507.85 650.89 512.00 659.00
C 514.67 663.18 517.24 667.10 519.00 672.00
C 528.42 698.18 541.60 721.76 546.33 749.67 C 551.06 777.59 551.16 809.18 524.00 826.00
C 522.57 827.09 521.86 828.21 520.00 829.00
C 517.52 830.06 514.63 830.88 512.00 832.00
C 510.58 832.82 509.77 833.48 508.00 834.00
C 470.37 845.01 425.30 842.60 388.78 832.22 C 352.26 821.84 329.16 805.54 299.00 784.00
C 285.64 774.46 270.94 759.57 262.00 746.00
C 256.10 737.04 249.07 728.85 243.00 720.00
C 239.22 715.62 235.73 711.23 233.00 706.00
C 232.35 704.75 231.80 703.32 231.00 702.00
C 229.94 700.59 228.89 699.74 228.00 698.00
C 224.59 691.32 220.69 684.69 217.00 678.00
C 215.77 676.21 214.98 675.07 214.00 673.00
C 201.82 647.24 188.51 622.34 178.00 596.00
C 177.24 594.61 176.54 593.71 176.00 592.00
C 162.61 549.67 144.53 508.79 132.02 465.98 C 119.52 423.16 103.84 381.06 89.00 339.00
C 131.30 343.74 170.29 360.71 209.00 377.00 Z"/>
</g>
<g fill="None" fill-opacity="0.0" stroke="#000000" stroke-opacity="1.00" stroke-width="0.3"><path d="
M 1082.00 330.00 
C 1055.81 327.21 1025.88 336.27 1002.07 344.07 C 978.27 351.88 955.90 361.44 934.08 372.08 C 912.25 382.71 892.22 392.82 872.23 405.23 C 852.24 417.64 833.20 429.75 814.75 443.75 C 796.31 457.75 779.55 471.69 762.75 487.75 C 745.95 503.82 731.93 519.34 716.77 536.77 C 701.61 554.20 688.21 571.57 674.77 590.77 C 661.33 609.97 650.02 627.97 638.31 649.31 C 626.59 670.64 617.87 692.81 609.93 716.93 C 601.98 741.04 597.22 774.01 602.67 800.33 C 608.12 826.65 627.72 838.82 652.78 845.22 C 677.84 851.62 714.94 852.58 741.00 849.00 C 767.06 845.42 792.93 838.37 815.31 827.31 C 837.68 816.24 854.11 805.30 872.25 789.25 C 890.38 773.20 903.55 757.60 917.75 738.75 C 931.94 719.90 942.80 701.10 954.23 680.23 C 965.66 659.36 976.13 637.68 985.23 615.23 C 994.33 592.78 1004.20 569.45 1012.07 546.07 C 1019.94 522.70 1028.88 498.99 1036.07 475.07 C 1043.27 451.16 1052.34 426.74 1059.68 402.68 C 1067.01 378.62 1078.74 355.10 1082.00 330.00
M 960.00 644.00 
C 957.31 651.46 953.14 658.52 949.00 665.00
C 935.19 692.02 916.92 715.29 901.00 741.00
C 897.16 747.20 891.75 752.44 887.00 758.00
C 879.10 767.24 869.73 777.05 860.00 784.00
C 851.29 790.22 843.08 797.38 834.00 803.00
C 832.59 804.07 831.70 805.08 830.00 806.00
C 771.15 837.75 694.12 859.55 631.00 824.00
C 626.57 821.51 623.42 818.15 621.00 814.00
C 595.03 769.33 621.48 721.12 637.00 678.00
C 638.52 673.79 640.73 670.56 643.00 667.00
C 648.52 656.20 654.56 645.65 660.00 635.00
C 660.89 633.25 661.96 632.37 663.00 631.00
C 670.72 618.52 679.89 606.62 687.00 594.00
C 689.74 589.14 691.27 587.73 695.00 584.00
C 697.45 580.64 700.06 577.61 702.00 574.00
C 707.33 564.09 714.51 557.49 723.00 549.00
C 727.78 543.41 732.96 537.77 737.00 532.00
C 739.13 528.95 742.45 524.99 744.00 523.00
C 746.29 520.06 749.32 518.43 752.00 516.00
C 760.55 508.25 767.58 497.73 777.00 491.00
C 781.18 488.01 785.04 484.38 789.00 481.00
C 797.21 472.79 803.09 466.64 812.00 461.00
C 852.00 435.67 884.86 407.75 928.70 387.70 C 972.53 367.64 1020.79 343.92 1070.00 339.00
C 1032.53 440.21 1006.15 545.82 960.00 644.00 Z"/>
</g>
<g fill="None" fill-opacity="0.0" stroke="#000000" stroke-opacity="0.00" stroke-width="0.3"><path d="
M 176.00 592.00 
C 176.53 593.19 177.44 594.60 178.00 596.00
C 188.51 622.34 201.82 647.24 214.00 673.00
C 214.89 674.53 216.06 676.29 217.00 678.00
C 220.69 684.69 224.59 691.32 228.00 698.00
C 228.82 699.29 230.11 700.53 231.00 702.00
C 231.80 703.32 232.35 704.75 233.00 706.00
C 236.01 710.58 239.79 715.32 243.00 720.00
C 249.07 728.85 256.10 737.04 262.00 746.00
C 272.90 759.01 285.93 773.05 299.00 784.00
C 329.16 805.54 352.26 821.84 388.78 832.22 C 425.30 842.60 470.37 845.01 508.00 834.00
C 509.10 833.54 510.72 832.54 512.00 832.00
C 514.63 830.88 517.52 830.06 520.00 829.00
C 521.13 828.39 522.70 826.81 524.00 826.00
C 551.16 809.18 551.06 777.59 546.33 749.67 C 541.60 721.76 528.42 698.18 519.00 672.00
C 516.93 667.82 514.22 663.35 512.00 659.00
C 507.85 650.89 503.08 643.00 499.00 635.00
C 498.10 633.59 496.53 632.95 496.00 631.00
C 496.00 631.00 496.13 630.47 496.00 630.00
C 494.33 628.78 494.05 627.70 493.00 626.00
C 487.54 617.18 481.30 608.93 476.00 600.00
C 474.79 598.38 473.23 596.79 472.00 595.00
C 470.16 592.32 468.51 589.69 467.00 587.00
C 464.39 583.35 460.87 579.63 458.00 576.00
C 445.76 560.50 431.85 545.94 420.00 530.00
C 408.64 516.97 395.26 503.33 382.00 492.00
C 376.08 486.94 370.49 481.13 365.00 476.00
C 364.40 475.63 363.63 475.39 363.00 475.00
C 354.26 469.68 346.90 461.05 339.00 455.00
C 319.28 443.04 300.77 428.24 281.00 416.00
C 279.58 415.12 278.20 413.76 277.00 413.00
C 274.97 411.97 273.06 411.28 271.00 410.00
C 269.70 409.19 268.08 407.60 267.00 407.00
C 265.98 406.60 265.04 406.47 264.00 406.00
C 262.15 405.17 260.54 403.89 259.00 403.00
C 253.84 400.56 249.10 397.60 244.00 395.00
C 232.35 389.05 220.48 382.68 209.00 377.00
C 170.29 360.71 131.30 343.74 89.00 339.00
C 103.84 381.06 119.52 423.16 132.02 465.98 C 144.53 508.79 162.61 549.67 176.00 592.00 Z"/>
</g>
<g fill="None" fill-opacity="0.0" stroke="#000000" stroke-opacity="0.00" stroke-width="0.3"><path d="
M 812.00 461.00 
C 804.26 467.35 796.74 474.39 789.00 481.00
C 785.04 484.38 781.18 488.01 777.00 491.00
C 768.33 498.26 759.99 508.01 752.00 516.00
C 750.56 517.44 749.28 519.50 748.00 521.00
C 744.71 524.85 740.10 528.22 737.00 532.00
C 732.96 537.77 727.78 543.41 723.00 549.00
C 715.93 557.27 708.54 565.64 702.00 574.00
C 700.06 577.61 697.45 580.64 695.00 584.00
C 692.47 587.47 689.36 590.70 687.00 594.00
C 679.89 606.62 670.72 618.52 663.00 631.00
C 662.12 632.43 660.76 633.80 660.00 635.00
C 654.56 645.65 648.52 656.20 643.00 667.00
C 641.11 670.69 638.72 674.53 637.00 678.00
C 621.48 721.12 595.03 769.33 621.00 814.00
C 623.48 817.34 627.62 821.59 631.00 824.00
C 694.12 859.55 771.15 837.75 830.00 806.00
C 831.30 805.13 832.52 803.92 834.00 803.00
C 843.08 797.38 851.29 790.22 860.00 784.00
C 868.31 777.04 876.87 768.35 884.00 760.00
C 889.57 753.48 895.66 747.37 901.00 741.00
C 916.92 715.29 935.19 692.02 949.00 665.00
C 952.58 658.00 956.63 650.81 960.00 644.00
C 1006.15 545.82 1032.53 440.21 1070.00 339.00
C 1020.79 343.92 972.53 367.64 928.70 387.70 C 884.86 407.75 852.00 435.67 812.00 461.00 Z"/>
</g>
<g fill="None" fill-opacity="0.0" stroke="#7B7B7B" stroke-opacity="1.00" stroke-width="0.3"><path d="
M 795.00 355.00 
C 795.79 353.64 796.47 352.69 797.00 351.00
C 796.52 352.08 795.55 353.72 795.00 355.00 Z"/>
</g>
<g fill="None" fill-opacity="0.0" stroke="#8F8F8F" stroke-opacity="1.00" stroke-width="0.3"><path d="
M 371.00 369.00 
C 369.12 365.31 366.74 361.51 365.00 358.00
C 366.53 362.25 368.70 365.40 371.00 369.00 Z"/>
</g>
<g fill="None" fill-opacity="0.0" stroke="#8E8E8E" stroke-opacity="1.00" stroke-width="0.3"><path d="
M 244.00 395.00 
C 233.45 388.26 221.01 381.32 209.00 377.00
C 220.48 382.68 232.35 389.05 244.00 395.00 Z"/>
</g>
<g fill="None" fill-opacity="0.0" stroke="#8A8A8A" stroke-opacity="1.00" stroke-width="0.3"><path d="
M 767.00 402.00 
C 769.15 400.60 769.73 399.14 771.00 397.00
C 769.80 398.62 768.19 400.09 767.00 402.00 Z"/>
</g>
<g fill="None" fill-opacity="0.0" stroke="#868686" stroke-opacity="1.00" stroke-width="0.3"><path d="
M 264.00 406.00 
C 262.32 404.91 260.95 403.92 259.00 403.00
C 260.54 403.89 262.15 405.17 264.00 406.00 Z"/>
</g>
<g fill="None" fill-opacity="0.0" stroke="#7D7D7D" stroke-opacity="1.00" stroke-width="0.3"><path d="
M 756.00 416.00 
C 760.07 411.93 763.92 407.96 767.00 403.00
C 762.40 406.21 759.66 411.72 756.00 416.00 Z"/>
</g>
<g fill="None" fill-opacity="0.0" stroke="#757575" stroke-opacity="1.00" stroke-width="0.3"><path d="
M 271.00 410.00 
C 269.62 408.95 268.88 407.75 267.00 407.00
C 268.08 407.60 269.70 409.19 271.00 410.00 Z"/>
</g>
<g fill="None" fill-opacity="0.0" stroke="#838383" stroke-opacity="1.00" stroke-width="0.3"><path d="
M 281.00 416.00 
C 279.63 414.96 278.75 413.89 277.00 413.00
C 278.20 413.76 279.58 415.12 281.00 416.00 Z"/>
</g>
<g fill="None" fill-opacity="0.0" stroke="#7D7D7D" stroke-opacity="1.00" stroke-width="0.3"><path d="
M 413.00 428.00 
C 410.93 423.76 405.89 420.52 403.00 417.00
C 405.60 421.04 408.93 425.15 413.00 428.00 Z"/>
</g>
<g fill="None" fill-opacity="0.0" stroke="#6C6C6C" stroke-opacity="1.00" stroke-width="0.3"><path d="
M 686.00 491.00 
C 707.07 469.93 734.62 447.88 751.00 423.00
C 731.24 446.59 706.21 467.35 686.00 491.00 Z"/>
</g>
<g fill="None" fill-opacity="0.0" stroke="#6B6B6B" stroke-opacity="1.00" stroke-width="0.3"><path d="
M 480.00 499.00 
C 475.54 489.89 464.70 482.73 458.25 474.75 C 451.79 466.78 442.79 458.81 435.25 451.75 C 427.70 444.69 421.23 434.76 413.00 429.00
C 419.50 442.31 436.37 453.35 446.75 464.25 C 457.13 475.15 467.69 490.40 480.00 499.00 Z"/>
</g>
<g fill="None" fill-opacity="0.0" stroke="#7B7B7B" stroke-opacity="1.00" stroke-width="0.3"><path d="
M 363.00 475.00 
C 355.37 467.87 347.98 460.44 339.00 455.00
C 346.90 461.05 354.26 469.68 363.00 475.00 Z"/>
</g>
<g fill="None" fill-opacity="0.0" stroke="#7A7A7A" stroke-opacity="1.00" stroke-width="0.3"><path d="
M 789.00 481.00 
C 796.74 474.39 804.26 467.35 812.00 461.00
C 803.09 466.64 797.21 472.79 789.00 481.00 Z"/>
</g>
<g fill="None" fill-opacity="0.0" stroke="#8A8A8A" stroke-opacity="1.00" stroke-width="0.3"><path d="
M 382.00 492.00 
C 380.57 490.57 379.38 488.38 378.00 487.00
C 373.71 483.33 369.79 478.98 365.00 476.00
C 370.49 481.13 376.08 486.94 382.00 492.00 Z"/>
</g>
<g fill="None" fill-opacity="0.0" stroke="#616161" stroke-opacity="1.00" stroke-width="0.3"><path d="
M 382.00 492.00 
C 395.26 503.33 408.64 516.97 420.00 530.00
C 408.67 514.76 392.62 499.49 378.00 487.00
C 379.38 488.38 380.57 490.57 382.00 492.00 Z"/>
</g>
<g fill="None" fill-opacity="0.0" stroke="#6F6F6F" stroke-opacity="1.00" stroke-width="0.3"><path d="
M 752.00 516.00 
C 759.99 508.01 768.33 498.26 777.00 491.00
C 767.58 497.73 760.55 508.25 752.00 516.00 Z"/>
</g>
<g fill="None" fill-opacity="0.0" stroke="#787878" stroke-opacity="1.00" stroke-width="0.3"><path d="
M 491.00 512.00 
C 487.51 507.92 484.51 503.15 480.00 500.00
C 482.33 504.75 487.30 508.30 491.00 512.00 Z"/>
</g>
<g fill="None" fill-opacity="0.0" stroke="#808080" stroke-opacity="1.00" stroke-width="0.3"><path d="
M 659.00 523.00 
C 662.25 519.75 665.46 516.94 668.00 513.00
C 665.26 516.34 661.90 519.61 659.00 523.00 Z"/>
</g>
<g fill="None" fill-opacity="0.0" stroke="#4B4B4B" stroke-opacity="1.00" stroke-width="0.3"><path d="
M 744.00 523.00 
C 743.62 523.37 747.25 521.69 748.00 521.00
C 749.28 519.50 750.56 517.44 752.00 516.00
C 749.32 518.43 746.29 520.06 744.00 523.00 Z"/>
</g>
<g fill="None" fill-opacity="0.0" stroke="#868686" stroke-opacity="1.00" stroke-width="0.3"><path d="
M 744.00 523.00 
C 742.45 524.99 739.13 528.95 737.00 532.00
C 740.10 528.22 744.71 524.85 748.00 521.00
C 747.25 521.69 743.62 523.37 744.00 523.00 Z"/>
</g>
<g fill="None" fill-opacity="0.0" stroke="#727272" stroke-opacity="1.00" stroke-width="0.3"><path d="
M 702.00 574.00 
C 708.54 565.64 715.93 557.27 723.00 549.00
C 714.51 557.49 707.33 564.09 702.00 574.00 Z"/>
</g>
<g fill="None" fill-opacity="0.0" stroke="#808080" stroke-opacity="1.00" stroke-width="0.3"><path d="
M 619.00 574.00 
C 623.03 569.64 626.85 565.20 630.00 560.00
C 626.47 564.61 622.54 569.15 619.00 574.00 Z"/>
</g>
<g fill="None" fill-opacity="0.0" stroke="#6E6E6E" stroke-opacity="1.00" stroke-width="0.3"><path d="
M 467.00 587.00 
C 464.61 582.76 461.41 579.41 458.00 576.00
C 460.87 579.63 464.39 583.35 467.00 587.00 Z"/>
</g>
<g fill="None" fill-opacity="0.0" stroke="#747474" stroke-opacity="1.00" stroke-width="0.3"><path d="
M 687.00 594.00 
C 689.36 590.70 692.47 587.47 695.00 584.00
C 691.27 587.73 689.74 589.14 687.00 594.00 Z"/>
</g>
<g fill="None" fill-opacity="0.0" stroke="#7F7F7F" stroke-opacity="1.00" stroke-width="0.3"><path d="
M 605.00 595.00 
C 606.76 592.73 608.53 590.72 610.00 588.00
C 608.49 590.23 606.54 592.51 605.00 595.00 Z"/>
</g>
<g fill="None" fill-opacity="0.0" stroke="#787878" stroke-opacity="1.00" stroke-width="0.3"><path d="
M 178.00 596.00 
C 177.44 594.60 176.53 593.19 176.00 592.00
C 176.54 593.71 177.24 594.61 178.00 596.00 Z"/>
</g>
<g fill="None" fill-opacity="0.0" stroke="#8F8F8F" stroke-opacity="1.00" stroke-width="0.3"><path d="
M 476.00 600.00 
C 474.73 597.87 473.57 596.82 472.00 595.00
C 473.23 596.79 474.79 598.38 476.00 600.00 Z"/>
</g>
<g fill="None" fill-opacity="0.0" stroke="#7C7C7C" stroke-opacity="1.00" stroke-width="0.3"><path d="
M 496.00 630.00 
C 495.47 628.04 494.06 627.39 493.00 626.00
C 494.05 627.70 494.33 628.78 496.00 630.00 Z"/>
</g>
<g fill="None" fill-opacity="0.0" stroke="#787878" stroke-opacity="1.00" stroke-width="0.3"><path d="
M 499.00 635.00 
C 498.10 633.23 497.62 632.18 496.00 631.00
C 496.53 632.95 498.10 633.59 499.00 635.00 Z"/>
</g>
<g fill="None" fill-opacity="0.0" stroke="#8B8B8B" stroke-opacity="1.00" stroke-width="0.3"><path d="
M 660.00 635.00 
C 660.76 633.80 662.12 632.43 663.00 631.00
C 661.96 632.37 660.89 633.25 660.00 635.00 Z"/>
</g>
<g fill="None" fill-opacity="0.0" stroke="#747474" stroke-opacity="1.00" stroke-width="0.3"><path d="
M 949.00 665.00 
C 953.14 658.52 957.31 651.46 960.00 644.00
C 956.63 650.81 952.58 658.00 949.00 665.00 Z"/>
</g>
<g fill="None" fill-opacity="0.0" stroke="#7A7A7A" stroke-opacity="1.00" stroke-width="0.3"><path d="
M 519.00 672.00 
C 517.24 667.10 514.67 663.18 512.00 659.00
C 514.22 663.35 516.93 667.82 519.00 672.00 Z"/>
</g>
<g fill="None" fill-opacity="0.0" stroke="#737373" stroke-opacity="1.00" stroke-width="0.3"><path d="
M 637.00 678.00 
C 638.72 674.53 641.11 670.69 643.00 667.00
C 640.73 670.56 638.52 673.79 637.00 678.00 Z"/>
</g>
<g fill="None" fill-opacity="0.0" stroke="#898989" stroke-opacity="1.00" stroke-width="0.3"><path d="
M 217.00 678.00 
C 216.06 676.29 214.89 674.53 214.00 673.00
C 214.98 675.07 215.77 676.21 217.00 678.00 Z"/>
</g>
<g fill="None" fill-opacity="0.0" stroke="#757575" stroke-opacity="1.00" stroke-width="0.3"><path d="
M 231.00 702.00 
C 230.11 700.53 228.82 699.29 228.00 698.00
C 228.89 699.74 229.94 700.59 231.00 702.00 Z"/>
</g>
<g fill="None" fill-opacity="0.0" stroke="#6B6B6B" stroke-opacity="1.00" stroke-width="0.3"><path d="
M 243.00 720.00 
C 239.79 715.32 236.01 710.58 233.00 706.00
C 235.73 711.23 239.22 715.62 243.00 720.00 Z"/>
</g>
<g fill="None" fill-opacity="0.0" stroke="#838383" stroke-opacity="1.00" stroke-width="0.3"><path d="
M 884.00 760.00 
C 884.83 759.24 886.22 758.72 887.00 758.00
C 891.75 752.44 897.16 747.20 901.00 741.00
C 895.66 747.37 889.57 753.48 884.00 760.00 Z"/>
</g>
<g fill="None" fill-opacity="0.0" stroke="#6A6A6A" stroke-opacity="1.00" stroke-width="0.3"><path d="
M 299.00 784.00 
C 285.93 773.05 272.90 759.01 262.00 746.00
C 270.94 759.57 285.64 774.46 299.00 784.00 Z"/>
</g>
<g fill="None" fill-opacity="0.0" stroke="#5C5C5C" stroke-opacity="1.00" stroke-width="0.3"><path d="
M 884.00 760.00 
C 876.87 768.35 868.31 777.04 860.00 784.00
C 869.73 777.05 879.10 767.24 887.00 758.00
C 886.22 758.72 884.83 759.24 884.00 760.00 Z"/>
</g>
<g fill="None" fill-opacity="0.0" stroke="#828282" stroke-opacity="1.00" stroke-width="0.3"><path d="
M 830.00 806.00 
C 831.70 805.08 832.59 804.07 834.00 803.00
C 832.52 803.92 831.30 805.13 830.00 806.00 Z"/>
</g>
<g fill="None" fill-opacity="0.0" stroke="#686868" stroke-opacity="1.00" stroke-width="0.3"><path d="
M 631.00 824.00 
C 627.62 821.59 623.48 817.34 621.00 814.00
C 623.42 818.15 626.57 821.51 631.00 824.00 Z"/>
</g>
<g fill="None" fill-opacity="0.0" stroke="#797979" stroke-opacity="1.00" stroke-width="0.3"><path d="
M 520.00 829.00 
C 521.86 828.21 522.57 827.09 524.00 826.00
C 522.70 826.81 521.13 828.39 520.00 829.00 Z"/>
</g>
<g fill="None" fill-opacity="0.0" stroke="#808080" stroke-opacity="1.00" stroke-width="0.3"><path d="
M 508.00 834.00 
C 509.77 833.48 510.58 832.82 512.00 832.00
C 510.72 832.54 509.10 833.54 508.00 834.00 Z"/>
</g>
<g fill="#000000" fill-opacity="0.00" stroke="None">
<path d="
M 0.00 880.00 
L 1138.00 880.00
L 1138.00 0.00
L 0.00 0.00
L 0.00 880.00
M 584.00 29.00 
C 592.71 31.16 599.26 42.00 607.08 46.92 C 614.90 51.84 621.74 60.92 629.25 66.75 C 636.75 72.59 643.90 79.41 651.25 85.75 C 658.59 92.10 666.19 99.14 673.75 105.25 C 681.31 111.37 688.07 118.25 695.75 124.25 C 703.43 130.25 710.88 137.17 718.25 143.75 C 725.61 150.33 733.18 156.70 740.25 163.75 C 747.32 170.81 753.47 177.34 760.25 184.75 C 767.03 192.16 772.91 199.94 778.92 208.08 C 784.93 216.22 790.21 223.57 795.25 232.75 C 800.30 241.92 804.81 251.27 808.31 261.69 C 811.80 272.12 814.94 285.21 815.00 297.00 C 815.06 308.79 815.46 324.96 813.00 336.00 C 810.54 347.04 806.46 357.36 802.22 367.22 C 797.98 377.09 793.14 384.98 787.70 393.70 C 782.26 402.41 776.41 410.24 770.25 418.25 C 764.08 426.26 758.08 432.94 751.75 440.75 C 745.43 448.57 738.33 455.11 730.75 461.75 C 723.17 468.40 717.49 476.37 710.25 483.25 C 703.01 490.13 697.28 497.36 690.75 504.75 C 684.22 512.14 677.65 519.66 671.25 527.25 C 664.85 534.84 659.91 542.63 653.23 550.23 C 646.55 557.83 640.59 565.30 634.70 573.70 C 628.81 582.09 622.76 589.09 617.23 598.23 C 611.70 607.37 606.91 613.46 602.08 624.08 C 597.24 634.70 592.14 638.77 587.70 651.69 C 583.25 664.62 571.72 657.87 568.70 646.31 C 565.67 634.74 558.87 628.49 554.23 618.77 C 549.59 609.05 544.02 602.10 538.70 593.30 C 533.37 584.50 526.67 577.26 521.08 568.92 C 515.49 560.58 508.17 553.67 502.25 545.75 C 496.33 537.83 490.01 530.89 483.75 523.25 C 477.50 515.61 471.15 507.75 464.70 500.30 C 458.24 492.85 451.59 486.44 444.75 479.25 C 437.92 472.06 431.76 464.32 423.92 458.08 C 416.08 451.84 410.14 443.75 403.75 436.25 C 397.36 428.76 391.11 421.86 385.25 413.75 C 379.38 405.65 373.54 397.58 368.23 388.77 C 362.92 379.96 358.24 371.75 354.23 361.77 C 350.22 351.79 346.54 340.20 345.01 328.99 C 343.48 317.79 343.47 300.76 344.33 289.33 C 345.19 277.90 349.30 266.13 352.93 255.93 C 356.56 245.72 361.35 236.60 366.77 227.77 C 372.19 218.94 376.99 211.14 383.30 203.30 C 389.61 195.46 395.98 188.00 402.75 180.75 C 409.52 173.50 415.31 166.34 422.75 159.75 C 430.20 153.17 437.43 146.48 444.75 139.75 C 452.07 133.02 460.33 127.27 467.75 120.75 C 475.16 114.23 482.24 108.05 489.75 101.75 C 497.27 95.46 504.65 88.36 512.23 82.23 C 519.81 76.10 526.12 68.76 533.75 62.75 C 541.38 56.74 548.49 49.02 556.25 43.25 C 564.01 37.48 573.11 26.30 584.00 29.00
M 89.00 329.00 
C 103.11 330.37 119.41 333.22 133.07 336.93 C 146.73 340.63 160.16 345.09 173.08 349.92 C 185.99 354.76 198.39 359.81 210.69 365.31 C 223.00 370.80 234.41 376.84 246.23 382.77 C 258.05 388.70 269.14 395.05 280.25 401.75 C 291.35 408.45 302.64 414.53 313.08 421.92 C 323.52 429.30 333.65 435.66 343.70 443.30 C 353.74 450.94 363.42 458.91 373.08 466.92 C 382.74 474.93 391.43 483.87 400.75 492.25 C 410.08 500.62 418.05 510.24 426.75 519.25 C 435.45 528.26 443.04 538.23 451.25 547.75 C 459.45 557.27 467.03 567.22 474.75 577.25 C 482.48 587.28 488.50 597.63 495.77 608.23 C 503.04 618.83 509.46 629.63 515.92 641.08 C 522.38 652.53 528.23 663.88 533.77 676.23 C 539.31 688.58 544.06 701.30 548.32 714.68 C 552.58 728.05 556.54 743.46 558.00 758.00 C 559.46 772.54 559.53 792.61 555.02 806.02 C 550.52 819.43 544.22 828.79 531.75 835.75 C 519.29 842.72 507.23 845.88 492.78 848.78 C 478.33 851.68 457.39 850.95 442.00 851.00 C 426.61 851.05 409.23 847.79 394.98 845.02 C 380.72 842.26 367.42 837.60 354.77 832.23 C 342.12 826.86 330.83 821.43 319.77 814.23 C 308.71 807.03 299.21 799.99 289.30 791.70 C 279.40 783.40 271.81 775.21 263.25 765.75 C 254.68 756.29 246.97 746.71 239.70 736.30 C 232.42 725.90 224.73 715.86 218.25 704.75 C 211.76 693.65 205.35 682.36 199.23 670.77 C 193.11 659.18 187.64 646.98 182.08 634.92 C 176.52 622.87 171.42 610.17 166.22 597.78 C 161.03 585.38 157.06 572.59 152.07 559.93 C 147.08 547.26 142.86 533.72 138.22 520.78 C 133.58 507.83 129.18 494.12 125.02 480.98 C 120.87 467.83 116.04 454.08 112.02 440.98 C 108.00 427.87 102.95 413.82 99.02 400.98 C 95.10 388.13 89.17 373.90 85.22 361.78 C 81.28 349.65 67.34 326.90 89.00 329.00
M 1082.00 330.00 
C 1078.74 355.10 1067.01 378.62 1059.68 402.68 C 1052.34 426.74 1043.27 451.16 1036.07 475.07 C 1028.88 498.99 1019.94 522.70 1012.07 546.07 C 1004.20 569.45 994.33 592.78 985.23 615.23 C 976.13 637.68 965.66 659.36 954.23 680.23 C 942.80 701.10 931.94 719.90 917.75 738.75 C 903.55 757.60 890.38 773.20 872.25 789.25 C 854.11 805.30 837.68 816.24 815.31 827.31 C 792.93 838.37 767.06 845.42 741.00 849.00 C 714.94 852.58 677.84 851.62 652.78 845.22 C 627.72 838.82 608.12 826.65 602.67 800.33 C 597.22 774.01 601.98 741.04 609.93 716.93 C 617.87 692.81 626.59 670.64 638.31 649.31 C 650.02 627.97 661.33 609.97 674.77 590.77 C 688.21 571.57 701.61 554.20 716.77 536.77 C 731.93 519.34 745.95 503.82 762.75 487.75 C 779.55 471.69 796.31 457.75 814.75 443.75 C 833.20 429.75 852.24 417.64 872.23 405.23 C 892.22 392.82 912.25 382.71 934.08 372.08 C 955.90 361.44 978.27 351.88 1002.07 344.07 C 1025.88 336.27 1055.81 327.21 1082.00 330.00 Z"/>
</g>
<g fill="#000000" fill-opacity="1.00" stroke="None">
<path d="
M 584.00 29.00 
C 573.11 26.30 564.01 37.48 556.25 43.25 C 548.49 49.02 541.38 56.74 533.75 62.75 C 526.12 68.76 519.81 76.10 512.23 82.23 C 504.65 88.36 497.27 95.46 489.75 101.75 C 482.24 108.05 475.16 114.23 467.75 120.75 C 460.33 127.27 452.07 133.02 444.75 139.75 C 437.43 146.48 430.20 153.17 422.75 159.75 C 415.31 166.34 409.52 173.50 402.75 180.75 C 395.98 188.00 389.61 195.46 383.30 203.30 C 376.99 211.14 372.19 218.94 366.77 227.77 C 361.35 236.60 356.56 245.72 352.93 255.93 C 349.30 266.13 345.19 277.90 344.33 289.33 C 343.47 300.76 343.48 317.79 345.01 328.99 C 346.54 340.20 350.22 351.79 354.23 361.77 C 358.24 371.75 362.92 379.96 368.23 388.77 C 373.54 397.58 379.38 405.65 385.25 413.75 C 391.11 421.86 397.36 428.76 403.75 436.25 C 410.14 443.75 416.08 451.84 423.92 458.08 C 431.76 464.32 437.92 472.06 444.75 479.25 C 451.59 486.44 458.24 492.85 464.70 500.30 C 471.15 507.75 477.50 515.61 483.75 523.25 C 490.01 530.89 496.33 537.83 502.25 545.75 C 508.17 553.67 515.49 560.58 521.08 568.92 C 526.67 577.26 533.37 584.50 538.70 593.30 C 544.02 602.10 549.59 609.05 554.23 618.77 C 558.87 628.49 565.67 634.74 568.70 646.31 C 571.72 657.87 583.25 664.62 587.70 651.69 C 592.14 638.77 597.24 634.70 602.08 624.08 C 606.91 613.46 611.70 607.37 617.23 598.23 C 622.76 589.09 628.81 582.09 634.70 573.70 C 640.59 565.30 646.55 557.83 653.23 550.23 C 659.91 542.63 664.85 534.84 671.25 527.25 C 677.65 519.66 684.22 512.14 690.75 504.75 C 697.28 497.36 703.01 490.13 710.25 483.25 C 717.49 476.37 723.17 468.40 730.75 461.75 C 738.33 455.11 745.43 448.57 751.75 440.75 C 758.08 432.94 764.08 426.26 770.25 418.25 C 776.41 410.24 782.26 402.41 787.70 393.70 C 793.14 384.98 797.98 377.09 802.22 367.22 C 806.46 357.36 810.54 347.04 813.00 336.00 C 815.46 324.96 815.06 308.79 815.00 297.00 C 814.94 285.21 811.80 272.12 808.31 261.69 C 804.81 251.27 800.30 241.92 795.25 232.75 C 790.21 223.57 784.93 216.22 778.92 208.08 C 772.91 199.94 767.03 192.16 760.25 184.75 C 753.47 177.34 747.32 170.81 740.25 163.75 C 733.18 156.70 725.61 150.33 718.25 143.75 C 710.88 137.17 703.43 130.25 695.75 124.25 C 688.07 118.25 681.31 111.37 673.75 105.25 C 666.19 99.14 658.59 92.10 651.25 85.75 C 643.90 79.41 636.75 72.59 629.25 66.75 C 621.74 60.92 614.90 51.84 607.08 46.92 C 599.26 42.00 592.71 31.16 584.00 29.00
M 582.00 42.00 
C 587.69 43.61 592.99 50.99 597.00 55.00
C 599.98 57.55 602.94 59.82 606.00 62.00
C 617.61 70.29 627.92 80.92 638.00 91.00
C 644.00 96.13 649.71 101.51 656.00 106.00
C 660.90 109.50 664.81 113.81 669.00 118.00
C 670.58 119.35 672.50 120.67 674.00 122.00
C 701.28 141.49 731.19 166.82 752.00 194.00
C 752.99 195.29 754.01 196.79 755.00 198.00
C 758.28 201.41 761.54 203.95 764.00 208.00
C 768.74 215.82 775.10 223.08 780.00 231.00
C 781.08 232.42 782.11 233.25 783.00 235.00
C 792.32 253.25 799.31 267.52 803.98 288.02 C 808.64 308.53 803.16 331.52 797.00 351.00
C 796.47 352.69 795.79 353.64 795.00 355.00
C 788.62 370.00 779.25 383.10 771.00 397.00
C 769.73 399.14 769.15 400.60 767.00 402.00
C 766.78 402.36 767.00 403.00 767.00 403.00
C 763.92 407.96 760.07 411.93 756.00 416.00
C 754.04 418.29 752.59 420.58 751.00 423.00
C 734.62 447.88 707.07 469.93 686.00 491.00
C 679.80 498.26 672.99 505.26 668.00 513.00
C 665.46 516.94 662.25 519.75 659.00 523.00
C 649.00 534.70 637.82 547.10 630.00 560.00
C 626.85 565.20 623.03 569.64 619.00 574.00
C 615.63 578.63 612.62 583.14 610.00 588.00
C 608.53 590.72 606.76 592.73 605.00 595.00
C 595.56 610.24 586.74 626.19 579.00 642.00
C 559.07 593.52 524.36 552.79 491.00 512.00
C 487.30 508.30 482.33 504.75 480.00 500.00
C 479.80 499.60 480.00 499.00 480.00 499.00
C 467.69 490.40 457.13 475.15 446.75 464.25 C 436.37 453.35 419.50 442.31 413.00 429.00
C 412.80 428.60 413.00 428.00 413.00 428.00
C 408.93 425.15 405.60 421.04 403.00 417.00
C 392.62 400.91 379.81 386.23 371.00 369.00
C 368.70 365.40 366.53 362.25 365.00 358.00
C 358.90 341.06 352.87 324.79 353.00 306.00 C 353.13 287.21 359.87 271.03 366.00 254.00
C 367.52 249.78 369.58 246.52 372.00 243.00
C 380.05 228.40 391.19 215.90 400.00 202.00
C 403.05 197.19 406.22 193.46 411.00 189.00
C 416.30 181.76 430.34 166.07 439.00 160.00
C 447.09 154.32 453.50 145.57 462.00 141.00
C 465.37 139.19 468.10 136.48 471.00 134.00
C 475.03 129.97 476.80 127.61 481.00 125.00
C 481.64 124.60 482.39 124.37 483.00 124.00
C 486.28 120.94 489.94 117.58 492.00 116.00
C 497.86 111.49 501.64 106.06 507.00 103.00
C 508.90 101.31 511.12 99.61 513.00 98.00
C 518.41 92.59 521.54 89.00 527.00 85.00
C 527.95 84.30 529.10 83.68 530.00 83.00
C 536.06 77.44 538.82 71.52 546.00 68.00
C 546.40 67.80 547.00 68.00 547.00 68.00
C 553.74 58.35 563.75 50.43 573.00 45.00
C 575.83 43.34 578.82 41.10 582.00 42.00 Z"/>
</g>
<g fill="#000000" fill-opacity="0.00" stroke="None">
<path d="
M 573.00 45.00 
C 564.56 51.47 556.68 63.26 547.00 68.00
C 547.00 68.00 546.40 67.80 546.00 68.00
C 542.09 73.59 535.40 78.92 530.00 83.00
C 529.10 83.68 527.95 84.30 527.00 85.00
C 522.32 89.30 517.87 93.84 513.00 98.00
C 511.12 99.61 508.90 101.31 507.00 103.00
C 502.19 107.27 496.90 111.65 492.00 116.00
C 489.27 118.42 486.26 122.01 483.00 124.00
C 482.39 124.37 481.64 124.60 481.00 125.00
C 477.73 128.05 474.44 131.06 471.00 134.00
C 468.10 136.48 465.37 139.19 462.00 141.00
C 453.84 147.84 446.24 155.96 438.00 163.00
C 429.23 170.49 420.45 179.28 413.00 188.00
C 408.86 192.84 403.88 197.28 400.00 202.00
C 391.19 215.90 380.05 228.40 372.00 243.00
C 370.02 246.59 367.70 250.57 366.00 254.00
C 359.87 271.03 353.13 287.21 353.00 306.00 C 352.87 324.79 358.90 341.06 365.00 358.00
C 366.74 361.51 369.12 365.31 371.00 369.00
C 379.81 386.23 392.62 400.91 403.00 417.00
C 405.89 420.52 410.93 423.76 413.00 428.00
C 413.00 428.00 412.80 428.60 413.00 429.00
C 421.23 434.76 427.70 444.69 435.25 451.75 C 442.79 458.81 451.79 466.78 458.25 474.75 C 464.70 482.73 475.54 489.89 480.00 499.00
C 480.00 499.00 479.80 499.60 480.00 500.00
C 484.51 503.15 487.51 507.92 491.00 512.00
C 524.36 552.79 559.07 593.52 579.00 642.00
C 586.74 626.19 595.56 610.24 605.00 595.00
C 606.54 592.51 608.49 590.23 610.00 588.00
C 612.62 583.14 615.63 578.63 619.00 574.00
C 622.54 569.15 626.47 564.61 630.00 560.00
C 637.82 547.10 649.00 534.70 659.00 523.00
C 661.90 519.61 665.26 516.34 668.00 513.00
C 672.99 505.26 679.80 498.26 686.00 491.00
C 706.21 467.35 731.24 446.59 751.00 423.00
C 752.59 420.58 754.04 418.29 756.00 416.00
C 759.66 411.72 762.40 406.21 767.00 403.00
C 767.00 403.00 766.78 402.36 767.00 402.00
C 768.19 400.09 769.80 398.62 771.00 397.00
C 779.25 383.10 788.62 370.00 795.00 355.00
C 795.55 353.72 796.52 352.08 797.00 351.00
C 803.16 331.52 808.64 308.53 803.98 288.02 C 799.31 267.52 792.32 253.25 783.00 235.00
C 782.19 233.73 780.89 232.44 780.00 231.00
C 775.10 223.08 768.74 215.82 764.00 208.00
C 761.23 204.63 757.83 201.45 755.00 198.00
C 754.01 196.79 752.99 195.29 752.00 194.00
C 727.23 168.24 700.15 145.25 674.00 122.00
C 672.50 120.67 670.58 119.35 669.00 118.00
C 664.51 114.16 660.41 109.69 656.00 106.00
C 649.71 101.51 644.00 96.13 638.00 91.00
C 627.04 81.63 616.90 71.13 606.00 62.00
C 602.94 59.82 599.98 57.55 597.00 55.00
C 592.80 51.41 586.74 43.95 582.00 42.00
C 578.82 41.10 575.83 43.34 573.00 45.00 Z"/>
</g>
<g fill="#7C7C7C" fill-opacity="1.00" stroke="None">
<path d="
M 597.00 55.00 
C 592.99 50.99 587.69 43.61 582.00 42.00
C 586.74 43.95 592.80 51.41 597.00 55.00 Z"/>
</g>
<g fill="#767676" fill-opacity="1.00" stroke="None">
<path d="
M 547.00 68.00 
C 556.68 63.26 564.56 51.47 573.00 45.00
C 563.75 50.43 553.74 58.35 547.00 68.00 Z"/>
</g>
<g fill="#787878" fill-opacity="1.00" stroke="None">
<path d="
M 638.00 91.00 
C 627.92 80.92 617.61 70.29 606.00 62.00
C 616.90 71.13 627.04 81.63 638.00 91.00 Z"/>
</g>
<g fill="#717171" fill-opacity="1.00" stroke="None">
<path d="
M 530.00 83.00 
C 535.40 78.92 542.09 73.59 546.00 68.00
C 538.82 71.52 536.06 77.44 530.00 83.00 Z"/>
</g>
<g fill="#777777" fill-opacity="1.00" stroke="None">
<path d="
M 513.00 98.00 
C 517.87 93.84 522.32 89.30 527.00 85.00
C 521.54 89.00 518.41 92.59 513.00 98.00 Z"/>
</g>
<g fill="#686868" fill-opacity="1.00" stroke="None">
<path d="
M 492.00 116.00 
C 496.90 111.65 502.19 107.27 507.00 103.00
C 501.64 106.06 497.86 111.49 492.00 116.00 Z"/>
</g>
<g fill="#8A8A8A" fill-opacity="1.00" stroke="None">
<path d="
M 669.00 118.00 
C 664.81 113.81 660.90 109.50 656.00 106.00
C 660.41 109.69 664.51 114.16 669.00 118.00 Z"/>
</g>
<g fill="#858585" fill-opacity="1.00" stroke="None">
<path d="
M 483.00 124.00 
C 486.26 122.01 489.27 118.42 492.00 116.00
C 489.94 117.58 486.28 120.94 483.00 124.00 Z"/>
</g>
<g fill="#6F6F6F" fill-opacity="1.00" stroke="None">
<path d="
M 752.00 194.00 
C 731.19 166.82 701.28 141.49 674.00 122.00
C 700.15 145.25 727.23 168.24 752.00 194.00 Z"/>
</g>
<g fill="#6C6C6C" fill-opacity="1.00" stroke="None">
<path d="
M 471.00 134.00 
C 474.44 131.06 477.73 128.05 481.00 125.00
C 476.80 127.61 475.03 129.97 471.00 134.00 Z"/>
</g>
<g fill="#727272" fill-opacity="1.00" stroke="None">
<path d="
M 439.00 160.00 
C 439.34 159.55 438.54 162.35 438.00 163.00
C 446.24 155.96 453.84 147.84 462.00 141.00
C 453.50 145.57 447.09 154.32 439.00 160.00 Z"/>
</g>
<g fill="#565656" fill-opacity="1.00" stroke="None">
<path d="
M 411.00 189.00 
C 411.49 188.54 412.57 188.40 413.00 188.00
C 420.45 179.28 429.23 170.49 438.00 163.00
C 438.54 162.35 439.34 159.55 439.00 160.00
C 430.34 166.07 416.30 181.76 411.00 189.00 Z"/>
</g>
<g fill="#7F7F7F" fill-opacity="1.00" stroke="None">
<path d="
M 411.00 189.00 
C 406.22 193.46 403.05 197.19 400.00 202.00
C 403.88 197.28 408.86 192.84 413.00 188.00
C 412.57 188.40 411.49 188.54 411.00 189.00 Z"/>
</g>
<g fill="#797979" fill-opacity="1.00" stroke="None">
<path d="
M 764.00 208.00 
C 761.54 203.95 758.28 201.41 755.00 198.00
C 757.83 201.45 761.23 204.63 764.00 208.00 Z"/>
</g>
<g fill="#7B7B7B" fill-opacity="1.00" stroke="None">
<path d="
M 783.00 235.00 
C 782.11 233.25 781.08 232.42 780.00 231.00
C 780.89 232.44 782.19 233.73 783.00 235.00 Z"/>
</g>
<g fill="#868686" fill-opacity="1.00" stroke="None">
<path d="
M 366.00 254.00 
C 367.70 250.57 370.02 246.59 372.00 243.00
C 369.58 246.52 367.52 249.78 366.00 254.00 Z"/>
</g>
<g fill="#000000" fill-opacity="1.00" stroke="None">
<path d="
M 89.00 329.00 
C 67.34 326.90 81.28 349.65 85.22 361.78 C 89.17 373.90 95.10 388.13 99.02 400.98 C 102.95 413.82 108.00 427.87 112.02 440.98 C 116.04 454.08 120.87 467.83 125.02 480.98 C 129.18 494.12 133.58 507.83 138.22 520.78 C 142.86 533.72 147.08 547.26 152.07 559.93 C 157.06 572.59 161.03 585.38 166.22 597.78 C 171.42 610.17 176.52 622.87 182.08 634.92 C 187.64 646.98 193.11 659.18 199.23 670.77 C 205.35 682.36 211.76 693.65 218.25 704.75 C 224.73 715.86 232.42 725.90 239.70 736.30 C 246.97 746.71 254.68 756.29 263.25 765.75 C 271.81 775.21 279.40 783.40 289.30 791.70 C 299.21 799.99 308.71 807.03 319.77 814.23 C 330.83 821.43 342.12 826.86 354.77 832.23 C 367.42 837.60 380.72 842.26 394.98 845.02 C 409.23 847.79 426.61 851.05 442.00 851.00 C 457.39 850.95 478.33 851.68 492.78 848.78 C 507.23 845.88 519.29 842.72 531.75 835.75 C 544.22 828.79 550.52 819.43 555.02 806.02 C 559.53 792.61 559.46 772.54 558.00 758.00 C 556.54 743.46 552.58 728.05 548.32 714.68 C 544.06 701.30 539.31 688.58 533.77 676.23 C 528.23 663.88 522.38 652.53 515.92 641.08 C 509.46 629.63 503.04 618.83 495.77 608.23 C 488.50 597.63 482.48 587.28 474.75 577.25 C 467.03 567.22 459.45 557.27 451.25 547.75 C 443.04 538.23 435.45 528.26 426.75 519.25 C 418.05 510.24 410.08 500.62 400.75 492.25 C 391.43 483.87 382.74 474.93 373.08 466.92 C 363.42 458.91 353.74 450.94 343.70 443.30 C 333.65 435.66 323.52 429.30 313.08 421.92 C 302.64 414.53 291.35 408.45 280.25 401.75 C 269.14 395.05 258.05 388.70 246.23 382.77 C 234.41 376.84 223.00 370.80 210.69 365.31 C 198.39 359.81 185.99 354.76 173.08 349.92 C 160.16 345.09 146.73 340.63 133.07 336.93 C 119.41 333.22 103.11 330.37 89.00 329.00
M 209.00 377.00 
C 221.01 381.32 233.45 388.26 244.00 395.00
C 249.10 397.60 253.84 400.56 259.00 403.00
C 260.95 403.92 262.32 404.91 264.00 406.00
C 265.04 406.47 265.98 406.60 267.00 407.00
C 268.88 407.75 269.62 408.95 271.00 410.00
C 273.06 411.28 274.97 411.97 277.00 413.00
C 278.75 413.89 279.63 414.96 281.00 416.00
C 300.77 428.24 319.28 443.04 339.00 455.00
C 347.98 460.44 355.37 467.87 363.00 475.00
C 363.63 475.39 364.40 475.63 365.00 476.00
C 369.79 478.98 373.71 483.33 378.00 487.00
C 392.62 499.49 408.67 514.76 420.00 530.00
C 431.85 545.94 445.76 560.50 458.00 576.00
C 461.41 579.41 464.61 582.76 467.00 587.00
C 468.51 589.69 470.16 592.32 472.00 595.00
C 473.57 596.82 474.73 597.87 476.00 600.00
C 481.30 608.93 487.54 617.18 493.00 626.00
C 494.06 627.39 495.47 628.04 496.00 630.00
C 496.13 630.47 496.00 631.00 496.00 631.00
C 497.62 632.18 498.10 633.23 499.00 635.00
C 503.08 643.00 507.85 650.89 512.00 659.00
C 514.67 663.18 517.24 667.10 519.00 672.00
C 528.42 698.18 541.60 721.76 546.33 749.67 C 551.06 777.59 551.16 809.18 524.00 826.00
C 522.57 827.09 521.86 828.21 520.00 829.00
C 517.52 830.06 514.63 830.88 512.00 832.00
C 510.58 832.82 509.77 833.48 508.00 834.00
C 470.37 845.01 425.30 842.60 388.78 832.22 C 352.26 821.84 329.16 805.54 299.00 784.00
C 285.64 774.46 270.94 759.57 262.00 746.00
C 256.10 737.04 249.07 728.85 243.00 720.00
C 239.22 715.62 235.73 711.23 233.00 706.00
C 232.35 704.75 231.80 703.32 231.00 702.00
C 229.94 700.59 228.89 699.74 228.00 698.00
C 224.59 691.32 220.69 684.69 217.00 678.00
C 215.77 676.21 214.98 675.07 214.00 673.00
C 201.82 647.24 188.51 622.34 178.00 596.00
C 177.24 594.61 176.54 593.71 176.00 592.00
C 162.61 549.67 144.53 508.79 132.02 465.98 C 119.52 423.16 103.84 381.06 89.00 339.00
C 131.30 343.74 170.29 360.71 209.00 377.00 Z"/>
</g>
<g fill="#000000" fill-opacity="1.00" stroke="None">
<path d="
M 1082.00 330.00 
C 1055.81 327.21 1025.88 336.27 1002.07 344.07 C 978.27 351.88 955.90 361.44 934.08 372.08 C 912.25 382.71 892.22 392.82 872.23 405.23 C 852.24 417.64 833.20 429.75 814.75 443.75 C 796.31 457.75 779.55 471.69 762.75 487.75 C 745.95 503.82 731.93 519.34 716.77 536.77 C 701.61 554.20 688.21 571.57 674.77 590.77 C 661.33 609.97 650.02 627.97 638.31 649.31 C 626.59 670.64 617.87 692.81 609.93 716.93 C 601.98 741.04 597.22 774.01 602.67 800.33 C 608.12 826.65 627.72 838.82 652.78 845.22 C 677.84 851.62 714.94 852.58 741.00 849.00 C 767.06 845.42 792.93 838.37 815.31 827.31 C 837.68 816.24 854.11 805.30 872.25 789.25 C 890.38 773.20 903.55 757.60 917.75 738.75 C 931.94 719.90 942.80 701.10 954.23 680.23 C 965.66 659.36 976.13 637.68 985.23 615.23 C 994.33 592.78 1004.20 569.45 1012.07 546.07 C 1019.94 522.70 1028.88 498.99 1036.07 475.07 C 1043.27 451.16 1052.34 426.74 1059.68 402.68 C 1067.01 378.62 1078.74 355.10 1082.00 330.00
M 960.00 644.00 
C 957.31 651.46 953.14 658.52 949.00 665.00
C 935.19 692.02 916.92 715.29 901.00 741.00
C 897.16 747.20 891.75 752.44 887.00 758.00
C 879.10 767.24 869.73 777.05 860.00 784.00
C 851.29 790.22 843.08 797.38 834.00 803.00
C 832.59 804.07 831.70 805.08 830.00 806.00
C 771.15 837.75 694.12 859.55 631.00 824.00
C 626.57 821.51 623.42 818.15 621.00 814.00
C 595.03 769.33 621.48 721.12 637.00 678.00
C 638.52 673.79 640.73 670.56 643.00 667.00
C 648.52 656.20 654.56 645.65 660.00 635.00
C 660.89 633.25 661.96 632.37 663.00 631.00
C 670.72 618.52 679.89 606.62 687.00 594.00
C 689.74 589.14 691.27 587.73 695.00 584.00
C 697.45 580.64 700.06 577.61 702.00 574.00
C 707.33 564.09 714.51 557.49 723.00 549.00
C 727.78 543.41 732.96 537.77 737.00 532.00
C 739.13 528.95 742.45 524.99 744.00 523.00
C 746.29 520.06 749.32 518.43 752.00 516.00
C 760.55 508.25 767.58 497.73 777.00 491.00
C 781.18 488.01 785.04 484.38 789.00 481.00
C 797.21 472.79 803.09 466.64 812.00 461.00
C 852.00 435.67 884.86 407.75 928.70 387.70 C 972.53 367.64 1020.79 343.92 1070.00 339.00
C 1032.53 440.21 1006.15 545.82 960.00 644.00 Z"/>
</g>
<g fill="#000000" fill-opacity="0.00" stroke="None">
<path d="
M 176.00 592.00 
C 176.53 593.19 177.44 594.60 178.00 596.00
C 188.51 622.34 201.82 647.24 214.00 673.00
C 214.89 674.53 216.06 676.29 217.00 678.00
C 220.69 684.69 224.59 691.32 228.00 698.00
C 228.82 699.29 230.11 700.53 231.00 702.00
C 231.80 703.32 232.35 704.75 233.00 706.00
C 236.01 710.58 239.79 715.32 243.00 720.00
C 249.07 728.85 256.10 737.04 262.00 746.00
C 272.90 759.01 285.93 773.05 299.00 784.00
C 329.16 805.54 352.26 821.84 388.78 832.22 C 425.30 842.60 470.37 845.01 508.00 834.00
C 509.10 833.54 510.72 832.54 512.00 832.00
C 514.63 830.88 517.52 830.06 520.00 829.00
C 521.13 828.39 522.70 826.81 524.00 826.00
C 551.16 809.18 551.06 777.59 546.33 749.67 C 541.60 721.76 528.42 698.18 519.00 672.00
C 516.93 667.82 514.22 663.35 512.00 659.00
C 507.85 650.89 503.08 643.00 499.00 635.00
C 498.10 633.59 496.53 632.95 496.00 631.00
C 496.00 631.00 496.13 630.47 496.00 630.00
C 494.33 628.78 494.05 627.70 493.00 626.00
C 487.54 617.18 481.30 608.93 476.00 600.00
C 474.79 598.38 473.23 596.79 472.00 595.00
C 470.16 592.32 468.51 589.69 467.00 587.00
C 464.39 583.35 460.87 579.63 458.00 576.00
C 445.76 560.50 431.85 545.94 420.00 530.00
C 408.64 516.97 395.26 503.33 382.00 492.00
C 376.08 486.94 370.49 481.13 365.00 476.00
C 364.40 475.63 363.63 475.39 363.00 475.00
C 354.26 469.68 346.90 461.05 339.00 455.00
C 319.28 443.04 300.77 428.24 281.00 416.00
C 279.58 415.12 278.20 413.76 277.00 413.00
C 274.97 411.97 273.06 411.28 271.00 410.00
C 269.70 409.19 268.08 407.60 267.00 407.00
C 265.98 406.60 265.04 406.47 264.00 406.00
C 262.15 405.17 260.54 403.89 259.00 403.00
C 253.84 400.56 249.10 397.60 244.00 395.00
C 232.35 389.05 220.48 382.68 209.00 377.00
C 170.29 360.71 131.30 343.74 89.00 339.00
C 103.84 381.06 119.52 423.16 132.02 465.98 C 144.53 508.79 162.61 549.67 176.00 592.00 Z"/>
</g>
<g fill="#000000" fill-opacity="0.00" stroke="None">
<path d="
M 812.00 461.00 
C 804.26 467.35 796.74 474.39 789.00 481.00
C 785.04 484.38 781.18 488.01 777.00 491.00
C 768.33 498.26 759.99 508.01 752.00 516.00
C 750.56 517.44 749.28 519.50 748.00 521.00
C 744.71 524.85 740.10 528.22 737.00 532.00
C 732.96 537.77 727.78 543.41 723.00 549.00
C 715.93 557.27 708.54 565.64 702.00 574.00
C 700.06 577.61 697.45 580.64 695.00 584.00
C 692.47 587.47 689.36 590.70 687.00 594.00
C 679.89 606.62 670.72 618.52 663.00 631.00
C 662.12 632.43 660.76 633.80 660.00 635.00
C 654.56 645.65 648.52 656.20 643.00 667.00
C 641.11 670.69 638.72 674.53 637.00 678.00
C 621.48 721.12 595.03 769.33 621.00 814.00
C 623.48 817.34 627.62 821.59 631.00 824.00
C 694.12 859.55 771.15 837.75 830.00 806.00
C 831.30 805.13 832.52 803.92 834.00 803.00
C 843.08 797.38 851.29 790.22 860.00 784.00
C 868.31 777.04 876.87 768.35 884.00 760.00
C 889.57 753.48 895.66 747.37 901.00 741.00
C 916.92 715.29 935.19 692.02 949.00 665.00
C 952.58 658.00 956.63 650.81 960.00 644.00
C 1006.15 545.82 1032.53 440.21 1070.00 339.00
C 1020.79 343.92 972.53 367.64 928.70 387.70 C 884.86 407.75 852.00 435.67 812.00 461.00 Z"/>
</g>
<g fill="#7B7B7B" fill-opacity="1.00" stroke="None">
<path d="
M 795.00 355.00 
C 795.79 353.64 796.47 352.69 797.00 351.00
C 796.52 352.08 795.55 353.72 795.00 355.00 Z"/>
</g>
<g fill="#8F8F8F" fill-opacity="1.00" stroke="None">
<path d="
M 371.00 369.00 
C 369.12 365.31 366.74 361.51 365.00 358.00
C 366.53 362.25 368.70 365.40 371.00 369.00 Z"/>
</g>
<g fill="#8E8E8E" fill-opacity="1.00" stroke="None">
<path d="
M 244.00 395.00 
C 233.45 388.26 221.01 381.32 209.00 377.00
C 220.48 382.68 232.35 389.05 244.00 395.00 Z"/>
</g>
<g fill="#8A8A8A" fill-opacity="1.00" stroke="None">
<path d="
M 767.00 402.00 
C 769.15 400.60 769.73 399.14 771.00 397.00
C 769.80 398.62 768.19 400.09 767.00 402.00 Z"/>
</g>
<g fill="#868686" fill-opacity="1.00" stroke="None">
<path d="
M 264.00 406.00 
C 262.32 404.91 260.95 403.92 259.00 403.00
C 260.54 403.89 262.15 405.17 264.00 406.00 Z"/>
</g>
<g fill="#7D7D7D" fill-opacity="1.00" stroke="None">
<path d="
M 756.00 416.00 
C 760.07 411.93 763.92 407.96 767.00 403.00
C 762.40 406.21 759.66 411.72 756.00 416.00 Z"/>
</g>
<g fill="#757575" fill-opacity="1.00" stroke="None">
<path d="
M 271.00 410.00 
C 269.62 408.95 268.88 407.75 267.00 407.00
C 268.08 407.60 269.70 409.19 271.00 410.00 Z"/>
</g>
<g fill="#838383" fill-opacity="1.00" stroke="None">
<path d="
M 281.00 416.00 
C 279.63 414.96 278.75 413.89 277.00 413.00
C 278.20 413.76 279.58 415.12 281.00 416.00 Z"/>
</g>
<g fill="#7D7D7D" fill-opacity="1.00" stroke="None">
<path d="
M 413.00 428.00 
C 410.93 423.76 405.89 420.52 403.00 417.00
C 405.60 421.04 408.93 425.15 413.00 428.00 Z"/>
</g>
<g fill="#6C6C6C" fill-opacity="1.00" stroke="None">
<path d="
M 686.00 491.00 
C 707.07 469.93 734.62 447.88 751.00 423.00
C 731.24 446.59 706.21 467.35 686.00 491.00 Z"/>
</g>
<g fill="#6B6B6B" fill-opacity="1.00" stroke="None">
<path d="
M 480.00 499.00 
C 475.54 489.89 464.70 482.73 458.25 474.75 C 451.79 466.78 442.79 458.81 435.25 451.75 C 427.70 444.69 421.23 434.76 413.00 429.00
C 419.50 442.31 436.37 453.35 446.75 464.25 C 457.13 475.15 467.69 490.40 480.00 499.00 Z"/>
</g>
<g fill="#7B7B7B" fill-opacity="1.00" stroke="None">
<path d="
M 363.00 475.00 
C 355.37 467.87 347.98 460.44 339.00 455.00
C 346.90 461.05 354.26 469.68 363.00 475.00 Z"/>
</g>
<g fill="#7A7A7A" fill-opacity="1.00" stroke="None">
<path d="
M 789.00 481.00 
C 796.74 474.39 804.26 467.35 812.00 461.00
C 803.09 466.64 797.21 472.79 789.00 481.00 Z"/>
</g>
<g fill="#8A8A8A" fill-opacity="1.00" stroke="None">
<path d="
M 382.00 492.00 
C 380.57 490.57 379.38 488.38 378.00 487.00
C 373.71 483.33 369.79 478.98 365.00 476.00
C 370.49 481.13 376.08 486.94 382.00 492.00 Z"/>
</g>
<g fill="#616161" fill-opacity="1.00" stroke="None">
<path d="
M 382.00 492.00 
C 395.26 503.33 408.64 516.97 420.00 530.00
C 408.67 514.76 392.62 499.49 378.00 487.00
C 379.38 488.38 380.57 490.57 382.00 492.00 Z"/>
</g>
<g fill="#6F6F6F" fill-opacity="1.00" stroke="None">
<path d="
M 752.00 516.00 
C 759.99 508.01 768.33 498.26 777.00 491.00
C 767.58 497.73 760.55 508.25 752.00 516.00 Z"/>
</g>
<g fill="#787878" fill-opacity="1.00" stroke="None">
<path d="
M 491.00 512.00 
C 487.51 507.92 484.51 503.15 480.00 500.00
C 482.33 504.75 487.30 508.30 491.00 512.00 Z"/>
</g>
<g fill="#808080" fill-opacity="1.00" stroke="None">
<path d="
M 659.00 523.00 
C 662.25 519.75 665.46 516.94 668.00 513.00
C 665.26 516.34 661.90 519.61 659.00 523.00 Z"/>
</g>
<g fill="#4B4B4B" fill-opacity="1.00" stroke="None">
<path d="
M 744.00 523.00 
C 743.62 523.37 747.25 521.69 748.00 521.00
C 749.28 519.50 750.56 517.44 752.00 516.00
C 749.32 518.43 746.29 520.06 744.00 523.00 Z"/>
</g>
<g fill="#868686" fill-opacity="1.00" stroke="None">
<path d="
M 744.00 523.00 
C 742.45 524.99 739.13 528.95 737.00 532.00
C 740.10 528.22 744.71 524.85 748.00 521.00
C 747.25 521.69 743.62 523.37 744.00 523.00 Z"/>
</g>
<g fill="#727272" fill-opacity="1.00" stroke="None">
<path d="
M 702.00 574.00 
C 708.54 565.64 715.93 557.27 723.00 549.00
C 714.51 557.49 707.33 564.09 702.00 574.00 Z"/>
</g>
<g fill="#808080" fill-opacity="1.00" stroke="None">
<path d="
M 619.00 574.00 
C 623.03 569.64 626.85 565.20 630.00 560.00
C 626.47 564.61 622.54 569.15 619.00 574.00 Z"/>
</g>
<g fill="#6E6E6E" fill-opacity="1.00" stroke="None">
<path d="
M 467.00 587.00 
C 464.61 582.76 461.41 579.41 458.00 576.00
C 460.87 579.63 464.39 583.35 467.00 587.00 Z"/>
</g>
<g fill="#747474" fill-opacity="1.00" stroke="None">
<path d="
M 687.00 594.00 
C 689.36 590.70 692.47 587.47 695.00 584.00
C 691.27 587.73 689.74 589.14 687.00 594.00 Z"/>
</g>
<g fill="#7F7F7F" fill-opacity="1.00" stroke="None">
<path d="
M 605.00 595.00 
C 606.76 592.73 608.53 590.72 610.00 588.00
C 608.49 590.23 606.54 592.51 605.00 595.00 Z"/>
</g>
<g fill="#787878" fill-opacity="1.00" stroke="None">
<path d="
M 178.00 596.00 
C 177.44 594.60 176.53 593.19 176.00 592.00
C 176.54 593.71 177.24 594.61 178.00 596.00 Z"/>
</g>
<g fill="#8F8F8F" fill-opacity="1.00" stroke="None">
<path d="
M 476.00 600.00 
C 474.73 597.87 473.57 596.82 472.00 595.00
C 473.23 596.79 474.79 598.38 476.00 600.00 Z"/>
</g>
<g fill="#7C7C7C" fill-opacity="1.00" stroke="None">
<path d="
M 496.00 630.00 
C 495.47 628.04 494.06 627.39 493.00 626.00
C 494.05 627.70 494.33 628.78 496.00 630.00 Z"/>
</g>
<g fill="#787878" fill-opacity="1.00" stroke="None">
<path d="
M 499.00 635.00 
C 498.10 633.23 497.62 632.18 496.00 631.00
C 496.53 632.95 498.10 633.59 499.00 635.00 Z"/>
</g>
<g fill="#8B8B8B" fill-opacity="1.00" stroke="None">
<path d="
M 660.00 635.00 
C 660.76 633.80 662.12 632.43 663.00 631.00
C 661.96 632.37 660.89 633.25 660.00 635.00 Z"/>
</g>
<g fill="#747474" fill-opacity="1.00" stroke="None">
<path d="
M 949.00 665.00 
C 953.14 658.52 957.31 651.46 960.00 644.00
C 956.63 650.81 952.58 658.00 949.00 665.00 Z"/>
</g>
<g fill="#7A7A7A" fill-opacity="1.00" stroke="None">
<path d="
M 519.00 672.00 
C 517.24 667.10 514.67 663.18 512.00 659.00
C 514.22 663.35 516.93 667.82 519.00 672.00 Z"/>
</g>
<g fill="#737373" fill-opacity="1.00" stroke="None">
<path d="
M 637.00 678.00 
C 638.72 674.53 641.11 670.69 643.00 667.00
C 640.73 670.56 638.52 673.79 637.00 678.00 Z"/>
</g>
<g fill="#898989" fill-opacity="1.00" stroke="None">
<path d="
M 217.00 678.00 
C 216.06 676.29 214.89 674.53 214.00 673.00
C 214.98 675.07 215.77 676.21 217.00 678.00 Z"/>
</g>
<g fill="#757575" fill-opacity="1.00" stroke="None">
<path d="
M 231.00 702.00 
C 230.11 700.53 228.82 699.29 228.00 698.00
C 228.89 699.74 229.94 700.59 231.00 702.00 Z"/>
</g>
<g fill="#6B6B6B" fill-opacity="1.00" stroke="None">
<path d="
M 243.00 720.00 
C 239.79 715.32 236.01 710.58 233.00 706.00
C 235.73 711.23 239.22 715.62 243.00 720.00 Z"/>
</g>
<g fill="#838383" fill-opacity="1.00" stroke="None">
<path d="
M 884.00 760.00 
C 884.83 759.24 886.22 758.72 887.00 758.00
C 891.75 752.44 897.16 747.20 901.00 741.00
C 895.66 747.37 889.57 753.48 884.00 760.00 Z"/>
</g>
<g fill="#6A6A6A" fill-opacity="1.00" stroke="None">
<path d="
M 299.00 784.00 
C 285.93 773.05 272.90 759.01 262.00 746.00
C 270.94 759.57 285.64 774.46 299.00 784.00 Z"/>
</g>
<g fill="#5C5C5C" fill-opacity="1.00" stroke="None">
<path d="
M 884.00 760.00 
C 876.87 768.35 868.31 777.04 860.00 784.00
C 869.73 777.05 879.10 767.24 887.00 758.00
C 886.22 758.72 884.83 759.24 884.00 760.00 Z"/>
</g>
<g fill="#828282" fill-opacity="1.00" stroke="None">
<path d="
M 830.00 806.00 
C 831.70 805.08 832.59 804.07 834.00 803.00
C 832.52 803.92 831.30 805.13 830.00 806.00 Z"/>
</g>
<g fill="#686868" fill-opacity="1.00" stroke="None">
<path d="
M 631.00 824.00 
C 627.62 821.59 623.48 817.34 621.00 814.00
C 623.42 818.15 626.57 821.51 631.00 824.00 Z"/>
</g>
<g fill="#797979" fill-opacity="1.00" stroke="None">
<path d="
M 520.00 829.00 
C 521.86 828.21 522.57 827.09 524.00 826.00
C 522.70 826.81 521.13 828.39 520.00 829.00 Z"/>
</g>
<g fill="#808080" fill-opacity="1.00" stroke="None">
<path d="
M 508.00 834.00 
C 509.77 833.48 510.58 832.82 512.00 832.00
C 510.72 832.54 509.10 833.54 508.00 834.00 Z"/>
</g>
</svg>