<svg xmlns="http://www.w3.org/2000/svg" xmlns:v="https://svgstorm.com"
viewBox = "0 0 999 814"
width="999"
height="814">
<g fill="None" fill-opacity="0.0" stroke="#000000" stroke-opacity="0.00" stroke-width="0.3"><path d="
M 0.00 814.00 
L 357.00 814.00
C 357.00 813.50 357.00 813.00 357.00 813.00
C 304.60 813.00 253.27 788.55 214.00 755.00
C 210.63 752.12 207.32 748.84 204.00 746.00
C 200.06 742.63 196.33 738.89 193.00 735.00
C 189.82 731.27 186.14 727.68 183.00 724.00
C 181.03 721.70 179.48 719.29 178.00 717.00
C 174.42 712.64 170.47 708.53 167.00 704.00
C 166.76 703.68 167.00 703.00 167.00 703.00
C 163.58 700.77 161.17 696.36 159.00 693.00
C 148.03 675.99 135.99 659.52 128.00 641.00
C 122.54 631.00 116.62 620.70 112.00 610.00
C 100.66 583.74 88.02 559.01 79.22 531.78 C 70.42 504.54 57.42 477.05 51.00 449.00
C 49.79 445.28 48.21 441.03 47.00 437.00
C 44.48 428.57 40.97 420.61 39.00 412.00
C 38.12 409.28 36.90 406.02 36.00 403.00
C 33.94 396.10 31.10 388.81 29.02 381.98 C 26.95 375.14 23.89 367.66 22.02 360.98 C 20.16 354.29 16.38 346.30 15.02 339.98 C 13.67 333.65 7.91 325.13 7.23 319.77 C 6.55 314.41 -2.52 302.33 3.23 300.23 C 8.99 298.13 21.26 302.72 28.01 302.99 C 34.75 303.26 43.73 306.89 50.68 308.32 C 57.63 309.76 65.23 312.64 72.07 314.93 C 78.92 317.21 86.27 319.50 93.02 321.98 C 99.78 324.45 105.98 327.86 112.69 330.31 C 119.41 332.75 125.41 336.15 132.00 339.00
C 135.39 340.46 138.86 342.45 142.00 344.00
C 167.63 353.23 191.92 369.71 215.00 384.00
C 218.51 386.17 221.78 388.81 225.00 391.00
C 227.29 392.24 229.68 393.50 232.00 395.00
C 244.30 402.93 255.78 411.79 267.00 421.00
C 272.57 424.37 277.86 428.61 283.00 433.00
C 292.37 441.01 301.06 449.40 310.00 458.00
C 311.26 459.03 312.79 460.01 314.00 461.00
C 320.43 466.28 326.65 472.74 332.00 479.00
C 333.35 480.58 334.69 482.47 336.00 484.00
C 338.99 486.99 342.27 489.81 345.00 493.00
C 348.14 496.68 351.29 500.20 354.00 504.00
C 359.08 510.07 364.82 515.94 370.00 522.00
C 373.02 525.54 375.73 529.26 378.00 533.00
C 386.79 543.70 395.15 554.55 403.00 566.00
C 414.59 582.90 426.92 600.28 435.00 619.00
C 439.40 627.07 444.25 635.32 448.00 644.00
C 460.86 673.80 474.00 704.43 474.00 738.00
C 474.33 741.46 474.33 745.61 474.00 749.00
C 474.00 758.17 472.23 765.77 469.00 774.00
C 465.64 782.56 460.47 789.45 453.00 795.00
C 436.41 807.34 412.67 813.00 392.00 813.00
C 392.04 813.00 392.00 814.00 392.00 814.00
L 607.00 814.00
C 607.00 813.50 607.00 813.00 607.00 813.00
C 589.69 813.00 571.16 808.75 556.00 801.00
C 541.94 793.81 532.16 783.11 528.00 768.00
C 526.14 761.24 525.00 755.36 525.00 748.00
C 524.67 744.54 524.67 740.39 525.00 737.00
C 525.00 703.94 538.32 673.39 551.00 644.00
C 554.73 635.35 559.62 627.04 564.00 619.00
C 568.07 609.57 573.55 600.80 579.00 592.00
C 581.17 588.49 583.81 585.22 586.00 582.00
C 587.23 579.71 588.56 577.33 590.00 575.00
C 593.31 569.66 597.55 564.97 601.00 560.00
C 601.67 558.79 602.18 557.29 603.00 556.00
C 607.12 549.51 612.46 543.93 617.00 538.00
C 619.26 534.27 622.02 530.48 625.00 527.00
C 631.63 519.24 638.09 511.41 645.00 504.00
C 645.39 503.36 645.63 502.61 646.00 502.00
C 650.93 493.91 659.64 487.82 666.00 481.00
C 666.39 480.36 666.63 479.61 667.00 479.00
C 671.94 470.89 681.23 464.74 687.75 457.75 C 694.27 450.77 702.72 444.22 710.00 438.00
C 715.88 432.98 721.66 427.84 728.00 424.00
C 731.85 421.05 735.48 416.21 740.00 414.00
C 740.40 413.80 741.00 414.00 741.00 414.00
C 745.42 407.21 757.22 401.38 764.00 397.00
C 784.14 384.01 804.06 369.47 826.00 360.00
C 829.17 358.27 832.51 355.78 836.00 354.00
C 886.72 328.08 940.56 303.37 998.00 301.00
C 981.32 346.87 966.58 393.67 951.00 440.00
C 949.75 443.91 948.18 448.37 947.00 452.00
C 940.69 479.56 927.79 506.33 919.08 533.08 C 910.36 559.82 898.14 584.18 887.00 610.00
C 882.39 620.68 876.44 631.02 871.00 641.00
C 863.01 659.51 850.96 676.02 840.00 693.00
C 835.00 700.74 828.63 711.65 821.00 717.00
C 820.80 717.40 821.00 718.00 821.00 718.00
C 815.36 729.54 802.34 737.45 793.75 746.75 C 785.17 756.05 773.47 765.24 763.00 772.00
C 727.53 794.88 686.30 813.00 643.00 813.00
C 643.04 813.00 643.00 814.00 643.00 814.00
L 999.00 814.00
L 999.00 0.00
L 500.00 0.00
C 500.17 0.34 500.67 0.83 501.00 1.00
C 504.63 2.81 506.98 5.69 510.00 8.00
C 514.50 10.73 518.83 14.44 523.00 18.00
C 527.92 22.20 532.38 26.69 537.00 31.00
C 537.64 31.39 538.39 31.63 539.00 32.00
C 544.50 35.35 551.33 41.75 555.00 47.00
C 555.40 47.20 556.00 47.00 556.00 47.00
C 561.22 49.56 568.72 57.32 572.00 62.00
C 572.40 62.20 573.00 62.00 573.00 62.00
C 578.49 64.69 582.47 71.28 587.00 75.00
C 604.10 86.97 619.92 102.26 636.00 116.00
C 640.44 119.79 644.61 124.25 649.00 128.00
C 655.36 133.43 661.61 139.70 667.00 146.00
C 670.49 150.08 674.55 153.97 678.00 158.00
C 681.67 162.30 685.11 166.53 688.00 171.00
C 691.05 174.71 694.24 177.98 697.00 182.00
C 701.79 188.99 706.44 195.48 710.00 203.00
C 713.24 208.45 716.40 213.97 719.00 220.00
C 734.28 255.41 734.30 292.56 719.00 328.00
C 716.41 334.00 713.22 339.58 710.00 345.00
C 703.51 358.73 694.05 372.25 684.00 384.00
C 679.52 389.25 675.68 396.03 670.00 400.00
C 669.80 400.40 670.00 401.00 670.00 401.00
C 664.80 411.64 652.47 418.85 644.25 427.25 C 636.03 435.65 627.93 447.04 618.00 454.00
C 617.80 454.40 618.00 455.00 618.00 455.00
C 615.22 460.68 608.63 463.87 605.25 469.25 C 601.87 474.63 595.96 479.18 592.00 484.00
C 581.71 498.70 569.26 512.74 558.00 527.00
C 550.50 536.50 542.74 546.29 536.00 556.00
C 535.34 557.20 534.78 558.71 534.00 560.00
C 531.88 563.52 529.08 566.77 527.00 570.00
C 524.80 574.31 522.40 578.65 520.00 583.00
C 518.14 586.37 515.68 589.91 514.00 593.00
C 510.66 600.73 506.37 608.20 503.00 616.00
C 502.03 618.26 501.46 620.86 500.00 623.00
C 497.61 621.60 496.60 618.56 496.00 616.00
C 488.64 598.96 478.34 583.31 470.00 567.00
C 467.89 563.73 464.43 560.95 463.00 557.00
C 462.84 556.56 463.00 556.00 463.00 556.00
C 457.89 552.67 453.49 544.08 450.00 539.00
C 446.09 533.31 441.82 527.45 438.00 522.00
C 435.24 518.64 430.97 516.04 429.00 512.00
C 428.80 511.60 429.00 511.00 429.00 511.00
C 423.59 507.22 420.20 500.92 416.00 496.00
C 414.36 494.08 413.27 491.81 412.00 490.00
C 409.02 486.37 404.12 483.35 402.00 479.00
C 401.80 478.60 402.00 478.00 402.00 478.00
C 386.78 467.36 377.97 448.58 363.70 436.30 C 349.43 424.03 336.05 409.10 324.00 395.00
C 302.84 370.24 290.38 351.13 277.03 320.98 C 263.67 290.82 266.87 250.43 280.00 220.00
C 282.59 214.00 285.78 208.42 289.00 203.00
C 291.30 198.13 294.01 193.64 297.00 189.00
C 300.04 184.29 303.72 180.28 307.00 176.00
C 313.61 165.10 323.51 155.94 332.00 146.00
C 337.31 139.78 343.51 132.91 350.00 128.00
C 350.94 127.29 352.10 126.68 353.00 126.00
C 355.95 123.29 358.29 118.81 362.00 117.00
C 362.40 116.80 363.00 117.00 363.00 117.00
C 367.39 110.71 377.20 101.32 384.00 98.00
C 384.40 97.80 385.00 98.00 385.00 98.00
C 388.88 92.46 395.93 87.42 401.25 83.25 C 406.57 79.07 411.95 71.96 418.00 69.00
C 418.40 68.80 419.00 69.00 419.00 69.00
C 428.79 54.99 447.03 43.08 460.00 32.00
C 472.88 21.00 485.36 9.27 499.00 0.00
L 0.00 0.00
L 0.00 814.00 Z"/>
</g>
<g fill="None" fill-opacity="0.0" stroke="#E68968" stroke-opacity="1.00" stroke-width="0.3"><path d="
M 460.00 32.00 
C 453.57 38.43 447.20 45.68 439.75 50.75 C 432.31 55.82 427.05 65.06 419.00 69.00
C 419.00 69.00 418.40 68.80 418.00 69.00
C 413.87 74.91 407.35 79.55 401.77 83.77 C 396.19 87.99 391.27 94.93 385.00 98.00
C 385.00 98.00 384.40 97.80 384.00 98.00
C 379.81 103.99 369.55 113.79 363.00 117.00
C 363.00 117.00 362.40 116.80 362.00 117.00
C 359.64 120.38 356.22 123.56 353.00 126.00
C 352.10 126.68 350.94 127.29 350.00 128.00
C 343.93 133.57 337.80 140.20 332.00 146.00
C 323.51 155.94 313.61 165.10 307.00 176.00
C 304.11 180.77 300.39 184.84 297.00 189.00
C 294.01 193.64 291.30 198.13 289.00 203.00
C 286.25 208.82 283.11 214.66 280.00 220.00
C 266.87 250.43 263.67 290.82 277.03 320.98 C 290.38 351.13 302.84 370.24 324.00 395.00
C 332.82 403.82 341.03 413.29 350.25 421.75 C 359.47 430.21 369.10 439.66 376.75 449.25 C 384.41 458.84 396.65 467.08 402.00 478.00
C 402.00 478.00 401.80 478.60 402.00 479.00
C 406.04 481.82 409.25 486.07 412.00 490.00
C 413.27 491.81 414.36 494.08 416.00 496.00
C 420.33 500.33 426.27 505.44 429.00 511.00
C 429.00 511.00 428.80 511.60 429.00 512.00
C 432.64 514.55 435.51 518.44 438.00 522.00
C 441.82 527.45 446.09 533.31 450.00 539.00
C 454.79 544.49 459.13 549.77 463.00 556.00
C 463.00 556.00 462.84 556.56 463.00 557.00
C 465.88 559.76 468.15 563.37 470.00 567.00
C 478.34 583.31 488.64 598.96 496.00 616.00
C 497.02 617.75 499.08 619.58 499.00 622.00
C 501.02 620.66 500.95 617.28 503.00 616.00
C 506.37 608.20 510.66 600.73 514.00 593.00
C 515.62 589.24 517.85 586.14 520.00 583.00
C 522.40 578.65 524.80 574.31 527.00 570.00
C 528.93 566.22 531.60 563.20 534.00 560.00
C 534.78 558.71 535.34 557.20 536.00 556.00
C 541.76 545.52 549.95 535.71 558.00 527.00
C 569.26 512.74 581.71 498.70 592.00 484.00
C 598.78 474.31 608.16 461.87 618.00 455.00
C 618.00 455.00 617.80 454.40 618.00 454.00
C 622.86 444.06 635.23 435.24 643.25 427.25 C 651.26 419.26 660.79 407.44 670.00 401.00
C 670.00 401.00 669.80 400.40 670.00 400.00
C 672.90 394.07 679.45 388.55 684.00 384.00
C 694.05 372.25 703.51 358.73 710.00 345.00
C 712.75 339.18 715.89 333.34 719.00 328.00
C 734.30 292.56 734.28 255.41 719.00 220.00
C 715.87 214.61 712.75 208.81 710.00 203.00
C 706.44 195.48 701.79 188.99 697.00 182.00
C 693.94 178.45 690.61 175.04 688.00 171.00
C 685.11 166.53 681.67 162.30 678.00 158.00
C 664.08 144.08 649.87 129.87 636.00 116.00
C 619.92 102.26 604.10 86.97 587.00 75.00
C 582.01 71.51 576.54 67.07 573.00 62.00
C 573.00 62.00 572.40 62.20 572.00 62.00
C 566.57 59.34 559.45 51.94 556.00 47.00
C 556.00 47.00 555.40 47.20 555.00 47.00
C 548.82 43.98 543.89 36.56 539.00 32.00
C 538.39 31.63 537.64 31.39 537.00 31.00
C 531.52 27.66 527.47 22.47 523.00 18.00
C 518.83 14.44 514.50 10.73 510.00 8.00
C 506.72 6.01 503.56 3.62 501.00 1.00
C 500.67 0.83 500.17 0.34 500.00 0.00
L 499.00 0.00
C 485.36 9.27 472.88 21.00 460.00 32.00
M 500.00 53.00 
C 514.71 67.63 530.80 80.87 546.25 94.75 C 561.70 108.64 578.15 121.61 593.75 135.25 C 609.35 148.89 624.98 162.02 639.25 177.75 C 653.52 193.48 666.67 209.23 677.75 227.25 C 688.84 245.26 701.76 269.63 692.69 289.69 C 683.63 309.76 674.12 328.78 660.75 345.75 C 647.37 362.71 635.20 377.68 619.75 392.75 C 604.30 407.83 590.46 421.76 576.75 437.75 C 563.05 453.74 550.09 469.41 536.75 485.75 C 523.42 502.10 510.25 519.86 500.00 538.00
C 488.06 518.37 472.78 499.93 458.25 481.75 C 443.71 463.57 429.39 445.72 413.75 428.25 C 398.11 410.78 381.57 396.01 365.25 378.75 C 348.92 361.49 336.29 342.59 323.08 322.92 C 309.86 303.25 296.35 275.99 307.92 253.92 C 319.50 231.86 329.41 211.73 345.77 193.77 C 362.13 175.81 376.21 159.77 394.25 144.25 C 412.28 128.73 429.59 114.93 447.25 99.25 C 464.91 83.56 482.42 68.72 500.00 53.00 Z"/>
</g>
<g fill="None" fill-opacity="0.0" stroke="#EDCEBB" stroke-opacity="1.00" stroke-width="0.3"><path d="
M 510.00 8.00 
C 506.98 5.69 504.63 2.81 501.00 1.00
C 503.56 3.62 506.72 6.01 510.00 8.00 Z"/>
</g>
<g fill="None" fill-opacity="0.0" stroke="#EDCDBA" stroke-opacity="1.00" stroke-width="0.3"><path d="
M 537.00 31.00 
C 532.38 26.69 527.92 22.20 523.00 18.00
C 527.47 22.47 531.52 27.66 537.00 31.00 Z"/>
</g>
<g fill="None" fill-opacity="0.0" stroke="#EDCDBA" stroke-opacity="1.00" stroke-width="0.3"><path d="
M 419.00 69.00 
C 427.05 65.06 432.31 55.82 439.75 50.75 C 447.20 45.68 453.57 38.43 460.00 32.00
C 447.03 43.08 428.79 54.99 419.00 69.00 Z"/>
</g>
<g fill="None" fill-opacity="0.0" stroke="#EDD2C0" stroke-opacity="1.00" stroke-width="0.3"><path d="
M 555.00 47.00 
C 551.33 41.75 544.50 35.35 539.00 32.00
C 543.89 36.56 548.82 43.98 555.00 47.00 Z"/>
</g>
<g fill="None" fill-opacity="0.0" stroke="#EDCFBC" stroke-opacity="1.00" stroke-width="0.3"><path d="
M 572.00 62.00 
C 568.72 57.32 561.22 49.56 556.00 47.00
C 559.45 51.94 566.57 59.34 572.00 62.00 Z"/>
</g>
<g fill="None" fill-opacity="0.0" stroke="#FFFF00" stroke-opacity="0.00" stroke-width="0.3"><path d="
M 500.00 53.00 
C 482.42 68.72 464.91 83.56 447.25 99.25 C 429.59 114.93 412.28 128.73 394.25 144.25 C 376.21 159.77 362.13 175.81 345.77 193.77 C 329.41 211.73 319.50 231.86 307.92 253.92 C 296.35 275.99 309.86 303.25 323.08 322.92 C 336.29 342.59 348.92 361.49 365.25 378.75 C 381.57 396.01 398.11 410.78 413.75 428.25 C 429.39 445.72 443.71 463.57 458.25 481.75 C 472.78 499.93 488.06 518.37 500.00 538.00
C 510.25 519.86 523.42 502.10 536.75 485.75 C 550.09 469.41 563.05 453.74 576.75 437.75 C 590.46 421.76 604.30 407.83 619.75 392.75 C 635.20 377.68 647.37 362.71 660.75 345.75 C 674.12 328.78 683.63 309.76 692.69 289.69 C 701.76 269.63 688.84 245.26 677.75 227.25 C 666.67 209.23 653.52 193.48 639.25 177.75 C 624.98 162.02 609.35 148.89 593.75 135.25 C 578.15 121.61 561.70 108.64 546.25 94.75 C 530.80 80.87 514.71 67.63 500.00 53.00 Z"/>
</g>
<g fill="None" fill-opacity="0.0" stroke="#EDCCB9" stroke-opacity="1.00" stroke-width="0.3"><path d="
M 587.00 75.00 
C 582.47 71.28 578.49 64.69 573.00 62.00
C 576.54 67.07 582.01 71.51 587.00 75.00 Z"/>
</g>
<g fill="None" fill-opacity="0.0" stroke="#EDCCB9" stroke-opacity="1.00" stroke-width="0.3"><path d="
M 385.00 98.00 
C 391.27 94.93 396.19 87.99 401.77 83.77 C 407.35 79.55 413.87 74.91 418.00 69.00
C 411.95 71.96 406.57 79.07 401.25 83.25 C 395.93 87.42 388.88 92.46 385.00 98.00 Z"/>
</g>
<g fill="None" fill-opacity="0.0" stroke="#EDCCB8" stroke-opacity="1.00" stroke-width="0.3"><path d="
M 363.00 117.00 
C 369.55 113.79 379.81 103.99 384.00 98.00
C 377.20 101.32 367.39 110.71 363.00 117.00 Z"/>
</g>
<g fill="None" fill-opacity="0.0" stroke="#EBBCA5" stroke-opacity="1.00" stroke-width="0.3"><path d="
M 678.00 158.00 
C 674.55 153.97 670.49 150.08 667.00 146.00
C 661.08 140.08 654.87 133.87 649.00 128.00
C 644.61 124.25 640.44 119.79 636.00 116.00
C 649.87 129.87 664.08 144.08 678.00 158.00 Z"/>
</g>
<g fill="None" fill-opacity="0.0" stroke="#EED5C4" stroke-opacity="1.00" stroke-width="0.3"><path d="
M 353.00 126.00 
C 356.22 123.56 359.64 120.38 362.00 117.00
C 358.29 118.81 355.95 123.29 353.00 126.00 Z"/>
</g>
<g fill="None" fill-opacity="0.0" stroke="#EFE1D2" stroke-opacity="1.00" stroke-width="0.3"><path d="
M 332.00 146.00 
C 337.80 140.20 343.93 133.57 350.00 128.00
C 343.51 132.91 337.31 139.78 332.00 146.00 Z"/>
</g>
<g fill="None" fill-opacity="0.0" stroke="#EFE2D3" stroke-opacity="1.00" stroke-width="0.3"><path d="
M 667.00 146.00 
C 661.61 139.70 655.36 133.43 649.00 128.00
C 654.87 133.87 661.08 140.08 667.00 146.00 Z"/>
</g>
<g fill="None" fill-opacity="0.0" stroke="#EDCEBA" stroke-opacity="1.00" stroke-width="0.3"><path d="
M 697.00 182.00 
C 694.24 177.98 691.05 174.71 688.00 171.00
C 690.61 175.04 693.94 178.45 697.00 182.00 Z"/>
</g>
<g fill="None" fill-opacity="0.0" stroke="#EDD1BE" stroke-opacity="1.00" stroke-width="0.3"><path d="
M 297.00 189.00 
C 300.39 184.84 304.11 180.77 307.00 176.00
C 303.72 180.28 300.04 184.29 297.00 189.00 Z"/>
</g>
<g fill="None" fill-opacity="0.0" stroke="#EDCCB8" stroke-opacity="1.00" stroke-width="0.3"><path d="
M 280.00 220.00 
C 283.11 214.66 286.25 208.82 289.00 203.00
C 285.78 208.42 282.59 214.00 280.00 220.00 Z"/>
</g>
<g fill="None" fill-opacity="0.0" stroke="#EDCEBB" stroke-opacity="1.00" stroke-width="0.3"><path d="
M 719.00 220.00 
C 716.40 213.97 713.24 208.45 710.00 203.00
C 712.75 208.81 715.87 214.61 719.00 220.00 Z"/>
</g>
<g fill="None" fill-opacity="0.0" stroke="#E68A68" stroke-opacity="1.00" stroke-width="0.3"><path d="
M 36.00 403.00 
C 37.17 405.87 38.24 408.69 39.00 412.00
C 40.97 420.61 44.48 428.57 47.00 437.00
C 48.55 440.81 50.02 444.71 51.00 449.00
C 57.42 477.05 70.42 504.54 79.22 531.78 C 88.02 559.01 100.66 583.74 112.00 610.00
C 117.67 619.76 123.44 630.44 128.00 641.00
C 135.99 659.52 148.03 675.99 159.00 693.00
C 161.70 696.32 164.68 699.26 167.00 703.00
C 167.00 703.00 166.76 703.68 167.00 704.00
C 171.52 707.16 175.09 712.48 178.00 717.00
C 179.48 719.29 181.03 721.70 183.00 724.00
C 193.25 734.25 203.80 744.80 214.00 755.00
C 253.27 788.55 304.60 813.00 357.00 813.00
C 368.67 813.00 380.33 813.00 392.00 813.00
C 412.67 813.00 436.41 807.34 453.00 795.00
C 459.72 789.14 465.08 781.33 469.00 774.00
C 472.23 765.77 474.00 758.17 474.00 749.00
C 474.00 745.33 474.00 741.67 474.00 738.00
C 474.00 704.43 460.86 673.80 448.00 644.00
C 443.42 636.13 438.69 627.55 435.00 619.00
C 426.92 600.28 414.59 582.90 403.00 566.00
C 394.39 556.02 384.92 544.41 378.00 533.00
C 375.73 529.26 373.02 525.54 370.00 522.00
C 364.32 516.32 358.66 510.53 354.00 504.00
C 351.29 500.20 348.14 496.68 345.00 493.00
C 342.01 490.01 338.73 487.19 336.00 484.00
C 334.69 482.47 333.35 480.58 332.00 479.00
C 326.11 473.11 319.95 466.72 314.00 461.00
C 312.79 460.01 311.26 459.03 310.00 458.00
C 300.53 450.23 291.50 441.50 283.00 433.00
C 277.86 428.61 272.57 424.37 267.00 421.00
C 254.82 413.62 242.86 403.83 232.00 395.00
C 229.68 393.50 227.29 392.24 225.00 391.00
C 221.27 388.98 218.18 386.46 215.00 384.00
C 191.92 369.71 167.63 353.23 142.00 344.00
C 138.39 342.70 135.16 340.84 132.00 339.00
C 125.41 336.15 119.41 332.75 112.69 330.31 C 105.98 327.86 99.78 324.45 93.02 321.98 C 86.27 319.50 78.92 317.21 72.07 314.93 C 65.23 312.64 57.63 309.76 50.68 308.32 C 43.73 306.89 34.75 303.26 28.01 302.99 C 21.26 302.72 8.99 298.13 3.23 300.23 C -2.52 302.33 6.55 314.41 7.23 319.77 C 7.91 325.13 13.67 333.65 15.02 339.98 C 16.38 346.30 20.16 354.29 22.02 360.98 C 23.89 367.66 26.95 375.14 29.02 381.98 C 31.10 388.81 33.94 396.10 36.00 403.00
M 59.00 351.00 
C 84.21 359.37 110.03 372.24 133.69 384.31 C 157.36 396.37 179.80 409.91 201.70 424.30 C 223.59 438.70 243.37 454.63 263.25 471.75 C 283.13 488.87 300.04 505.84 317.30 525.70 C 334.56 545.55 351.41 563.78 366.25 585.75 C 381.09 607.73 395.60 627.55 407.77 652.23 C 419.94 676.91 432.29 701.02 438.78 729.22 C 445.27 757.43 411.29 777.06 385.00 780.00 C 358.70 782.93 323.40 773.60 299.32 761.68 C 275.24 749.76 254.52 735.70 234.75 717.25 C 214.99 698.80 200.68 680.08 185.70 658.30 C 170.71 636.53 157.92 614.21 146.23 589.77 C 134.54 565.33 123.04 539.61 113.23 513.77 C 103.41 487.93 94.34 460.40 85.22 433.78 C 76.11 407.16 67.06 378.13 59.00 351.00 Z"/>
</g>
<g fill="None" fill-opacity="0.0" stroke="#E68A68" stroke-opacity="1.00" stroke-width="0.3"><path d="
M 836.00 354.00 
C 832.80 356.05 829.76 358.38 826.00 360.00
C 804.06 369.47 784.14 384.01 764.00 397.00
C 756.69 402.94 749.10 408.94 741.00 414.00
C 741.00 414.00 740.40 413.80 740.00 414.00
C 737.02 418.26 732.30 421.39 728.00 424.00
C 721.66 427.84 715.88 432.98 710.00 438.00
C 696.15 451.85 680.52 464.52 667.00 479.00
C 666.63 479.61 666.39 480.36 666.00 481.00
C 661.12 489.02 652.28 495.26 646.00 502.00
C 645.63 502.61 645.39 503.36 645.00 504.00
C 639.91 512.37 631.83 520.17 625.00 527.00
C 622.02 530.48 619.26 534.27 617.00 538.00
C 613.02 544.56 607.64 550.17 603.00 556.00
C 602.18 557.29 601.67 558.79 601.00 560.00
C 598.01 565.43 593.64 570.29 590.00 575.00
C 588.56 577.33 587.23 579.71 586.00 582.00
C 583.98 585.73 581.46 588.82 579.00 592.00
C 573.55 600.80 568.07 609.57 564.00 619.00
C 560.31 627.55 555.55 636.17 551.00 644.00
C 538.32 673.39 525.00 703.94 525.00 737.00
C 525.00 740.67 525.00 744.33 525.00 748.00
C 525.00 755.36 526.14 761.24 528.00 768.00
C 533.49 782.52 542.94 792.66 556.00 801.00
C 571.16 808.75 589.69 813.00 607.00 813.00
C 619.00 813.00 631.00 813.00 643.00 813.00
C 686.30 813.00 727.53 794.88 763.00 772.00
C 773.04 763.84 783.20 754.90 793.25 746.25 C 803.30 737.59 810.43 725.37 821.00 718.00
C 821.00 718.00 820.80 717.40 821.00 717.00
C 825.22 708.38 834.09 700.26 840.00 693.00
C 850.96 676.02 863.01 659.51 871.00 641.00
C 875.56 630.44 881.35 619.72 887.00 610.00
C 898.14 584.18 910.36 559.82 919.08 533.08 C 927.79 506.33 940.69 479.56 947.00 452.00
C 947.97 447.74 949.38 443.75 951.00 440.00
C 966.58 393.67 981.32 346.87 998.00 301.00
C 940.56 303.37 886.72 328.08 836.00 354.00
M 940.00 351.00 
C 934.74 370.55 927.85 390.42 921.68 409.68 C 915.51 428.94 908.65 448.22 902.22 467.22 C 895.80 486.23 888.48 505.85 881.22 524.22 C 873.97 542.60 866.59 560.72 858.22 578.22 C 849.86 595.73 841.17 613.24 831.69 629.70 C 822.22 646.15 812.05 660.76 800.75 675.75 C 789.45 690.74 778.14 703.96 764.25 717.25 C 750.35 730.54 736.32 739.81 720.30 750.30 C 704.28 760.79 685.06 767.46 666.93 773.93 C 648.79 780.39 619.22 784.19 601.93 777.07 C 584.63 769.96 562.33 762.92 559.08 742.92 C 555.82 722.93 570.22 702.17 575.98 683.98 C 581.73 665.78 593.37 649.54 601.92 632.92 C 610.48 616.31 622.65 601.23 632.77 585.77 C 642.89 570.31 655.12 557.06 666.75 542.75 C 678.39 528.44 690.25 515.72 703.25 502.25 C 716.25 488.78 729.53 476.56 743.75 464.75 C 757.97 452.93 771.96 441.91 787.25 431.25 C 802.53 420.58 818.76 410.56 835.08 401.08 C 851.39 391.59 867.67 382.20 885.08 374.08 C 902.48 365.95 921.60 356.80 940.00 351.00 Z"/>
</g>
<g fill="None" fill-opacity="0.0" stroke="#EDCCB8" stroke-opacity="1.00" stroke-width="0.3"><path d="
M 710.00 345.00 
C 713.22 339.58 716.41 334.00 719.00 328.00
C 715.89 333.34 712.75 339.18 710.00 345.00 Z"/>
</g>
<g fill="None" fill-opacity="0.0" stroke="#EDCCB8" stroke-opacity="1.00" stroke-width="0.3"><path d="
M 142.00 344.00 
C 138.86 342.45 135.39 340.46 132.00 339.00
C 135.16 340.84 138.39 342.70 142.00 344.00 Z"/>
</g>
<g fill="None" fill-opacity="0.0" stroke="#FFFF02" stroke-opacity="0.00" stroke-width="0.3"><path d="
M 59.00 351.00 
C 67.06 378.13 76.11 407.16 85.22 433.78 C 94.34 460.40 103.41 487.93 113.23 513.77 C 123.04 539.61 134.54 565.33 146.23 589.77 C 157.92 614.21 170.71 636.53 185.70 658.30 C 200.68 680.08 214.99 698.80 234.75 717.25 C 254.52 735.70 275.24 749.76 299.32 761.68 C 323.40 773.60 358.70 782.93 385.00 780.00 C 411.29 777.06 445.27 757.43 438.78 729.22 C 432.29 701.02 419.94 676.91 407.77 652.23 C 395.60 627.55 381.09 607.73 366.25 585.75 C 351.41 563.78 334.56 545.55 317.30 525.70 C 300.04 505.84 283.13 488.87 263.25 471.75 C 243.37 454.63 223.59 438.70 201.70 424.30 C 179.80 409.91 157.36 396.37 133.69 384.31 C 110.03 372.24 84.21 359.37 59.00 351.00 Z"/>
</g>
<g fill="None" fill-opacity="0.0" stroke="#FFFF02" stroke-opacity="0.00" stroke-width="0.3"><path d="
M 940.00 351.00 
C 921.60 356.80 902.48 365.95 885.08 374.08 C 867.67 382.20 851.39 391.59 835.08 401.08 C 818.76 410.56 802.53 420.58 787.25 431.25 C 771.96 441.91 757.97 452.93 743.75 464.75 C 729.53 476.56 716.25 488.78 703.25 502.25 C 690.25 515.72 678.39 528.44 666.75 542.75 C 655.12 557.06 642.89 570.31 632.77 585.77 C 622.65 601.23 610.48 616.31 601.92 632.92 C 593.37 649.54 581.73 665.78 575.98 683.98 C 570.22 702.17 555.82 722.93 559.08 742.92 C 562.33 762.92 584.63 769.96 601.93 777.07 C 619.22 784.19 648.79 780.39 666.93 773.93 C 685.06 767.46 704.28 760.79 720.30 750.30 C 736.32 739.81 750.35 730.54 764.25 717.25 C 778.14 703.96 789.45 690.74 800.75 675.75 C 812.05 660.76 822.22 646.15 831.69 629.70 C 841.17 613.24 849.86 595.73 858.22 578.22 C 866.59 560.72 873.97 542.60 881.22 524.22 C 888.48 505.85 895.80 486.23 902.22 467.22 C 908.65 448.22 915.51 428.94 921.68 409.68 C 927.85 390.42 934.74 370.55 940.00 351.00 Z"/>
</g>
<g fill="None" fill-opacity="0.0" stroke="#EDCEBB" stroke-opacity="1.00" stroke-width="0.3"><path d="
M 826.00 360.00 
C 829.76 358.38 832.80 356.05 836.00 354.00
C 832.51 355.78 829.17 358.27 826.00 360.00 Z"/>
</g>
<g fill="None" fill-opacity="0.0" stroke="#EDCFBC" stroke-opacity="1.00" stroke-width="0.3"><path d="
M 225.00 391.00 
C 221.78 388.81 218.51 386.17 215.00 384.00
C 218.18 386.46 221.27 388.98 225.00 391.00 Z"/>
</g>
<g fill="None" fill-opacity="0.0" stroke="#EDCDBA" stroke-opacity="1.00" stroke-width="0.3"><path d="
M 670.00 400.00 
C 675.68 396.03 679.52 389.25 684.00 384.00
C 679.45 388.55 672.90 394.07 670.00 400.00 Z"/>
</g>
<g fill="None" fill-opacity="0.0" stroke="#EDCBB8" stroke-opacity="1.00" stroke-width="0.3"><path d="
M 267.00 421.00 
C 255.78 411.79 244.30 402.93 232.00 395.00
C 242.86 403.83 254.82 413.62 267.00 421.00 Z"/>
</g>
<g fill="None" fill-opacity="0.0" stroke="#EDCAB6" stroke-opacity="1.00" stroke-width="0.3"><path d="
M 402.00 478.00 
C 396.65 467.08 384.41 458.84 376.75 449.25 C 369.10 439.66 359.47 430.21 350.25 421.75 C 341.03 413.29 332.82 403.82 324.00 395.00
C 336.05 409.10 349.43 424.03 363.70 436.30 C 377.97 448.58 386.78 467.36 402.00 478.00 Z"/>
</g>
<g fill="None" fill-opacity="0.0" stroke="#EDCDBA" stroke-opacity="1.00" stroke-width="0.3"><path d="
M 741.00 414.00 
C 749.10 408.94 756.69 402.94 764.00 397.00
C 757.22 401.38 745.42 407.21 741.00 414.00 Z"/>
</g>
<g fill="None" fill-opacity="0.0" stroke="#EDC9B5" stroke-opacity="1.00" stroke-width="0.3"><path d="
M 618.00 454.00 
C 627.93 447.04 636.03 435.65 644.25 427.25 C 652.47 418.85 664.80 411.64 670.00 401.00
C 660.79 407.44 651.26 419.26 643.25 427.25 C 635.23 435.24 622.86 444.06 618.00 454.00 Z"/>
</g>
<g fill="None" fill-opacity="0.0" stroke="#EDCBB7" stroke-opacity="1.00" stroke-width="0.3"><path d="
M 39.00 412.00 
C 38.24 408.69 37.17 405.87 36.00 403.00
C 36.90 406.02 38.12 409.28 39.00 412.00 Z"/>
</g>
<g fill="None" fill-opacity="0.0" stroke="#EDCCB8" stroke-opacity="1.00" stroke-width="0.3"><path d="
M 728.00 424.00 
C 732.30 421.39 737.02 418.26 740.00 414.00
C 735.48 416.21 731.85 421.05 728.00 424.00 Z"/>
</g>
<g fill="None" fill-opacity="0.0" stroke="#EDCBB8" stroke-opacity="1.00" stroke-width="0.3"><path d="
M 310.00 458.00 
C 301.06 449.40 292.37 441.01 283.00 433.00
C 291.50 441.50 300.53 450.23 310.00 458.00 Z"/>
</g>
<g fill="None" fill-opacity="0.0" stroke="#EDCAB7" stroke-opacity="1.00" stroke-width="0.3"><path d="
M 51.00 449.00 
C 50.02 444.71 48.55 440.81 47.00 437.00
C 48.21 441.03 49.79 445.28 51.00 449.00 Z"/>
</g>
<g fill="None" fill-opacity="0.0" stroke="#EED7C6" stroke-opacity="1.00" stroke-width="0.3"><path d="
M 667.00 479.00 
C 680.52 464.52 696.15 451.85 710.00 438.00
C 702.72 444.22 694.27 450.77 687.75 457.75 C 681.23 464.74 671.94 470.89 667.00 479.00 Z"/>
</g>
<g fill="None" fill-opacity="0.0" stroke="#EDCAB6" stroke-opacity="1.00" stroke-width="0.3"><path d="
M 947.00 452.00 
C 948.18 448.37 949.75 443.91 951.00 440.00
C 949.38 443.75 947.97 447.74 947.00 452.00 Z"/>
</g>
<g fill="None" fill-opacity="0.0" stroke="#EDCFBD" stroke-opacity="1.00" stroke-width="0.3"><path d="
M 592.00 484.00 
C 595.96 479.18 601.87 474.63 605.25 469.25 C 608.63 463.87 615.22 460.68 618.00 455.00
C 608.16 461.87 598.78 474.31 592.00 484.00 Z"/>
</g>
<g fill="None" fill-opacity="0.0" stroke="#EFE1D2" stroke-opacity="1.00" stroke-width="0.3"><path d="
M 332.00 479.00 
C 326.65 472.74 320.43 466.28 314.00 461.00
C 319.95 466.72 326.11 473.11 332.00 479.00 Z"/>
</g>
<g fill="None" fill-opacity="0.0" stroke="#EDD3C1" stroke-opacity="1.00" stroke-width="0.3"><path d="
M 412.00 490.00 
C 409.25 486.07 406.04 481.82 402.00 479.00
C 404.12 483.35 409.02 486.37 412.00 490.00 Z"/>
</g>
<g fill="None" fill-opacity="0.0" stroke="#EDCFBC" stroke-opacity="1.00" stroke-width="0.3"><path d="
M 646.00 502.00 
C 652.28 495.26 661.12 489.02 666.00 481.00
C 659.64 487.82 650.93 493.91 646.00 502.00 Z"/>
</g>
<g fill="None" fill-opacity="0.0" stroke="#EED8C7" stroke-opacity="1.00" stroke-width="0.3"><path d="
M 345.00 493.00 
C 342.27 489.81 338.99 486.99 336.00 484.00
C 338.73 487.19 342.01 490.01 345.00 493.00 Z"/>
</g>
<g fill="None" fill-opacity="0.0" stroke="#EDCEBB" stroke-opacity="1.00" stroke-width="0.3"><path d="
M 429.00 511.00 
C 426.27 505.44 420.33 500.33 416.00 496.00
C 420.20 500.92 423.59 507.22 429.00 511.00 Z"/>
</g>
<g fill="None" fill-opacity="0.0" stroke="#EDCDBA" stroke-opacity="1.00" stroke-width="0.3"><path d="
M 370.00 522.00 
C 364.82 515.94 359.08 510.07 354.00 504.00
C 358.66 510.53 364.32 516.32 370.00 522.00 Z"/>
</g>
<g fill="None" fill-opacity="0.0" stroke="#EDCCB8" stroke-opacity="1.00" stroke-width="0.3"><path d="
M 625.00 527.00 
C 631.83 520.17 639.91 512.37 645.00 504.00
C 638.09 511.41 631.63 519.24 625.00 527.00 Z"/>
</g>
<g fill="None" fill-opacity="0.0" stroke="#EDD1BF" stroke-opacity="1.00" stroke-width="0.3"><path d="
M 438.00 522.00 
C 435.51 518.44 432.64 514.55 429.00 512.00
C 430.97 516.04 435.24 518.64 438.00 522.00 Z"/>
</g>
<g fill="None" fill-opacity="0.0" stroke="#EDCCB9" stroke-opacity="1.00" stroke-width="0.3"><path d="
M 536.00 556.00 
C 542.74 546.29 550.50 536.50 558.00 527.00
C 549.95 535.71 541.76 545.52 536.00 556.00 Z"/>
</g>
<g fill="None" fill-opacity="0.0" stroke="#EDCCB9" stroke-opacity="1.00" stroke-width="0.3"><path d="
M 403.00 566.00 
C 395.15 554.55 386.79 543.70 378.00 533.00
C 384.92 544.41 394.39 556.02 403.00 566.00 Z"/>
</g>
<g fill="None" fill-opacity="0.0" stroke="#EDD0BE" stroke-opacity="1.00" stroke-width="0.3"><path d="
M 603.00 556.00 
C 607.64 550.17 613.02 544.56 617.00 538.00
C 612.46 543.93 607.12 549.51 603.00 556.00 Z"/>
</g>
<g fill="None" fill-opacity="0.0" stroke="#EDCEBB" stroke-opacity="1.00" stroke-width="0.3"><path d="
M 463.00 556.00 
C 459.13 549.77 454.79 544.49 450.00 539.00
C 453.49 544.08 457.89 552.67 463.00 556.00 Z"/>
</g>
<g fill="None" fill-opacity="0.0" stroke="#EDD1BF" stroke-opacity="1.00" stroke-width="0.3"><path d="
M 470.00 567.00 
C 468.15 563.37 465.88 559.76 463.00 557.00
C 464.43 560.95 467.89 563.73 470.00 567.00 Z"/>
</g>
<g fill="None" fill-opacity="0.0" stroke="#EDCFBC" stroke-opacity="1.00" stroke-width="0.3"><path d="
M 527.00 570.00 
C 529.08 566.77 531.88 563.52 534.00 560.00
C 531.60 563.20 528.93 566.22 527.00 570.00 Z"/>
</g>
<g fill="None" fill-opacity="0.0" stroke="#EDCEBB" stroke-opacity="1.00" stroke-width="0.3"><path d="
M 590.00 575.00 
C 593.64 570.29 598.01 565.43 601.00 560.00
C 597.55 564.97 593.31 569.66 590.00 575.00 Z"/>
</g>
<g fill="None" fill-opacity="0.0" stroke="#EDCEBC" stroke-opacity="1.00" stroke-width="0.3"><path d="
M 579.00 592.00 
C 581.46 588.82 583.98 585.73 586.00 582.00
C 583.81 585.22 581.17 588.49 579.00 592.00 Z"/>
</g>
<g fill="None" fill-opacity="0.0" stroke="#EDD1BE" stroke-opacity="1.00" stroke-width="0.3"><path d="
M 514.00 593.00 
C 515.68 589.91 518.14 586.37 520.00 583.00
C 517.85 586.14 515.62 589.24 514.00 593.00 Z"/>
</g>
<g fill="None" fill-opacity="0.0" stroke="#EDD2C0" stroke-opacity="1.00" stroke-width="0.3"><path d="
M 128.00 641.00 
C 123.44 630.44 117.67 619.76 112.00 610.00
C 116.62 620.70 122.54 631.00 128.00 641.00 Z"/>
</g>
<g fill="None" fill-opacity="0.0" stroke="#EDCEBB" stroke-opacity="1.00" stroke-width="0.3"><path d="
M 871.00 641.00 
C 876.44 631.02 882.39 620.68 887.00 610.00
C 881.35 619.72 875.56 630.44 871.00 641.00 Z"/>
</g>
<g fill="None" fill-opacity="0.0" stroke="#EDCEBC" stroke-opacity="1.00" stroke-width="0.3"><path d="
M 503.00 616.00 
C 500.95 617.28 501.02 620.66 499.00 622.00
C 499.08 619.58 497.02 617.75 496.00 616.00
C 496.60 618.56 497.61 621.60 500.00 623.00
C 501.46 620.86 502.03 618.26 503.00 616.00 Z"/>
</g>
<g fill="None" fill-opacity="0.0" stroke="#EDCEBB" stroke-opacity="1.00" stroke-width="0.3"><path d="
M 448.00 644.00 
C 444.25 635.32 439.40 627.07 435.00 619.00
C 438.69 627.55 443.42 636.13 448.00 644.00 Z"/>
</g>
<g fill="None" fill-opacity="0.0" stroke="#EDD0BD" stroke-opacity="1.00" stroke-width="0.3"><path d="
M 551.00 644.00 
C 555.55 636.17 560.31 627.55 564.00 619.00
C 559.62 627.04 554.73 635.35 551.00 644.00 Z"/>
</g>
<g fill="None" fill-opacity="0.0" stroke="#EDCDBA" stroke-opacity="1.00" stroke-width="0.3"><path d="
M 167.00 703.00 
C 164.68 699.26 161.70 696.32 159.00 693.00
C 161.17 696.36 163.58 700.77 167.00 703.00 Z"/>
</g>
<g fill="None" fill-opacity="0.0" stroke="#EDCCB9" stroke-opacity="1.00" stroke-width="0.3"><path d="
M 821.00 717.00 
C 828.63 711.65 835.00 700.74 840.00 693.00
C 834.09 700.26 825.22 708.38 821.00 717.00 Z"/>
</g>
<g fill="None" fill-opacity="0.0" stroke="#EDCCB9" stroke-opacity="1.00" stroke-width="0.3"><path d="
M 178.00 717.00 
C 175.09 712.48 171.52 707.16 167.00 704.00
C 170.47 708.53 174.42 712.64 178.00 717.00 Z"/>
</g>
<g fill="None" fill-opacity="0.0" stroke="#EDC8B4" stroke-opacity="1.00" stroke-width="0.3"><path d="
M 763.00 772.00 
C 773.47 765.24 785.17 756.05 793.75 746.75 C 802.34 737.45 815.36 729.54 821.00 718.00
C 810.43 725.37 803.30 737.59 793.25 746.25 C 783.20 754.90 773.04 763.84 763.00 772.00 Z"/>
</g>
<g fill="None" fill-opacity="0.0" stroke="#ECBFAA" stroke-opacity="1.00" stroke-width="0.3"><path d="
M 193.00 735.00 
C 196.59 738.59 200.46 742.46 204.00 746.00
C 207.32 748.84 210.63 752.12 214.00 755.00
C 203.80 744.80 193.25 734.25 183.00 724.00
C 186.14 727.68 189.82 731.27 193.00 735.00 Z"/>
</g>
<g fill="None" fill-opacity="0.0" stroke="#EFE3D5" stroke-opacity="1.00" stroke-width="0.3"><path d="
M 204.00 746.00 
C 200.46 742.46 196.59 738.59 193.00 735.00
C 196.33 738.89 200.06 742.63 204.00 746.00 Z"/>
</g>
<g fill="None" fill-opacity="0.0" stroke="#EEDBCA" stroke-opacity="1.00" stroke-width="0.3"><path d="
M 525.00 748.00 
C 525.00 744.33 525.00 740.67 525.00 737.00
C 524.67 740.39 524.67 744.54 525.00 748.00 Z"/>
</g>
<g fill="None" fill-opacity="0.0" stroke="#EEDCCD" stroke-opacity="1.00" stroke-width="0.3"><path d="
M 474.00 749.00 
C 474.33 745.61 474.33 741.46 474.00 738.00
C 474.00 741.67 474.00 745.33 474.00 749.00 Z"/>
</g>
<g fill="None" fill-opacity="0.0" stroke="#EDCAB6" stroke-opacity="1.00" stroke-width="0.3"><path d="
M 556.00 801.00 
C 542.94 792.66 533.49 782.52 528.00 768.00
C 532.16 783.11 541.94 793.81 556.00 801.00 Z"/>
</g>
<g fill="None" fill-opacity="0.0" stroke="#EDCBB8" stroke-opacity="1.00" stroke-width="0.3"><path d="
M 453.00 795.00 
C 460.47 789.45 465.64 782.56 469.00 774.00
C 465.08 781.33 459.72 789.14 453.00 795.00 Z"/>
</g>
<g fill="None" fill-opacity="0.0" stroke="#EBB8A1" stroke-opacity="1.00" stroke-width="0.3"><path d="
M 357.00 814.00 
L 392.00 814.00
C 392.00 814.00 392.04 813.00 392.00 813.00
C 380.33 813.00 368.67 813.00 357.00 813.00
C 357.00 813.00 357.00 813.50 357.00 814.00 Z"/>
</g>
<g fill="None" fill-opacity="0.0" stroke="#EBB8A0" stroke-opacity="1.00" stroke-width="0.3"><path d="
M 607.00 814.00 
L 643.00 814.00
C 643.00 814.00 643.04 813.00 643.00 813.00
C 631.00 813.00 619.00 813.00 607.00 813.00
C 607.00 813.00 607.00 813.50 607.00 814.00 Z"/>
</g>
<g fill="#000000" fill-opacity="0.00" stroke="None">
<path d="
M 0.00 814.00 
L 357.00 814.00
C 357.00 813.50 357.00 813.00 357.00 813.00
C 304.60 813.00 253.27 788.55 214.00 755.00
C 210.63 752.12 207.32 748.84 204.00 746.00
C 200.06 742.63 196.33 738.89 193.00 735.00
C 189.82 731.27 186.14 727.68 183.00 724.00
C 181.03 721.70 179.48 719.29 178.00 717.00
C 174.42 712.64 170.47 708.53 167.00 704.00
C 166.76 703.68 167.00 703.00 167.00 703.00
C 163.58 700.77 161.17 696.36 159.00 693.00
C 148.03 675.99 135.99 659.52 128.00 641.00
C 122.54 631.00 116.62 620.70 112.00 610.00
C 100.66 583.74 88.02 559.01 79.22 531.78 C 70.42 504.54 57.42 477.05 51.00 449.00
C 49.79 445.28 48.21 441.03 47.00 437.00
C 44.48 428.57 40.97 420.61 39.00 412.00
C 38.12 409.28 36.90 406.02 36.00 403.00
C 33.94 396.10 31.10 388.81 29.02 381.98 C 26.95 375.14 23.89 367.66 22.02 360.98 C 20.16 354.29 16.38 346.30 15.02 339.98 C 13.67 333.65 7.91 325.13 7.23 319.77 C 6.55 314.41 -2.52 302.33 3.23 300.23 C 8.99 298.13 21.26 302.72 28.01 302.99 C 34.75 303.26 43.73 306.89 50.68 308.32 C 57.63 309.76 65.23 312.64 72.07 314.93 C 78.92 317.21 86.27 319.50 93.02 321.98 C 99.78 324.45 105.98 327.86 112.69 330.31 C 119.41 332.75 125.41 336.15 132.00 339.00
C 135.39 340.46 138.86 342.45 142.00 344.00
C 167.63 353.23 191.92 369.71 215.00 384.00
C 218.51 386.17 221.78 388.81 225.00 391.00
C 227.29 392.24 229.68 393.50 232.00 395.00
C 244.30 402.93 255.78 411.79 267.00 421.00
C 272.57 424.37 277.86 428.61 283.00 433.00
C 292.37 441.01 301.06 449.40 310.00 458.00
C 311.26 459.03 312.79 460.01 314.00 461.00
C 320.43 466.28 326.65 472.74 332.00 479.00
C 333.35 480.58 334.69 482.47 336.00 484.00
C 338.99 486.99 342.27 489.81 345.00 493.00
C 348.14 496.68 351.29 500.20 354.00 504.00
C 359.08 510.07 364.82 515.94 370.00 522.00
C 373.02 525.54 375.73 529.26 378.00 533.00
C 386.79 543.70 395.15 554.55 403.00 566.00
C 414.59 582.90 426.92 600.28 435.00 619.00
C 439.40 627.07 444.25 635.32 448.00 644.00
C 460.86 673.80 474.00 704.43 474.00 738.00
C 474.33 741.46 474.33 745.61 474.00 749.00
C 474.00 758.17 472.23 765.77 469.00 774.00
C 465.64 782.56 460.47 789.45 453.00 795.00
C 436.41 807.34 412.67 813.00 392.00 813.00
C 392.04 813.00 392.00 814.00 392.00 814.00
L 607.00 814.00
C 607.00 813.50 607.00 813.00 607.00 813.00
C 589.69 813.00 571.16 808.75 556.00 801.00
C 541.94 793.81 532.16 783.11 528.00 768.00
C 526.14 761.24 525.00 755.36 525.00 748.00
C 524.67 744.54 524.67 740.39 525.00 737.00
C 525.00 703.94 538.32 673.39 551.00 644.00
C 554.73 635.35 559.62 627.04 564.00 619.00
C 568.07 609.57 573.55 600.80 579.00 592.00
C 581.17 588.49 583.81 585.22 586.00 582.00
C 587.23 579.71 588.56 577.33 590.00 575.00
C 593.31 569.66 597.55 564.97 601.00 560.00
C 601.67 558.79 602.18 557.29 603.00 556.00
C 607.12 549.51 612.46 543.93 617.00 538.00
C 619.26 534.27 622.02 530.48 625.00 527.00
C 631.63 519.24 638.09 511.41 645.00 504.00
C 645.39 503.36 645.63 502.61 646.00 502.00
C 650.93 493.91 659.64 487.82 666.00 481.00
C 666.39 480.36 666.63 479.61 667.00 479.00
C 671.94 470.89 681.23 464.74 687.75 457.75 C 694.27 450.77 702.72 444.22 710.00 438.00
C 715.88 432.98 721.66 427.84 728.00 424.00
C 731.85 421.05 735.48 416.21 740.00 414.00
C 740.40 413.80 741.00 414.00 741.00 414.00
C 745.42 407.21 757.22 401.38 764.00 397.00
C 784.14 384.01 804.06 369.47 826.00 360.00
C 829.17 358.27 832.51 355.78 836.00 354.00
C 886.72 328.08 940.56 303.37 998.00 301.00
C 981.32 346.87 966.58 393.67 951.00 440.00
C 949.75 443.91 948.18 448.37 947.00 452.00
C 940.69 479.56 927.79 506.33 919.08 533.08 C 910.36 559.82 898.14 584.18 887.00 610.00
C 882.39 620.68 876.44 631.02 871.00 641.00
C 863.01 659.51 850.96 676.02 840.00 693.00
C 835.00 700.74 828.63 711.65 821.00 717.00
C 820.80 717.40 821.00 718.00 821.00 718.00
C 815.36 729.54 802.34 737.45 793.75 746.75 C 785.17 756.05 773.47 765.24 763.00 772.00
C 727.53 794.88 686.30 813.00 643.00 813.00
C 643.04 813.00 643.00 814.00 643.00 814.00
L 999.00 814.00
L 999.00 0.00
L 500.00 0.00
C 500.17 0.34 500.67 0.83 501.00 1.00
C 504.63 2.81 506.98 5.69 510.00 8.00
C 514.50 10.73 518.83 14.44 523.00 18.00
C 527.92 22.20 532.38 26.69 537.00 31.00
C 537.64 31.39 538.39 31.63 539.00 32.00
C 544.50 35.35 551.33 41.75 555.00 47.00
C 555.40 47.20 556.00 47.00 556.00 47.00
C 561.22 49.56 568.72 57.32 572.00 62.00
C 572.40 62.20 573.00 62.00 573.00 62.00
C 578.49 64.69 582.47 71.28 587.00 75.00
C 604.10 86.97 619.92 102.26 636.00 116.00
C 640.44 119.79 644.61 124.25 649.00 128.00
C 655.36 133.43 661.61 139.70 667.00 146.00
C 670.49 150.08 674.55 153.97 678.00 158.00
C 681.67 162.30 685.11 166.53 688.00 171.00
C 691.05 174.71 694.24 177.98 697.00 182.00
C 701.79 188.99 706.44 195.48 710.00 203.00
C 713.24 208.45 716.40 213.97 719.00 220.00
C 734.28 255.41 734.30 292.56 719.00 328.00
C 716.41 334.00 713.22 339.58 710.00 345.00
C 703.51 358.73 694.05 372.25 684.00 384.00
C 679.52 389.25 675.68 396.03 670.00 400.00
C 669.80 400.40 670.00 401.00 670.00 401.00
C 664.80 411.64 652.47 418.85 644.25 427.25 C 636.03 435.65 627.93 447.04 618.00 454.00
C 617.80 454.40 618.00 455.00 618.00 455.00
C 615.22 460.68 608.63 463.87 605.25 469.25 C 601.87 474.63 595.96 479.18 592.00 484.00
C 581.71 498.70 569.26 512.74 558.00 527.00
C 550.50 536.50 542.74 546.29 536.00 556.00
C 535.34 557.20 534.78 558.71 534.00 560.00
C 531.88 563.52 529.08 566.77 527.00 570.00
C 524.80 574.31 522.40 578.65 520.00 583.00
C 518.14 586.37 515.68 589.91 514.00 593.00
C 510.66 600.73 506.37 608.20 503.00 616.00
C 502.03 618.26 501.46 620.86 500.00 623.00
C 497.61 621.60 496.60 618.56 496.00 616.00
C 488.64 598.96 478.34 583.31 470.00 567.00
C 467.89 563.73 464.43 560.95 463.00 557.00
C 462.84 556.56 463.00 556.00 463.00 556.00
C 457.89 552.67 453.49 544.08 450.00 539.00
C 446.09 533.31 441.82 527.45 438.00 522.00
C 435.24 518.64 430.97 516.04 429.00 512.00
C 428.80 511.60 429.00 511.00 429.00 511.00
C 423.59 507.22 420.20 500.92 416.00 496.00
C 414.36 494.08 413.27 491.81 412.00 490.00
C 409.02 486.37 404.12 483.35 402.00 479.00
C 401.80 478.60 402.00 478.00 402.00 478.00
C 386.78 467.36 377.97 448.58 363.70 436.30 C 349.43 424.03 336.05 409.10 324.00 395.00
C 302.84 370.24 290.38 351.13 277.03 320.98 C 263.67 290.82 266.87 250.43 280.00 220.00
C 282.59 214.00 285.78 208.42 289.00 203.00
C 291.30 198.13 294.01 193.64 297.00 189.00
C 300.04 184.29 303.72 180.28 307.00 176.00
C 313.61 165.10 323.51 155.94 332.00 146.00
C 337.31 139.78 343.51 132.91 350.00 128.00
C 350.94 127.29 352.10 126.68 353.00 126.00
C 355.95 123.29 358.29 118.81 362.00 117.00
C 362.40 116.80 363.00 117.00 363.00 117.00
C 367.39 110.71 377.20 101.32 384.00 98.00
C 384.40 97.80 385.00 98.00 385.00 98.00
C 388.88 92.46 395.93 87.42 401.25 83.25 C 406.57 79.07 411.95 71.96 418.00 69.00
C 418.40 68.80 419.00 69.00 419.00 69.00
C 428.79 54.99 447.03 43.08 460.00 32.00
C 472.88 21.00 485.36 9.27 499.00 0.00
L 0.00 0.00
L 0.00 814.00 Z"/>
</g>
<g fill="#E68968" fill-opacity="1.00" stroke="None">
<path d="
M 460.00 32.00 
C 453.57 38.43 447.20 45.68 439.75 50.75 C 432.31 55.82 427.05 65.06 419.00 69.00
C 419.00 69.00 418.40 68.80 418.00 69.00
C 413.87 74.91 407.35 79.55 401.77 83.77 C 396.19 87.99 391.27 94.93 385.00 98.00
C 385.00 98.00 384.40 97.80 384.00 98.00
C 379.81 103.99 369.55 113.79 363.00 117.00
C 363.00 117.00 362.40 116.80 362.00 117.00
C 359.64 120.38 356.22 123.56 353.00 126.00
C 352.10 126.68 350.94 127.29 350.00 128.00
C 343.93 133.57 337.80 140.20 332.00 146.00
C 323.51 155.94 313.61 165.10 307.00 176.00
C 304.11 180.77 300.39 184.84 297.00 189.00
C 294.01 193.64 291.30 198.13 289.00 203.00
C 286.25 208.82 283.11 214.66 280.00 220.00
C 266.87 250.43 263.67 290.82 277.03 320.98 C 290.38 351.13 302.84 370.24 324.00 395.00
C 332.82 403.82 341.03 413.29 350.25 421.75 C 359.47 430.21 369.10 439.66 376.75 449.25 C 384.41 458.84 396.65 467.08 402.00 478.00
C 402.00 478.00 401.80 478.60 402.00 479.00
C 406.04 481.82 409.25 486.07 412.00 490.00
C 413.27 491.81 414.36 494.08 416.00 496.00
C 420.33 500.33 426.27 505.44 429.00 511.00
C 429.00 511.00 428.80 511.60 429.00 512.00
C 432.64 514.55 435.51 518.44 438.00 522.00
C 441.82 527.45 446.09 533.31 450.00 539.00
C 454.79 544.49 459.13 549.77 463.00 556.00
C 463.00 556.00 462.84 556.56 463.00 557.00
C 465.88 559.76 468.15 563.37 470.00 567.00
C 478.34 583.31 488.64 598.96 496.00 616.00
C 497.02 617.75 499.08 619.58 499.00 622.00
C 501.02 620.66 500.95 617.28 503.00 616.00
C 506.37 608.20 510.66 600.73 514.00 593.00
C 515.62 589.24 517.85 586.14 520.00 583.00
C 522.40 578.65 524.80 574.31 527.00 570.00
C 528.93 566.22 531.60 563.20 534.00 560.00
C 534.78 558.71 535.34 557.20 536.00 556.00
C 541.76 545.52 549.95 535.71 558.00 527.00
C 569.26 512.74 581.71 498.70 592.00 484.00
C 598.78 474.31 608.16 461.87 618.00 455.00
C 618.00 455.00 617.80 454.40 618.00 454.00
C 622.86 444.06 635.23 435.24 643.25 427.25 C 651.26 419.26 660.79 407.44 670.00 401.00
C 670.00 401.00 669.80 400.40 670.00 400.00
C 672.90 394.07 679.45 388.55 684.00 384.00
C 694.05 372.25 703.51 358.73 710.00 345.00
C 712.75 339.18 715.89 333.34 719.00 328.00
C 734.30 292.56 734.28 255.41 719.00 220.00
C 715.87 214.61 712.75 208.81 710.00 203.00
C 706.44 195.48 701.79 188.99 697.00 182.00
C 693.94 178.45 690.61 175.04 688.00 171.00
C 685.11 166.53 681.67 162.30 678.00 158.00
C 664.08 144.08 649.87 129.87 636.00 116.00
C 619.92 102.26 604.10 86.97 587.00 75.00
C 582.01 71.51 576.54 67.07 573.00 62.00
C 573.00 62.00 572.40 62.20 572.00 62.00
C 566.57 59.34 559.45 51.94 556.00 47.00
C 556.00 47.00 555.40 47.20 555.00 47.00
C 548.82 43.98 543.89 36.56 539.00 32.00
C 538.39 31.63 537.64 31.39 537.00 31.00
C 531.52 27.66 527.47 22.47 523.00 18.00
C 518.83 14.44 514.50 10.73 510.00 8.00
C 506.72 6.01 503.56 3.62 501.00 1.00
C 500.67 0.83 500.17 0.34 500.00 0.00
L 499.00 0.00
C 485.36 9.27 472.88 21.00 460.00 32.00
M 500.00 53.00 
C 514.71 67.63 530.80 80.87 546.25 94.75 C 561.70 108.64 578.15 121.61 593.75 135.25 C 609.35 148.89 624.98 162.02 639.25 177.75 C 653.52 193.48 666.67 209.23 677.75 227.25 C 688.84 245.26 701.76 269.63 692.69 289.69 C 683.63 309.76 674.12 328.78 660.75 345.75 C 647.37 362.71 635.20 377.68 619.75 392.75 C 604.30 407.83 590.46 421.76 576.75 437.75 C 563.05 453.74 550.09 469.41 536.75 485.75 C 523.42 502.10 510.25 519.86 500.00 538.00
C 488.06 518.37 472.78 499.93 458.25 481.75 C 443.71 463.57 429.39 445.72 413.75 428.25 C 398.11 410.78 381.57 396.01 365.25 378.75 C 348.92 361.49 336.29 342.59 323.08 322.92 C 309.86 303.25 296.35 275.99 307.92 253.92 C 319.50 231.86 329.41 211.73 345.77 193.77 C 362.13 175.81 376.21 159.77 394.25 144.25 C 412.28 128.73 429.59 114.93 447.25 99.25 C 464.91 83.56 482.42 68.72 500.00 53.00 Z"/>
</g>
<g fill="#EDCEBB" fill-opacity="1.00" stroke="None">
<path d="
M 510.00 8.00 
C 506.98 5.69 504.63 2.81 501.00 1.00
C 503.56 3.62 506.72 6.01 510.00 8.00 Z"/>
</g>
<g fill="#EDCDBA" fill-opacity="1.00" stroke="None">
<path d="
M 537.00 31.00 
C 532.38 26.69 527.92 22.20 523.00 18.00
C 527.47 22.47 531.52 27.66 537.00 31.00 Z"/>
</g>
<g fill="#EDCDBA" fill-opacity="1.00" stroke="None">
<path d="
M 419.00 69.00 
C 427.05 65.06 432.31 55.82 439.75 50.75 C 447.20 45.68 453.57 38.43 460.00 32.00
C 447.03 43.08 428.79 54.99 419.00 69.00 Z"/>
</g>
<g fill="#EDD2C0" fill-opacity="1.00" stroke="None">
<path d="
M 555.00 47.00 
C 551.33 41.75 544.50 35.35 539.00 32.00
C 543.89 36.56 548.82 43.98 555.00 47.00 Z"/>
</g>
<g fill="#EDCFBC" fill-opacity="1.00" stroke="None">
<path d="
M 572.00 62.00 
C 568.72 57.32 561.22 49.56 556.00 47.00
C 559.45 51.94 566.57 59.34 572.00 62.00 Z"/>
</g>
<g fill="#FFFF00" fill-opacity="0.00" stroke="None">
<path d="
M 500.00 53.00 
C 482.42 68.72 464.91 83.56 447.25 99.25 C 429.59 114.93 412.28 128.73 394.25 144.25 C 376.21 159.77 362.13 175.81 345.77 193.77 C 329.41 211.73 319.50 231.86 307.92 253.92 C 296.35 275.99 309.86 303.25 323.08 322.92 C 336.29 342.59 348.92 361.49 365.25 378.75 C 381.57 396.01 398.11 410.78 413.75 428.25 C 429.39 445.72 443.71 463.57 458.25 481.75 C 472.78 499.93 488.06 518.37 500.00 538.00
C 510.25 519.86 523.42 502.10 536.75 485.75 C 550.09 469.41 563.05 453.74 576.75 437.75 C 590.46 421.76 604.30 407.83 619.75 392.75 C 635.20 377.68 647.37 362.71 660.75 345.75 C 674.12 328.78 683.63 309.76 692.69 289.69 C 701.76 269.63 688.84 245.26 677.75 227.25 C 666.67 209.23 653.52 193.48 639.25 177.75 C 624.98 162.02 609.35 148.89 593.75 135.25 C 578.15 121.61 561.70 108.64 546.25 94.75 C 530.80 80.87 514.71 67.63 500.00 53.00 Z"/>
</g>
<g fill="#EDCCB9" fill-opacity="1.00" stroke="None">
<path d="
M 587.00 75.00 
C 582.47 71.28 578.49 64.69 573.00 62.00
C 576.54 67.07 582.01 71.51 587.00 75.00 Z"/>
</g>
<g fill="#EDCCB9" fill-opacity="1.00" stroke="None">
<path d="
M 385.00 98.00 
C 391.27 94.93 396.19 87.99 401.77 83.77 C 407.35 79.55 413.87 74.91 418.00 69.00
C 411.95 71.96 406.57 79.07 401.25 83.25 C 395.93 87.42 388.88 92.46 385.00 98.00 Z"/>
</g>
<g fill="#EDCCB8" fill-opacity="1.00" stroke="None">
<path d="
M 363.00 117.00 
C 369.55 113.79 379.81 103.99 384.00 98.00
C 377.20 101.32 367.39 110.71 363.00 117.00 Z"/>
</g>
<g fill="#EBBCA5" fill-opacity="1.00" stroke="None">
<path d="
M 678.00 158.00 
C 674.55 153.97 670.49 150.08 667.00 146.00
C 661.08 140.08 654.87 133.87 649.00 128.00
C 644.61 124.25 640.44 119.79 636.00 116.00
C 649.87 129.87 664.08 144.08 678.00 158.00 Z"/>
</g>
<g fill="#EED5C4" fill-opacity="1.00" stroke="None">
<path d="
M 353.00 126.00 
C 356.22 123.56 359.64 120.38 362.00 117.00
C 358.29 118.81 355.95 123.29 353.00 126.00 Z"/>
</g>
<g fill="#EFE1D2" fill-opacity="1.00" stroke="None">
<path d="
M 332.00 146.00 
C 337.80 140.20 343.93 133.57 350.00 128.00
C 343.51 132.91 337.31 139.78 332.00 146.00 Z"/>
</g>
<g fill="#EFE2D3" fill-opacity="1.00" stroke="None">
<path d="
M 667.00 146.00 
C 661.61 139.70 655.36 133.43 649.00 128.00
C 654.87 133.87 661.08 140.08 667.00 146.00 Z"/>
</g>
<g fill="#EDCEBA" fill-opacity="1.00" stroke="None">
<path d="
M 697.00 182.00 
C 694.24 177.98 691.05 174.71 688.00 171.00
C 690.61 175.04 693.94 178.45 697.00 182.00 Z"/>
</g>
<g fill="#EDD1BE" fill-opacity="1.00" stroke="None">
<path d="
M 297.00 189.00 
C 300.39 184.84 304.11 180.77 307.00 176.00
C 303.72 180.28 300.04 184.29 297.00 189.00 Z"/>
</g>
<g fill="#EDCCB8" fill-opacity="1.00" stroke="None">
<path d="
M 280.00 220.00 
C 283.11 214.66 286.25 208.82 289.00 203.00
C 285.78 208.42 282.59 214.00 280.00 220.00 Z"/>
</g>
<g fill="#EDCEBB" fill-opacity="1.00" stroke="None">
<path d="
M 719.00 220.00 
C 716.40 213.97 713.24 208.45 710.00 203.00
C 712.75 208.81 715.87 214.61 719.00 220.00 Z"/>
</g>
<g fill="#E68A68" fill-opacity="1.00" stroke="None">
<path d="
M 36.00 403.00 
C 37.17 405.87 38.24 408.69 39.00 412.00
C 40.97 420.61 44.48 428.57 47.00 437.00
C 48.55 440.81 50.02 444.71 51.00 449.00
C 57.42 477.05 70.42 504.54 79.22 531.78 C 88.02 559.01 100.66 583.74 112.00 610.00
C 117.67 619.76 123.44 630.44 128.00 641.00
C 135.99 659.52 148.03 675.99 159.00 693.00
C 161.70 696.32 164.68 699.26 167.00 703.00
C 167.00 703.00 166.76 703.68 167.00 704.00
C 171.52 707.16 175.09 712.48 178.00 717.00
C 179.48 719.29 181.03 721.70 183.00 724.00
C 193.25 734.25 203.80 744.80 214.00 755.00
C 253.27 788.55 304.60 813.00 357.00 813.00
C 368.67 813.00 380.33 813.00 392.00 813.00
C 412.67 813.00 436.41 807.34 453.00 795.00
C 459.72 789.14 465.08 781.33 469.00 774.00
C 472.23 765.77 474.00 758.17 474.00 749.00
C 474.00 745.33 474.00 741.67 474.00 738.00
C 474.00 704.43 460.86 673.80 448.00 644.00
C 443.42 636.13 438.69 627.55 435.00 619.00
C 426.92 600.28 414.59 582.90 403.00 566.00
C 394.39 556.02 384.92 544.41 378.00 533.00
C 375.73 529.26 373.02 525.54 370.00 522.00
C 364.32 516.32 358.66 510.53 354.00 504.00
C 351.29 500.20 348.14 496.68 345.00 493.00
C 342.01 490.01 338.73 487.19 336.00 484.00
C 334.69 482.47 333.35 480.58 332.00 479.00
C 326.11 473.11 319.95 466.72 314.00 461.00
C 312.79 460.01 311.26 459.03 310.00 458.00
C 300.53 450.23 291.50 441.50 283.00 433.00
C 277.86 428.61 272.57 424.37 267.00 421.00
C 254.82 413.62 242.86 403.83 232.00 395.00
C 229.68 393.50 227.29 392.24 225.00 391.00
C 221.27 388.98 218.18 386.46 215.00 384.00
C 191.92 369.71 167.63 353.23 142.00 344.00
C 138.39 342.70 135.16 340.84 132.00 339.00
C 125.41 336.15 119.41 332.75 112.69 330.31 C 105.98 327.86 99.78 324.45 93.02 321.98 C 86.27 319.50 78.92 317.21 72.07 314.93 C 65.23 312.64 57.63 309.76 50.68 308.32 C 43.73 306.89 34.75 303.26 28.01 302.99 C 21.26 302.72 8.99 298.13 3.23 300.23 C -2.52 302.33 6.55 314.41 7.23 319.77 C 7.91 325.13 13.67 333.65 15.02 339.98 C 16.38 346.30 20.16 354.29 22.02 360.98 C 23.89 367.66 26.95 375.14 29.02 381.98 C 31.10 388.81 33.94 396.10 36.00 403.00
M 59.00 351.00 
C 84.21 359.37 110.03 372.24 133.69 384.31 C 157.36 396.37 179.80 409.91 201.70 424.30 C 223.59 438.70 243.37 454.63 263.25 471.75 C 283.13 488.87 300.04 505.84 317.30 525.70 C 334.56 545.55 351.41 563.78 366.25 585.75 C 381.09 607.73 395.60 627.55 407.77 652.23 C 419.94 676.91 432.29 701.02 438.78 729.22 C 445.27 757.43 411.29 777.06 385.00 780.00 C 358.70 782.93 323.40 773.60 299.32 761.68 C 275.24 749.76 254.52 735.70 234.75 717.25 C 214.99 698.80 200.68 680.08 185.70 658.30 C 170.71 636.53 157.92 614.21 146.23 589.77 C 134.54 565.33 123.04 539.61 113.23 513.77 C 103.41 487.93 94.34 460.40 85.22 433.78 C 76.11 407.16 67.06 378.13 59.00 351.00 Z"/>
</g>
<g fill="#E68A68" fill-opacity="1.00" stroke="None">
<path d="
M 836.00 354.00 
C 832.80 356.05 829.76 358.38 826.00 360.00
C 804.06 369.47 784.14 384.01 764.00 397.00
C 756.69 402.94 749.10 408.94 741.00 414.00
C 741.00 414.00 740.40 413.80 740.00 414.00
C 737.02 418.26 732.30 421.39 728.00 424.00
C 721.66 427.84 715.88 432.98 710.00 438.00
C 696.15 451.85 680.52 464.52 667.00 479.00
C 666.63 479.61 666.39 480.36 666.00 481.00
C 661.12 489.02 652.28 495.26 646.00 502.00
C 645.63 502.61 645.39 503.36 645.00 504.00
C 639.91 512.37 631.83 520.17 625.00 527.00
C 622.02 530.48 619.26 534.27 617.00 538.00
C 613.02 544.56 607.64 550.17 603.00 556.00
C 602.18 557.29 601.67 558.79 601.00 560.00
C 598.01 565.43 593.64 570.29 590.00 575.00
C 588.56 577.33 587.23 579.71 586.00 582.00
C 583.98 585.73 581.46 588.82 579.00 592.00
C 573.55 600.80 568.07 609.57 564.00 619.00
C 560.31 627.55 555.55 636.17 551.00 644.00
C 538.32 673.39 525.00 703.94 525.00 737.00
C 525.00 740.67 525.00 744.33 525.00 748.00
C 525.00 755.36 526.14 761.24 528.00 768.00
C 533.49 782.52 542.94 792.66 556.00 801.00
C 571.16 808.75 589.69 813.00 607.00 813.00
C 619.00 813.00 631.00 813.00 643.00 813.00
C 686.30 813.00 727.53 794.88 763.00 772.00
C 773.04 763.84 783.20 754.90 793.25 746.25 C 803.30 737.59 810.43 725.37 821.00 718.00
C 821.00 718.00 820.80 717.40 821.00 717.00
C 825.22 708.38 834.09 700.26 840.00 693.00
C 850.96 676.02 863.01 659.51 871.00 641.00
C 875.56 630.44 881.35 619.72 887.00 610.00
C 898.14 584.18 910.36 559.82 919.08 533.08 C 927.79 506.33 940.69 479.56 947.00 452.00
C 947.97 447.74 949.38 443.75 951.00 440.00
C 966.58 393.67 981.32 346.87 998.00 301.00
C 940.56 303.37 886.72 328.08 836.00 354.00
M 940.00 351.00 
C 934.74 370.55 927.85 390.42 921.68 409.68 C 915.51 428.94 908.65 448.22 902.22 467.22 C 895.80 486.23 888.48 505.85 881.22 524.22 C 873.97 542.60 866.59 560.72 858.22 578.22 C 849.86 595.73 841.17 613.24 831.69 629.70 C 822.22 646.15 812.05 660.76 800.75 675.75 C 789.45 690.74 778.14 703.96 764.25 717.25 C 750.35 730.54 736.32 739.81 720.30 750.30 C 704.28 760.79 685.06 767.46 666.93 773.93 C 648.79 780.39 619.22 784.19 601.93 777.07 C 584.63 769.96 562.33 762.92 559.08 742.92 C 555.82 722.93 570.22 702.17 575.98 683.98 C 581.73 665.78 593.37 649.54 601.92 632.92 C 610.48 616.31 622.65 601.23 632.77 585.77 C 642.89 570.31 655.12 557.06 666.75 542.75 C 678.39 528.44 690.25 515.72 703.25 502.25 C 716.25 488.78 729.53 476.56 743.75 464.75 C 757.97 452.93 771.96 441.91 787.25 431.25 C 802.53 420.58 818.76 410.56 835.08 401.08 C 851.39 391.59 867.67 382.20 885.08 374.08 C 902.48 365.95 921.60 356.80 940.00 351.00 Z"/>
</g>
<g fill="#EDCCB8" fill-opacity="1.00" stroke="None">
<path d="
M 710.00 345.00 
C 713.22 339.58 716.41 334.00 719.00 328.00
C 715.89 333.34 712.75 339.18 710.00 345.00 Z"/>
</g>
<g fill="#EDCCB8" fill-opacity="1.00" stroke="None">
<path d="
M 142.00 344.00 
C 138.86 342.45 135.39 340.46 132.00 339.00
C 135.16 340.84 138.39 342.70 142.00 344.00 Z"/>
</g>
<g fill="#FFFF02" fill-opacity="0.00" stroke="None">
<path d="
M 59.00 351.00 
C 67.06 378.13 76.11 407.16 85.22 433.78 C 94.34 460.40 103.41 487.93 113.23 513.77 C 123.04 539.61 134.54 565.33 146.23 589.77 C 157.92 614.21 170.71 636.53 185.70 658.30 C 200.68 680.08 214.99 698.80 234.75 717.25 C 254.52 735.70 275.24 749.76 299.32 761.68 C 323.40 773.60 358.70 782.93 385.00 780.00 C 411.29 777.06 445.27 757.43 438.78 729.22 C 432.29 701.02 419.94 676.91 407.77 652.23 C 395.60 627.55 381.09 607.73 366.25 585.75 C 351.41 563.78 334.56 545.55 317.30 525.70 C 300.04 505.84 283.13 488.87 263.25 471.75 C 243.37 454.63 223.59 438.70 201.70 424.30 C 179.80 409.91 157.36 396.37 133.69 384.31 C 110.03 372.24 84.21 359.37 59.00 351.00 Z"/>
</g>
<g fill="#FFFF02" fill-opacity="0.00" stroke="None">
<path d="
M 940.00 351.00 
C 921.60 356.80 902.48 365.95 885.08 374.08 C 867.67 382.20 851.39 391.59 835.08 401.08 C 818.76 410.56 802.53 420.58 787.25 431.25 C 771.96 441.91 757.97 452.93 743.75 464.75 C 729.53 476.56 716.25 488.78 703.25 502.25 C 690.25 515.72 678.39 528.44 666.75 542.75 C 655.12 557.06 642.89 570.31 632.77 585.77 C 622.65 601.23 610.48 616.31 601.92 632.92 C 593.37 649.54 581.73 665.78 575.98 683.98 C 570.22 702.17 555.82 722.93 559.08 742.92 C 562.33 762.92 584.63 769.96 601.93 777.07 C 619.22 784.19 648.79 780.39 666.93 773.93 C 685.06 767.46 704.28 760.79 720.30 750.30 C 736.32 739.81 750.35 730.54 764.25 717.25 C 778.14 703.96 789.45 690.74 800.75 675.75 C 812.05 660.76 822.22 646.15 831.69 629.70 C 841.17 613.24 849.86 595.73 858.22 578.22 C 866.59 560.72 873.97 542.60 881.22 524.22 C 888.48 505.85 895.80 486.23 902.22 467.22 C 908.65 448.22 915.51 428.94 921.68 409.68 C 927.85 390.42 934.74 370.55 940.00 351.00 Z"/>
</g>
<g fill="#EDCEBB" fill-opacity="1.00" stroke="None">
<path d="
M 826.00 360.00 
C 829.76 358.38 832.80 356.05 836.00 354.00
C 832.51 355.78 829.17 358.27 826.00 360.00 Z"/>
</g>
<g fill="#EDCFBC" fill-opacity="1.00" stroke="None">
<path d="
M 225.00 391.00 
C 221.78 388.81 218.51 386.17 215.00 384.00
C 218.18 386.46 221.27 388.98 225.00 391.00 Z"/>
</g>
<g fill="#EDCDBA" fill-opacity="1.00" stroke="None">
<path d="
M 670.00 400.00 
C 675.68 396.03 679.52 389.25 684.00 384.00
C 679.45 388.55 672.90 394.07 670.00 400.00 Z"/>
</g>
<g fill="#EDCBB8" fill-opacity="1.00" stroke="None">
<path d="
M 267.00 421.00 
C 255.78 411.79 244.30 402.93 232.00 395.00
C 242.86 403.83 254.82 413.62 267.00 421.00 Z"/>
</g>
<g fill="#EDCAB6" fill-opacity="1.00" stroke="None">
<path d="
M 402.00 478.00 
C 396.65 467.08 384.41 458.84 376.75 449.25 C 369.10 439.66 359.47 430.21 350.25 421.75 C 341.03 413.29 332.82 403.82 324.00 395.00
C 336.05 409.10 349.43 424.03 363.70 436.30 C 377.97 448.58 386.78 467.36 402.00 478.00 Z"/>
</g>
<g fill="#EDCDBA" fill-opacity="1.00" stroke="None">
<path d="
M 741.00 414.00 
C 749.10 408.94 756.69 402.94 764.00 397.00
C 757.22 401.38 745.42 407.21 741.00 414.00 Z"/>
</g>
<g fill="#EDC9B5" fill-opacity="1.00" stroke="None">
<path d="
M 618.00 454.00 
C 627.93 447.04 636.03 435.65 644.25 427.25 C 652.47 418.85 664.80 411.64 670.00 401.00
C 660.79 407.44 651.26 419.26 643.25 427.25 C 635.23 435.24 622.86 444.06 618.00 454.00 Z"/>
</g>
<g fill="#EDCBB7" fill-opacity="1.00" stroke="None">
<path d="
M 39.00 412.00 
C 38.24 408.69 37.17 405.87 36.00 403.00
C 36.90 406.02 38.12 409.28 39.00 412.00 Z"/>
</g>
<g fill="#EDCCB8" fill-opacity="1.00" stroke="None">
<path d="
M 728.00 424.00 
C 732.30 421.39 737.02 418.26 740.00 414.00
C 735.48 416.21 731.85 421.05 728.00 424.00 Z"/>
</g>
<g fill="#EDCBB8" fill-opacity="1.00" stroke="None">
<path d="
M 310.00 458.00 
C 301.06 449.40 292.37 441.01 283.00 433.00
C 291.50 441.50 300.53 450.23 310.00 458.00 Z"/>
</g>
<g fill="#EDCAB7" fill-opacity="1.00" stroke="None">
<path d="
M 51.00 449.00 
C 50.02 444.71 48.55 440.81 47.00 437.00
C 48.21 441.03 49.79 445.28 51.00 449.00 Z"/>
</g>
<g fill="#EED7C6" fill-opacity="1.00" stroke="None">
<path d="
M 667.00 479.00 
C 680.52 464.52 696.15 451.85 710.00 438.00
C 702.72 444.22 694.27 450.77 687.75 457.75 C 681.23 464.74 671.94 470.89 667.00 479.00 Z"/>
</g>
<g fill="#EDCAB6" fill-opacity="1.00" stroke="None">
<path d="
M 947.00 452.00 
C 948.18 448.37 949.75 443.91 951.00 440.00
C 949.38 443.75 947.97 447.74 947.00 452.00 Z"/>
</g>
<g fill="#EDCFBD" fill-opacity="1.00" stroke="None">
<path d="
M 592.00 484.00 
C 595.96 479.18 601.87 474.63 605.25 469.25 C 608.63 463.87 615.22 460.68 618.00 455.00
C 608.16 461.87 598.78 474.31 592.00 484.00 Z"/>
</g>
<g fill="#EFE1D2" fill-opacity="1.00" stroke="None">
<path d="
M 332.00 479.00 
C 326.65 472.74 320.43 466.28 314.00 461.00
C 319.95 466.72 326.11 473.11 332.00 479.00 Z"/>
</g>
<g fill="#EDD3C1" fill-opacity="1.00" stroke="None">
<path d="
M 412.00 490.00 
C 409.25 486.07 406.04 481.82 402.00 479.00
C 404.12 483.35 409.02 486.37 412.00 490.00 Z"/>
</g>
<g fill="#EDCFBC" fill-opacity="1.00" stroke="None">
<path d="
M 646.00 502.00 
C 652.28 495.26 661.12 489.02 666.00 481.00
C 659.64 487.82 650.93 493.91 646.00 502.00 Z"/>
</g>
<g fill="#EED8C7" fill-opacity="1.00" stroke="None">
<path d="
M 345.00 493.00 
C 342.27 489.81 338.99 486.99 336.00 484.00
C 338.73 487.19 342.01 490.01 345.00 493.00 Z"/>
</g>
<g fill="#EDCEBB" fill-opacity="1.00" stroke="None">
<path d="
M 429.00 511.00 
C 426.27 505.44 420.33 500.33 416.00 496.00
C 420.20 500.92 423.59 507.22 429.00 511.00 Z"/>
</g>
<g fill="#EDCDBA" fill-opacity="1.00" stroke="None">
<path d="
M 370.00 522.00 
C 364.82 515.94 359.08 510.07 354.00 504.00
C 358.66 510.53 364.32 516.32 370.00 522.00 Z"/>
</g>
<g fill="#EDCCB8" fill-opacity="1.00" stroke="None">
<path d="
M 625.00 527.00 
C 631.83 520.17 639.91 512.37 645.00 504.00
C 638.09 511.41 631.63 519.24 625.00 527.00 Z"/>
</g>
<g fill="#EDD1BF" fill-opacity="1.00" stroke="None">
<path d="
M 438.00 522.00 
C 435.51 518.44 432.64 514.55 429.00 512.00
C 430.97 516.04 435.24 518.64 438.00 522.00 Z"/>
</g>
<g fill="#EDCCB9" fill-opacity="1.00" stroke="None">
<path d="
M 536.00 556.00 
C 542.74 546.29 550.50 536.50 558.00 527.00
C 549.95 535.71 541.76 545.52 536.00 556.00 Z"/>
</g>
<g fill="#EDCCB9" fill-opacity="1.00" stroke="None">
<path d="
M 403.00 566.00 
C 395.15 554.55 386.79 543.70 378.00 533.00
C 384.92 544.41 394.39 556.02 403.00 566.00 Z"/>
</g>
<g fill="#EDD0BE" fill-opacity="1.00" stroke="None">
<path d="
M 603.00 556.00 
C 607.64 550.17 613.02 544.56 617.00 538.00
C 612.46 543.93 607.12 549.51 603.00 556.00 Z"/>
</g>
<g fill="#EDCEBB" fill-opacity="1.00" stroke="None">
<path d="
M 463.00 556.00 
C 459.13 549.77 454.79 544.49 450.00 539.00
C 453.49 544.08 457.89 552.67 463.00 556.00 Z"/>
</g>
<g fill="#EDD1BF" fill-opacity="1.00" stroke="None">
<path d="
M 470.00 567.00 
C 468.15 563.37 465.88 559.76 463.00 557.00
C 464.43 560.95 467.89 563.73 470.00 567.00 Z"/>
</g>
<g fill="#EDCFBC" fill-opacity="1.00" stroke="None">
<path d="
M 527.00 570.00 
C 529.08 566.77 531.88 563.52 534.00 560.00
C 531.60 563.20 528.93 566.22 527.00 570.00 Z"/>
</g>
<g fill="#EDCEBB" fill-opacity="1.00" stroke="None">
<path d="
M 590.00 575.00 
C 593.64 570.29 598.01 565.43 601.00 560.00
C 597.55 564.97 593.31 569.66 590.00 575.00 Z"/>
</g>
<g fill="#EDCEBC" fill-opacity="1.00" stroke="None">
<path d="
M 579.00 592.00 
C 581.46 588.82 583.98 585.73 586.00 582.00
C 583.81 585.22 581.17 588.49 579.00 592.00 Z"/>
</g>
<g fill="#EDD1BE" fill-opacity="1.00" stroke="None">
<path d="
M 514.00 593.00 
C 515.68 589.91 518.14 586.37 520.00 583.00
C 517.85 586.14 515.62 589.24 514.00 593.00 Z"/>
</g>
<g fill="#EDD2C0" fill-opacity="1.00" stroke="None">
<path d="
M 128.00 641.00 
C 123.44 630.44 117.67 619.76 112.00 610.00
C 116.62 620.70 122.54 631.00 128.00 641.00 Z"/>
</g>
<g fill="#EDCEBB" fill-opacity="1.00" stroke="None">
<path d="
M 871.00 641.00 
C 876.44 631.02 882.39 620.68 887.00 610.00
C 881.35 619.72 875.56 630.44 871.00 641.00 Z"/>
</g>
<g fill="#EDCEBC" fill-opacity="1.00" stroke="None">
<path d="
M 503.00 616.00 
C 500.95 617.28 501.02 620.66 499.00 622.00
C 499.08 619.58 497.02 617.75 496.00 616.00
C 496.60 618.56 497.61 621.60 500.00 623.00
C 501.46 620.86 502.03 618.26 503.00 616.00 Z"/>
</g>
<g fill="#EDCEBB" fill-opacity="1.00" stroke="None">
<path d="
M 448.00 644.00 
C 444.25 635.32 439.40 627.07 435.00 619.00
C 438.69 627.55 443.42 636.13 448.00 644.00 Z"/>
</g>
<g fill="#EDD0BD" fill-opacity="1.00" stroke="None">
<path d="
M 551.00 644.00 
C 555.55 636.17 560.31 627.55 564.00 619.00
C 559.62 627.04 554.73 635.35 551.00 644.00 Z"/>
</g>
<g fill="#EDCDBA" fill-opacity="1.00" stroke="None">
<path d="
M 167.00 703.00 
C 164.68 699.26 161.70 696.32 159.00 693.00
C 161.17 696.36 163.58 700.77 167.00 703.00 Z"/>
</g>
<g fill="#EDCCB9" fill-opacity="1.00" stroke="None">
<path d="
M 821.00 717.00 
C 828.63 711.65 835.00 700.74 840.00 693.00
C 834.09 700.26 825.22 708.38 821.00 717.00 Z"/>
</g>
<g fill="#EDCCB9" fill-opacity="1.00" stroke="None">
<path d="
M 178.00 717.00 
C 175.09 712.48 171.52 707.16 167.00 704.00
C 170.47 708.53 174.42 712.64 178.00 717.00 Z"/>
</g>
<g fill="#EDC8B4" fill-opacity="1.00" stroke="None">
<path d="
M 763.00 772.00 
C 773.47 765.24 785.17 756.05 793.75 746.75 C 802.34 737.45 815.36 729.54 821.00 718.00
C 810.43 725.37 803.30 737.59 793.25 746.25 C 783.20 754.90 773.04 763.84 763.00 772.00 Z"/>
</g>
<g fill="#ECBFAA" fill-opacity="1.00" stroke="None">
<path d="
M 193.00 735.00 
C 196.59 738.59 200.46 742.46 204.00 746.00
C 207.32 748.84 210.63 752.12 214.00 755.00
C 203.80 744.80 193.25 734.25 183.00 724.00
C 186.14 727.68 189.82 731.27 193.00 735.00 Z"/>
</g>
<g fill="#EFE3D5" fill-opacity="1.00" stroke="None">
<path d="
M 204.00 746.00 
C 200.46 742.46 196.59 738.59 193.00 735.00
C 196.33 738.89 200.06 742.63 204.00 746.00 Z"/>
</g>
<g fill="#EEDBCA" fill-opacity="1.00" stroke="None">
<path d="
M 525.00 748.00 
C 525.00 744.33 525.00 740.67 525.00 737.00
C 524.67 740.39 524.67 744.54 525.00 748.00 Z"/>
</g>
<g fill="#EEDCCD" fill-opacity="1.00" stroke="None">
<path d="
M 474.00 749.00 
C 474.33 745.61 474.33 741.46 474.00 738.00
C 474.00 741.67 474.00 745.33 474.00 749.00 Z"/>
</g>
<g fill="#EDCAB6" fill-opacity="1.00" stroke="None">
<path d="
M 556.00 801.00 
C 542.94 792.66 533.49 782.52 528.00 768.00
C 532.16 783.11 541.94 793.81 556.00 801.00 Z"/>
</g>
<g fill="#EDCBB8" fill-opacity="1.00" stroke="None">
<path d="
M 453.00 795.00 
C 460.47 789.45 465.64 782.56 469.00 774.00
C 465.08 781.33 459.72 789.14 453.00 795.00 Z"/>
</g>
<g fill="#EBB8A1" fill-opacity="1.00" stroke="None">
<path d="
M 357.00 814.00 
L 392.00 814.00
C 392.00 814.00 392.04 813.00 392.00 813.00
C 380.33 813.00 368.67 813.00 357.00 813.00
C 357.00 813.00 357.00 813.50 357.00 814.00 Z"/>
</g>
<g fill="#EBB8A0" fill-opacity="1.00" stroke="None">
<path d="
M 607.00 814.00 
L 643.00 814.00
C 643.00 814.00 643.04 813.00 643.00 813.00
C 631.00 813.00 619.00 813.00 607.00 813.00
C 607.00 813.00 607.00 813.50 607.00 814.00 Z"/>
</g>
</svg>