<?xml version="1.0" encoding="UTF-8"?>
<!DOCTYPE svg PUBLIC "-//W3C//DTD SVG 1.1//EN" "http://www.w3.org/Graphics/SVG/1.1/DTD/svg11.dtd">
<svg xmlns="http://www.w3.org/2000/svg" version="1.1" width="999px" height="814px" style="shape-rendering:geometricPrecision; text-rendering:geometricPrecision; image-rendering:optimizeQuality; fill-rule:evenodd; clip-rule:evenodd" xmlns:xlink="http://www.w3.org/1999/xlink">
<g><path style="opacity:1" fill="#e68967" d="M 498.5,-0.5 C 498.833,-0.5 499.167,-0.5 499.5,-0.5C 499.5,0.166667 499.833,0.5 500.5,0.5C 500.821,2.04814 501.821,2.71481 503.5,2.5C 510.291,7.45155 516.958,12.6182 523.5,18C 564.742,55.0813 606.409,91.5813 648.5,127.5C 648.5,129.5 649.5,130.5 651.5,130.5C 655.833,134.167 659.833,138.167 663.5,142.5C 663.738,144.404 664.738,145.738 666.5,146.5C 669.833,149.167 672.833,152.167 675.5,155.5C 675.427,157.027 676.094,158.027 677.5,158.5C 678.833,159.167 679.833,160.167 680.5,161.5C 680.738,163.404 681.738,164.738 683.5,165.5C 684.5,165.833 685.167,166.5 685.5,167.5C 685.427,169.027 686.094,170.027 687.5,170.5C 688.5,170.833 689.167,171.5 689.5,172.5C 689.427,174.027 690.094,175.027 691.5,175.5C 694.898,178.627 697.565,182.293 699.5,186.5C 699.427,188.027 700.094,189.027 701.5,189.5C 701.427,191.027 702.094,192.027 703.5,192.5C 703.427,194.027 704.094,195.027 705.5,195.5C 707.588,197.336 708.921,199.669 709.5,202.5C 709.427,204.027 710.094,205.027 711.5,205.5C 717.188,215.217 721.522,225.55 724.5,236.5C 724.41,239.152 725.076,241.485 726.5,243.5C 733.152,270.259 731.319,296.592 721,322.5C 713.451,339.941 704.117,356.275 693,371.5C 676.161,394.344 657.161,415.344 636,434.5C 607.168,465.323 579.835,497.323 554,530.5C 532.384,558.504 514.384,588.837 500,621.5C 499.333,622.833 498.667,622.833 498,621.5C 492.412,609.325 486.578,597.325 480.5,585.5C 480.715,583.821 480.048,582.821 478.5,582.5C 478.167,581.833 477.833,581.167 477.5,580.5C 477.715,578.821 477.048,577.821 475.5,577.5C 475.167,576.833 474.833,576.167 474.5,575.5C 474.715,573.821 474.048,572.821 472.5,572.5C 472.167,571.833 471.833,571.167 471.5,570.5C 471.715,568.821 471.048,567.821 469.5,567.5C 468.248,565.999 467.248,564.332 466.5,562.5C 466.715,560.821 466.048,559.821 464.5,559.5C 464.715,557.821 464.048,556.821 462.5,556.5C 462.167,555.833 461.833,555.167 461.5,554.5C 461.446,552.368 460.446,551.035 458.5,550.5C 430.126,511.775 399.459,474.775 366.5,439.5C 366.5,437.5 365.5,436.5 363.5,436.5C 358.5,431.167 353.5,425.833 348.5,420.5C 347.415,418.413 345.749,417.08 343.5,416.5C 326.639,399.644 311.639,381.311 298.5,361.5C 298.715,359.821 298.048,358.821 296.5,358.5C 275.041,329.008 265.541,296.008 268,259.5C 268.486,253.889 269.653,248.556 271.5,243.5C 272.924,241.485 273.59,239.152 273.5,236.5C 276.484,225.533 280.817,215.2 286.5,205.5C 287.906,205.027 288.573,204.027 288.5,202.5C 288.328,201.508 288.662,200.842 289.5,200.5C 290.906,200.027 291.573,199.027 291.5,197.5C 291.328,196.508 291.662,195.842 292.5,195.5C 293.906,195.027 294.573,194.027 294.5,192.5C 295.906,192.027 296.573,191.027 296.5,189.5C 297.906,189.027 298.573,188.027 298.5,186.5C 299.906,186.027 300.573,185.027 300.5,183.5C 302.262,182.738 303.262,181.404 303.5,179.5C 303.738,177.596 304.738,176.262 306.5,175.5C 307.906,175.027 308.573,174.027 308.5,172.5C 309.167,171.167 310.167,170.167 311.5,169.5C 312.906,169.027 313.573,168.027 313.5,166.5C 313.833,165.5 314.5,164.833 315.5,164.5C 316.906,164.027 317.573,163.027 317.5,161.5C 318.167,160.167 319.167,159.167 320.5,158.5C 321.906,158.027 322.573,157.027 322.5,155.5C 325.167,152.167 328.167,149.167 331.5,146.5C 338.167,140.5 344.5,134.167 350.5,127.5C 350.833,126.5 351.5,125.833 352.5,125.5C 356.436,123.234 359.769,120.234 362.5,116.5C 362.833,115.5 363.5,114.833 364.5,114.5C 367.427,113.243 369.761,111.243 371.5,108.5C 371.5,107.833 371.833,107.5 372.5,107.5C 375.089,106.581 377.089,104.914 378.5,102.5C 381.089,101.581 383.089,99.914 384.5,97.5C 384.5,96.8333 384.833,96.5 385.5,96.5C 387.749,95.9202 389.415,94.5869 390.5,92.5C 390.5,91.8333 390.833,91.5 391.5,91.5C 394.089,90.5806 396.089,88.914 397.5,86.5C 400.427,85.2427 402.761,83.2427 404.5,80.5C 407.427,79.2427 409.761,77.2427 411.5,74.5C 411.5,73.8333 411.833,73.5 412.5,73.5C 415.089,72.5806 417.089,70.914 418.5,68.5C 418.5,67.8333 418.833,67.5 419.5,67.5C 422.427,66.2427 424.761,64.2427 426.5,61.5C 426.5,60.8333 426.833,60.5 427.5,60.5C 430.764,58.9059 433.431,56.5725 435.5,53.5C 438.764,51.9059 441.431,49.5725 443.5,46.5C 443.5,45.8333 443.833,45.5 444.5,45.5C 447.427,44.2427 449.761,42.2427 451.5,39.5C 451.833,38.5 452.5,37.8333 453.5,37.5C 456.427,36.2427 458.761,34.2427 460.5,31.5C 460.5,30.8333 460.833,30.5 461.5,30.5C 464.427,29.2427 466.761,27.2427 468.5,24.5C 468.5,23.8333 468.833,23.5 469.5,23.5C 472.427,22.2427 474.761,20.2427 476.5,17.5C 476.5,16.8333 476.833,16.5 477.5,16.5C 479.749,15.9202 481.415,14.5869 482.5,12.5C 482.5,11.8333 482.833,11.5 483.5,11.5C 485.749,10.9202 487.415,9.58689 488.5,7.5C 491.545,4.45337 494.878,1.7867 498.5,-0.5 Z"/></g>
<g><path style="opacity:1" fill="#edb89f" d="M 500.5,0.5 C 501.71,0.932053 502.71,1.59872 503.5,2.5C 501.821,2.71481 500.821,2.04814 500.5,0.5 Z"/></g>
<g><path style="opacity:1" fill="#eaaa8f" d="M 488.5,7.5 C 487.415,9.58689 485.749,10.9202 483.5,11.5C 484.585,9.41311 486.251,8.07978 488.5,7.5 Z"/></g>
<g><path style="opacity:1" fill="#eaa98d" d="M 482.5,12.5 C 481.415,14.5869 479.749,15.9202 477.5,16.5C 478.585,14.4131 480.251,13.0798 482.5,12.5 Z"/></g>
<g><path style="opacity:1" fill="#ebac91" d="M 476.5,17.5 C 474.761,20.2427 472.427,22.2427 469.5,23.5C 471.239,20.7573 473.573,18.7573 476.5,17.5 Z"/></g>
<g><path style="opacity:1" fill="#eaaa8f" d="M 468.5,24.5 C 466.761,27.2427 464.427,29.2427 461.5,30.5C 463.239,27.7573 465.573,25.7573 468.5,24.5 Z"/></g>
<g><path style="opacity:1" fill="#ebad93" d="M 460.5,31.5 C 458.761,34.2427 456.427,36.2427 453.5,37.5C 455.239,34.7573 457.573,32.7573 460.5,31.5 Z"/></g>
<g><path style="opacity:1" fill="#ebab90" d="M 451.5,39.5 C 449.761,42.2427 447.427,44.2427 444.5,45.5C 446.239,42.7573 448.573,40.7573 451.5,39.5 Z"/></g>
<g><path style="opacity:1" fill="#ebad93" d="M 443.5,46.5 C 441.431,49.5725 438.764,51.9059 435.5,53.5C 437.569,50.4275 440.236,48.0941 443.5,46.5 Z"/></g>
<g><path style="opacity:1" fill="#ebb096" d="M 435.5,53.5 C 433.431,56.5725 430.764,58.9059 427.5,60.5C 429.569,57.4275 432.236,55.0941 435.5,53.5 Z"/></g>
<g><path style="opacity:1" fill="#ebac91" d="M 426.5,61.5 C 424.761,64.2427 422.427,66.2427 419.5,67.5C 421.239,64.7573 423.573,62.7573 426.5,61.5 Z"/></g>
<g><path style="opacity:1" fill="#eaaa8f" d="M 418.5,68.5 C 417.089,70.914 415.089,72.5806 412.5,73.5C 413.911,71.086 415.911,69.4194 418.5,68.5 Z"/></g>
<g><path style="opacity:1" fill="#ebac91" d="M 411.5,74.5 C 409.761,77.2427 407.427,79.2427 404.5,80.5C 406.239,77.7573 408.573,75.7573 411.5,74.5 Z"/></g>
<g><path style="opacity:1" fill="#ebac91" d="M 404.5,80.5 C 402.761,83.2427 400.427,85.2427 397.5,86.5C 399.239,83.7573 401.573,81.7573 404.5,80.5 Z"/></g>
<g><path style="opacity:1" fill="#eaac91" d="M 397.5,86.5 C 396.089,88.914 394.089,90.5806 391.5,91.5C 392.911,89.086 394.911,87.4194 397.5,86.5 Z"/></g>
<g><path style="opacity:1" fill="#eaa98e" d="M 390.5,92.5 C 389.415,94.5869 387.749,95.9202 385.5,96.5C 386.585,94.4131 388.251,93.0798 390.5,92.5 Z"/></g>
<g><path style="opacity:1" fill="#eaa88c" d="M 384.5,97.5 C 383.089,99.914 381.089,101.581 378.5,102.5C 379.911,100.086 381.911,98.4194 384.5,97.5 Z"/></g>
<g><path style="opacity:1" fill="#eaac91" d="M 378.5,102.5 C 377.089,104.914 375.089,106.581 372.5,107.5C 373.911,105.086 375.911,103.419 378.5,102.5 Z"/></g>
<g><path style="opacity:1" fill="#ebac92" d="M 371.5,108.5 C 369.761,111.243 367.427,113.243 364.5,114.5C 366.239,111.757 368.573,109.757 371.5,108.5 Z"/></g>
<g><path style="opacity:1" fill="#eaa78c" d="M 362.5,116.5 C 359.769,120.234 356.436,123.234 352.5,125.5C 355.231,121.766 358.564,118.766 362.5,116.5 Z"/></g>
<g><path style="opacity:1" fill="#edc5b0" d="M 648.5,127.5 C 649.833,128.167 650.833,129.167 651.5,130.5C 649.5,130.5 648.5,129.5 648.5,127.5 Z"/></g>
<g><path style="opacity:1" fill="#ecb69e" d="M 350.5,127.5 C 344.5,134.167 338.167,140.5 331.5,146.5C 336.833,139.167 343.167,132.833 350.5,127.5 Z"/></g>
<g><path style="opacity:1" fill="#edc1ac" d="M 663.5,142.5 C 665.262,143.262 666.262,144.596 666.5,146.5C 664.738,145.738 663.738,144.404 663.5,142.5 Z"/></g>
<g><path style="opacity:1" fill="#edc0a9" d="M 322.5,155.5 C 322.573,157.027 321.906,158.027 320.5,158.5C 320.427,156.973 321.094,155.973 322.5,155.5 Z"/></g>
<g><path style="opacity:1" fill="#ecc1aa" d="M 675.5,155.5 C 676.906,155.973 677.573,156.973 677.5,158.5C 676.094,158.027 675.427,157.027 675.5,155.5 Z"/></g>
<g><path style="opacity:1" fill="#ecbaa3" d="M 317.5,161.5 C 317.573,163.027 316.906,164.027 315.5,164.5C 315.427,162.973 316.094,161.973 317.5,161.5 Z"/></g>
<g><path style="opacity:1" fill="#ecbba4" d="M 680.5,161.5 C 682.262,162.262 683.262,163.596 683.5,165.5C 681.738,164.738 680.738,163.404 680.5,161.5 Z"/></g>
<g><path style="opacity:1" fill="#ecb69e" d="M 313.5,166.5 C 313.573,168.027 312.906,169.027 311.5,169.5C 311.427,167.973 312.094,166.973 313.5,166.5 Z"/></g>
<g><path style="opacity:1" fill="#ecbaa2" d="M 685.5,167.5 C 686.906,167.973 687.573,168.973 687.5,170.5C 686.094,170.027 685.427,169.027 685.5,167.5 Z"/></g>
<g><path style="opacity:1" fill="#ecbea7" d="M 308.5,172.5 C 308.573,174.027 307.906,175.027 306.5,175.5C 306.427,173.973 307.094,172.973 308.5,172.5 Z"/></g>
<g><path style="opacity:1" fill="#ecbba3" d="M 689.5,172.5 C 690.906,172.973 691.573,173.973 691.5,175.5C 690.094,175.027 689.427,174.027 689.5,172.5 Z"/></g>
<g><path style="opacity:1" fill="#ecb59d" d="M 303.5,179.5 C 303.262,181.404 302.262,182.738 300.5,183.5C 300.738,181.596 301.738,180.262 303.5,179.5 Z"/></g>
<g><path style="opacity:1" fill="#ecbaa3" d="M 300.5,183.5 C 300.573,185.027 299.906,186.027 298.5,186.5C 298.427,184.973 299.094,183.973 300.5,183.5 Z"/></g>
<g><path style="opacity:1" fill="#ecb79f" d="M 298.5,186.5 C 298.573,188.027 297.906,189.027 296.5,189.5C 296.427,187.973 297.094,186.973 298.5,186.5 Z"/></g>
<g><path style="opacity:1" fill="#ecb89f" d="M 699.5,186.5 C 700.906,186.973 701.573,187.973 701.5,189.5C 700.094,189.027 699.427,188.027 699.5,186.5 Z"/></g>
<g><path style="opacity:1" fill="#ecbaa3" d="M 296.5,189.5 C 296.573,191.027 295.906,192.027 294.5,192.5C 294.427,190.973 295.094,189.973 296.5,189.5 Z"/></g>
<g><path style="opacity:1" fill="#ecb69d" d="M 701.5,189.5 C 702.906,189.973 703.573,190.973 703.5,192.5C 702.094,192.027 701.427,191.027 701.5,189.5 Z"/></g>
<g><path style="opacity:1" fill="#ecbfa8" d="M 294.5,192.5 C 294.573,194.027 293.906,195.027 292.5,195.5C 292.427,193.973 293.094,192.973 294.5,192.5 Z"/></g>
<g><path style="opacity:1" fill="#ecbea8" d="M 703.5,192.5 C 704.906,192.973 705.573,193.973 705.5,195.5C 704.094,195.027 703.427,194.027 703.5,192.5 Z"/></g>
<g><path style="opacity:1" fill="#ecbba3" d="M 291.5,197.5 C 291.573,199.027 290.906,200.027 289.5,200.5C 289.427,198.973 290.094,197.973 291.5,197.5 Z"/></g>
<g><path style="opacity:1" fill="#ecc2ac" d="M 288.5,202.5 C 288.573,204.027 287.906,205.027 286.5,205.5C 286.427,203.973 287.094,202.973 288.5,202.5 Z"/></g>
<g><path style="opacity:1" fill="#ecc1ab" d="M 709.5,202.5 C 710.906,202.973 711.573,203.973 711.5,205.5C 710.094,205.027 709.427,204.027 709.5,202.5 Z"/></g>
<g><path style="opacity:1" fill="#eaaa8f" d="M 273.5,236.5 C 273.59,239.152 272.924,241.485 271.5,243.5C 271.41,240.848 272.076,238.515 273.5,236.5 Z"/></g>
<g><path style="opacity:1" fill="#eaab90" d="M 724.5,236.5 C 725.924,238.515 726.59,240.848 726.5,243.5C 725.076,241.485 724.41,239.152 724.5,236.5 Z"/></g>
<g><path style="opacity:1" fill="#e68967" d="M 175.5,360.5 C 175.821,362.048 176.821,362.715 178.5,362.5C 182.966,364.566 187.299,366.9 191.5,369.5C 191.821,371.048 192.821,371.715 194.5,371.5C 198.5,373.833 202.5,376.167 206.5,378.5C 206.821,380.048 207.821,380.715 209.5,380.5C 211.332,381.248 212.999,382.248 214.5,383.5C 214.821,385.048 215.821,385.715 217.5,385.5C 252.037,407.12 284.037,432.12 313.5,460.5C 313.5,462.5 314.5,463.5 316.5,463.5C 320.167,466.5 323.5,469.833 326.5,473.5C 327.419,476.089 329.086,478.089 331.5,479.5C 334.833,482.167 337.833,485.167 340.5,488.5C 341.08,490.749 342.413,492.415 344.5,493.5C 346.5,494.833 348.167,496.5 349.5,498.5C 349.738,500.404 350.738,501.738 352.5,502.5C 356.212,505.211 359.212,508.544 361.5,512.5C 361.738,514.404 362.738,515.738 364.5,516.5C 365.833,517.167 366.833,518.167 367.5,519.5C 367.427,521.027 368.094,522.027 369.5,522.5C 370.5,522.833 371.167,523.5 371.5,524.5C 371.427,526.027 372.094,527.027 373.5,527.5C 374.5,527.833 375.167,528.5 375.5,529.5C 375.427,531.027 376.094,532.027 377.5,532.5C 378.5,532.833 379.167,533.5 379.5,534.5C 379.427,536.027 380.094,537.027 381.5,537.5C 385.262,540.929 388.262,544.929 390.5,549.5C 390.738,551.404 391.738,552.738 393.5,553.5C 393.427,555.027 394.094,556.027 395.5,556.5C 397.262,557.262 398.262,558.596 398.5,560.5C 398.427,562.027 399.094,563.027 400.5,563.5C 401.974,564.436 402.974,565.77 403.5,567.5C 403.427,569.027 404.094,570.027 405.5,570.5C 408.996,574.819 411.996,579.485 414.5,584.5C 414.427,586.027 415.094,587.027 416.5,587.5C 416.427,589.027 417.094,590.027 418.5,590.5C 419.338,590.842 419.672,591.508 419.5,592.5C 419.427,594.027 420.094,595.027 421.5,595.5C 422.338,595.842 422.672,596.508 422.5,597.5C 422.427,599.027 423.094,600.027 424.5,600.5C 425.338,600.842 425.672,601.508 425.5,602.5C 425.427,604.027 426.094,605.027 427.5,605.5C 443.336,631.513 455.669,659.18 464.5,688.5C 464.41,691.152 465.076,693.485 466.5,695.5C 473.805,717.629 475.639,740.296 472,763.5C 467.66,781.838 456.827,794.671 439.5,802C 423.934,808.208 407.934,812.042 391.5,813.5C 379.833,813.5 368.167,813.5 356.5,813.5C 341.303,812.023 326.303,809.356 311.5,805.5C 309.485,804.076 307.152,803.41 304.5,803.5C 302.485,802.076 300.152,801.41 297.5,801.5C 280.013,796.587 263.679,789.254 248.5,779.5C 248.027,778.094 247.027,777.427 245.5,777.5C 245.027,776.094 244.027,775.427 242.5,775.5C 240.147,774.66 238.147,773.326 236.5,771.5C 236.027,770.094 235.027,769.427 233.5,769.5C 231.596,769.262 230.262,768.262 229.5,766.5C 229.027,765.094 228.027,764.427 226.5,764.5C 224.091,763.299 222.091,761.633 220.5,759.5C 220.027,758.094 219.027,757.427 217.5,757.5C 216.167,756.833 215.167,755.833 214.5,754.5C 214.027,753.094 213.027,752.427 211.5,752.5C 208.833,750.5 206.5,748.167 204.5,745.5C 201.769,741.766 198.436,738.766 194.5,736.5C 194.5,735.167 193.833,734.5 192.5,734.5C 185.124,726.459 178.124,718.126 171.5,709.5C 171.446,707.368 170.446,706.035 168.5,705.5C 160.107,695.061 152.44,684.061 145.5,672.5C 145.715,670.821 145.048,669.821 143.5,669.5C 143.167,668.833 142.833,668.167 142.5,667.5C 142.715,665.821 142.048,664.821 140.5,664.5C 140.167,663.833 139.833,663.167 139.5,662.5C 139.715,660.821 139.048,659.821 137.5,659.5C 116.724,622.945 98.8909,584.945 84,545.5C 55.9693,464.408 28.1359,383.241 0.5,302C 1.09809,300.699 2.09809,299.865 3.5,299.5C 31.697,302.216 59.0304,308.716 85.5,319C 116.453,330.815 146.453,344.649 175.5,360.5 Z"/></g>
<g><path style="opacity:1" fill="#e68967" d="M 642.5,813.5 C 630.5,813.5 618.5,813.5 606.5,813.5C 586.222,811.76 566.889,806.26 548.5,797C 543.998,793.664 539.998,789.831 536.5,785.5C 536.446,783.368 535.446,782.035 533.5,781.5C 531.17,778.173 529.337,774.507 528,770.5C 521.925,745.092 523.092,720.092 531.5,695.5C 532.924,693.485 533.59,691.152 533.5,688.5C 544.028,653.45 559.362,620.783 579.5,590.5C 580.906,590.027 581.573,589.027 581.5,587.5C 582.906,587.027 583.573,586.027 583.5,584.5C 584.906,584.027 585.573,583.027 585.5,581.5C 586.906,581.027 587.573,580.027 587.5,578.5C 588.11,576.566 589.11,574.899 590.5,573.5C 591.906,573.027 592.573,572.027 592.5,570.5C 592.738,568.596 593.738,567.262 595.5,566.5C 596.906,566.027 597.573,565.027 597.5,563.5C 598.786,560.883 600.453,558.55 602.5,556.5C 603.906,556.027 604.573,555.027 604.5,553.5C 608.016,547.8 612.016,542.467 616.5,537.5C 617.906,537.027 618.573,536.027 618.5,534.5C 618.833,533.5 619.5,532.833 620.5,532.5C 621.906,532.027 622.573,531.027 622.5,529.5C 622.833,528.5 623.5,527.833 624.5,527.5C 625.906,527.027 626.573,526.027 626.5,524.5C 626.833,523.5 627.5,522.833 628.5,522.5C 630.262,521.738 631.262,520.404 631.5,518.5C 631.833,517.5 632.5,516.833 633.5,516.5C 635.262,515.738 636.262,514.404 636.5,512.5C 638.788,508.544 641.788,505.211 645.5,502.5C 647.262,501.738 648.262,500.404 648.5,498.5C 649.833,496.5 651.5,494.833 653.5,493.5C 655.587,492.415 656.92,490.749 657.5,488.5C 660.167,485.167 663.167,482.167 666.5,479.5C 669.903,477.1 672.57,474.1 674.5,470.5C 674.833,469.5 675.5,468.833 676.5,468.5C 682.442,464.227 687.776,459.227 692.5,453.5C 692.5,452.833 692.833,452.5 693.5,452.5C 697.1,450.57 700.1,447.903 702.5,444.5C 702.5,443.833 702.833,443.5 703.5,443.5C 706.427,442.243 708.761,440.243 710.5,437.5C 710.5,436.833 710.833,436.5 711.5,436.5C 714.089,435.581 716.089,433.914 717.5,431.5C 719.749,430.92 721.415,429.587 722.5,427.5C 724.749,426.92 726.415,425.587 727.5,423.5C 729.8,421.016 732.467,419.016 735.5,417.5C 737.749,416.92 739.415,415.587 740.5,413.5C 742.404,413.262 743.738,412.262 744.5,410.5C 747.597,407.112 751.264,404.445 755.5,402.5C 757.027,402.573 758.027,401.906 758.5,400.5C 760.027,400.573 761.027,399.906 761.5,398.5C 767.148,394.007 773.148,390.007 779.5,386.5C 781.027,386.573 782.027,385.906 782.5,384.5C 785.494,382 788.827,380 792.5,378.5C 794.027,378.573 795.027,377.906 795.5,376.5C 799.164,373.665 803.164,371.332 807.5,369.5C 809.027,369.573 810.027,368.906 810.5,367.5C 815.016,364.073 820.016,361.407 825.5,359.5C 827.027,359.573 828.027,358.906 828.5,357.5C 861.934,338.953 896.934,323.953 933.5,312.5C 937.162,312.277 940.495,311.277 943.5,309.5C 946.152,309.59 948.485,308.924 950.5,307.5C 965.815,302.455 981.482,300.122 997.5,300.5C 975.778,362.499 954.945,424.832 935,487.5C 917.71,539.704 896.71,590.37 872,639.5C 852.204,677.629 827.371,712.129 797.5,743C 754.308,784.926 702.641,808.426 642.5,813.5 Z"/></g>
<g><path style="opacity:1" fill="#eaad92" d="M 950.5,307.5 C 948.485,308.924 946.152,309.59 943.5,309.5C 945.515,308.076 947.848,307.41 950.5,307.5 Z"/></g>
<g><path style="opacity:1" fill="#eaaa8f" d="M 943.5,309.5 C 940.495,311.277 937.162,312.277 933.5,312.5C 936.505,310.723 939.838,309.723 943.5,309.5 Z"/></g>
<g><path style="opacity:1" fill="#ecb69d" d="M 296.5,358.5 C 298.048,358.821 298.715,359.821 298.5,361.5C 297.599,360.71 296.932,359.71 296.5,358.5 Z"/></g>
<g><path style="opacity:1" fill="#ebb69e" d="M 828.5,357.5 C 828.027,358.906 827.027,359.573 825.5,359.5C 825.973,358.094 826.973,357.427 828.5,357.5 Z"/></g>
<g><path style="opacity:1" fill="#ecb59c" d="M 175.5,360.5 C 176.71,360.932 177.71,361.599 178.5,362.5C 176.821,362.715 175.821,362.048 175.5,360.5 Z"/></g>
<g><path style="opacity:1" fill="#ecb8a0" d="M 810.5,367.5 C 810.027,368.906 809.027,369.573 807.5,369.5C 807.973,368.094 808.973,367.427 810.5,367.5 Z"/></g>
<g><path style="opacity:1" fill="#edb89f" d="M 191.5,369.5 C 192.71,369.932 193.71,370.599 194.5,371.5C 192.821,371.715 191.821,371.048 191.5,369.5 Z"/></g>
<g><path style="opacity:1" fill="#ebb49c" d="M 795.5,376.5 C 795.027,377.906 794.027,378.573 792.5,378.5C 792.973,377.094 793.973,376.427 795.5,376.5 Z"/></g>
<g><path style="opacity:1" fill="#edb79f" d="M 206.5,378.5 C 207.71,378.932 208.71,379.599 209.5,380.5C 207.821,380.715 206.821,380.048 206.5,378.5 Z"/></g>
<g><path style="opacity:1" fill="#ecb89f" d="M 214.5,383.5 C 215.71,383.932 216.71,384.599 217.5,385.5C 215.821,385.715 214.821,385.048 214.5,383.5 Z"/></g>
<g><path style="opacity:1" fill="#ecb8a0" d="M 782.5,384.5 C 782.027,385.906 781.027,386.573 779.5,386.5C 779.973,385.094 780.973,384.427 782.5,384.5 Z"/></g>
<g><path style="opacity:1" fill="#ebb59c" d="M 761.5,398.5 C 761.027,399.906 760.027,400.573 758.5,400.5C 758.973,399.094 759.973,398.427 761.5,398.5 Z"/></g>
<g><path style="opacity:1" fill="#ecb9a1" d="M 758.5,400.5 C 758.027,401.906 757.027,402.573 755.5,402.5C 755.973,401.094 756.973,400.427 758.5,400.5 Z"/></g>
<g><path style="opacity:1" fill="#ebb59c" d="M 744.5,410.5 C 743.738,412.262 742.404,413.262 740.5,413.5C 741.262,411.738 742.596,410.738 744.5,410.5 Z"/></g>
<g><path style="opacity:1" fill="#edc2ad" d="M 343.5,416.5 C 345.749,417.08 347.415,418.413 348.5,420.5C 346.251,419.92 344.585,418.587 343.5,416.5 Z"/></g>
<g><path style="opacity:1" fill="#eaa88c" d="M 740.5,413.5 C 739.415,415.587 737.749,416.92 735.5,417.5C 736.585,415.413 738.251,414.08 740.5,413.5 Z"/></g>
<g><path style="opacity:1" fill="#eaab8f" d="M 727.5,423.5 C 726.415,425.587 724.749,426.92 722.5,427.5C 723.585,425.413 725.251,424.08 727.5,423.5 Z"/></g>
<g><path style="opacity:1" fill="#eaac91" d="M 722.5,427.5 C 721.415,429.587 719.749,430.92 717.5,431.5C 718.585,429.413 720.251,428.08 722.5,427.5 Z"/></g>
<g><path style="opacity:1" fill="#ebae93" d="M 717.5,431.5 C 716.089,433.914 714.089,435.581 711.5,436.5C 712.911,434.086 714.911,432.419 717.5,431.5 Z"/></g>
<g><path style="opacity:1" fill="#edc7b2" d="M 363.5,436.5 C 365.5,436.5 366.5,437.5 366.5,439.5C 365.167,438.833 364.167,437.833 363.5,436.5 Z"/></g>
<g><path style="opacity:1" fill="#eaaa8f" d="M 710.5,437.5 C 708.761,440.243 706.427,442.243 703.5,443.5C 705.239,440.757 707.573,438.757 710.5,437.5 Z"/></g>
<g><path style="opacity:1" fill="#eaa588" d="M 702.5,444.5 C 700.1,447.903 697.1,450.57 693.5,452.5C 695.9,449.097 698.9,446.43 702.5,444.5 Z"/></g>
<g><path style="opacity:1" fill="#ebb399" d="M 692.5,453.5 C 687.776,459.227 682.442,464.227 676.5,468.5C 681.224,462.773 686.558,457.773 692.5,453.5 Z"/></g>
<g><path style="opacity:1" fill="#edc6b1" d="M 313.5,460.5 C 314.833,461.167 315.833,462.167 316.5,463.5C 314.5,463.5 313.5,462.5 313.5,460.5 Z"/></g>
<g><path style="opacity:1" fill="#edc2ac" d="M 326.5,473.5 C 328.914,474.911 330.581,476.911 331.5,479.5C 329.086,478.089 327.419,476.089 326.5,473.5 Z"/></g>
<g><path style="opacity:1" fill="#ecbaa3" d="M 674.5,470.5 C 672.57,474.1 669.903,477.1 666.5,479.5C 668.43,475.9 671.097,472.9 674.5,470.5 Z"/></g>
<g><path style="opacity:1" fill="#edbea8" d="M 340.5,488.5 C 342.587,489.585 343.92,491.251 344.5,493.5C 342.413,492.415 341.08,490.749 340.5,488.5 Z"/></g>
<g><path style="opacity:1" fill="#ecbca5" d="M 657.5,488.5 C 656.92,490.749 655.587,492.415 653.5,493.5C 654.08,491.251 655.413,489.585 657.5,488.5 Z"/></g>
<g><path style="opacity:1" fill="#edbda6" d="M 349.5,498.5 C 351.262,499.262 352.262,500.596 352.5,502.5C 350.738,501.738 349.738,500.404 349.5,498.5 Z"/></g>
<g><path style="opacity:1" fill="#ecb9a1" d="M 648.5,498.5 C 648.262,500.404 647.262,501.738 645.5,502.5C 645.738,500.596 646.738,499.262 648.5,498.5 Z"/></g>
<g><path style="opacity:1" fill="#ecb9a1" d="M 361.5,512.5 C 363.262,513.262 364.262,514.596 364.5,516.5C 362.738,515.738 361.738,514.404 361.5,512.5 Z"/></g>
<g><path style="opacity:1" fill="#ecb69e" d="M 636.5,512.5 C 636.262,514.404 635.262,515.738 633.5,516.5C 633.738,514.596 634.738,513.262 636.5,512.5 Z"/></g>
<g><path style="opacity:1" fill="#ecb79f" d="M 631.5,518.5 C 631.262,520.404 630.262,521.738 628.5,522.5C 628.738,520.596 629.738,519.262 631.5,518.5 Z"/></g>
<g><path style="opacity:1" fill="#ecbea7" d="M 367.5,519.5 C 368.906,519.973 369.573,520.973 369.5,522.5C 368.094,522.027 367.427,521.027 367.5,519.5 Z"/></g>
<g><path style="opacity:1" fill="#ecbba4" d="M 371.5,524.5 C 372.906,524.973 373.573,525.973 373.5,527.5C 372.094,527.027 371.427,526.027 371.5,524.5 Z"/></g>
<g><path style="opacity:1" fill="#ecbda6" d="M 626.5,524.5 C 626.573,526.027 625.906,527.027 624.5,527.5C 624.427,525.973 625.094,524.973 626.5,524.5 Z"/></g>
<g><path style="opacity:1" fill="#ecb9a1" d="M 375.5,529.5 C 376.906,529.973 377.573,530.973 377.5,532.5C 376.094,532.027 375.427,531.027 375.5,529.5 Z"/></g>
<g><path style="opacity:1" fill="#ecbda6" d="M 622.5,529.5 C 622.573,531.027 621.906,532.027 620.5,532.5C 620.427,530.973 621.094,529.973 622.5,529.5 Z"/></g>
<g><path style="opacity:1" fill="#ecc1ab" d="M 379.5,534.5 C 380.906,534.973 381.573,535.973 381.5,537.5C 380.094,537.027 379.427,536.027 379.5,534.5 Z"/></g>
<g><path style="opacity:1" fill="#ecc0aa" d="M 618.5,534.5 C 618.573,536.027 617.906,537.027 616.5,537.5C 616.427,535.973 617.094,534.973 618.5,534.5 Z"/></g>
<g><path style="opacity:1" fill="#ecb59c" d="M 390.5,549.5 C 392.262,550.262 393.262,551.596 393.5,553.5C 391.738,552.738 390.738,551.404 390.5,549.5 Z"/></g>
<g><path style="opacity:1" fill="#ecb79f" d="M 458.5,550.5 C 460.446,551.035 461.446,552.368 461.5,554.5C 460.026,553.564 459.026,552.23 458.5,550.5 Z"/></g>
<g><path style="opacity:1" fill="#ebb49b" d="M 393.5,553.5 C 394.906,553.973 395.573,554.973 395.5,556.5C 394.094,556.027 393.427,555.027 393.5,553.5 Z"/></g>
<g><path style="opacity:1" fill="#ecb8a0" d="M 604.5,553.5 C 604.573,555.027 603.906,556.027 602.5,556.5C 602.427,554.973 603.094,553.973 604.5,553.5 Z"/></g>
<g><path style="opacity:1" fill="#ecb89f" d="M 462.5,556.5 C 464.048,556.821 464.715,557.821 464.5,559.5C 463.599,558.71 462.932,557.71 462.5,556.5 Z"/></g>
<g><path style="opacity:1" fill="#ecb59c" d="M 464.5,559.5 C 466.048,559.821 466.715,560.821 466.5,562.5C 465.599,561.71 464.932,560.71 464.5,559.5 Z"/></g>
<g><path style="opacity:1" fill="#ecb8a0" d="M 398.5,560.5 C 399.906,560.973 400.573,561.973 400.5,563.5C 399.094,563.027 398.427,562.027 398.5,560.5 Z"/></g>
<g><path style="opacity:1" fill="#ebb59c" d="M 597.5,563.5 C 597.573,565.027 596.906,566.027 595.5,566.5C 595.427,564.973 596.094,563.973 597.5,563.5 Z"/></g>
<g><path style="opacity:1" fill="#edbaa1" d="M 469.5,567.5 C 471.048,567.821 471.715,568.821 471.5,570.5C 470.599,569.71 469.932,568.71 469.5,567.5 Z"/></g>
<g><path style="opacity:1" fill="#ecc3ad" d="M 403.5,567.5 C 404.906,567.973 405.573,568.973 405.5,570.5C 404.094,570.027 403.427,569.027 403.5,567.5 Z"/></g>
<g><path style="opacity:1" fill="#edb9a0" d="M 472.5,572.5 C 474.048,572.821 474.715,573.821 474.5,575.5C 473.599,574.71 472.932,573.71 472.5,572.5 Z"/></g>
<g><path style="opacity:1" fill="#edc3ad" d="M 592.5,570.5 C 592.573,572.027 591.906,573.027 590.5,573.5C 590.427,571.973 591.094,570.973 592.5,570.5 Z"/></g>
<g><path style="opacity:1" fill="#edb8a0" d="M 475.5,577.5 C 477.048,577.821 477.715,578.821 477.5,580.5C 476.599,579.71 475.932,578.71 475.5,577.5 Z"/></g>
<g><path style="opacity:1" fill="#ebb59c" d="M 587.5,578.5 C 587.573,580.027 586.906,581.027 585.5,581.5C 585.427,579.973 586.094,578.973 587.5,578.5 Z"/></g>
<g><path style="opacity:1" fill="#edb69d" d="M 478.5,582.5 C 480.048,582.821 480.715,583.821 480.5,585.5C 479.599,584.71 478.932,583.71 478.5,582.5 Z"/></g>
<g><path style="opacity:1" fill="#ecb8a1" d="M 585.5,581.5 C 585.573,583.027 584.906,584.027 583.5,584.5C 583.427,582.973 584.094,581.973 585.5,581.5 Z"/></g>
<g><path style="opacity:1" fill="#ecb59d" d="M 414.5,584.5 C 415.906,584.973 416.573,585.973 416.5,587.5C 415.094,587.027 414.427,586.027 414.5,584.5 Z"/></g>
<g><path style="opacity:1" fill="#ecbca4" d="M 583.5,584.5 C 583.573,586.027 582.906,587.027 581.5,587.5C 581.427,585.973 582.094,584.973 583.5,584.5 Z"/></g>
<g><path style="opacity:1" fill="#ecbea7" d="M 416.5,587.5 C 417.906,587.973 418.573,588.973 418.5,590.5C 417.094,590.027 416.427,589.027 416.5,587.5 Z"/></g>
<g><path style="opacity:1" fill="#ecbfa9" d="M 581.5,587.5 C 581.573,589.027 580.906,590.027 579.5,590.5C 579.427,588.973 580.094,587.973 581.5,587.5 Z"/></g>
<g><path style="opacity:1" fill="#ecbda7" d="M 419.5,592.5 C 420.906,592.973 421.573,593.973 421.5,595.5C 420.094,595.027 419.427,594.027 419.5,592.5 Z"/></g>
<g><path style="opacity:1" fill="#ecbfa9" d="M 422.5,597.5 C 423.906,597.973 424.573,598.973 424.5,600.5C 423.094,600.027 422.427,599.027 422.5,597.5 Z"/></g>
<g><path style="opacity:1" fill="#edc2ac" d="M 425.5,602.5 C 426.906,602.973 427.573,603.973 427.5,605.5C 426.094,605.027 425.427,604.027 425.5,602.5 Z"/></g>
<g><path style="opacity:1" fill="#ecb59c" d="M 137.5,659.5 C 139.048,659.821 139.715,660.821 139.5,662.5C 138.599,661.71 137.932,660.71 137.5,659.5 Z"/></g>
<g><path style="opacity:1" fill="#ecb79e" d="M 140.5,664.5 C 142.048,664.821 142.715,665.821 142.5,667.5C 141.599,666.71 140.932,665.71 140.5,664.5 Z"/></g>
<g><path style="opacity:1" fill="#edb89f" d="M 143.5,669.5 C 145.048,669.821 145.715,670.821 145.5,672.5C 144.599,671.71 143.932,670.71 143.5,669.5 Z"/></g>
<g><path style="opacity:1" fill="#ebb096" d="M 464.5,688.5 C 465.924,690.515 466.59,692.848 466.5,695.5C 465.076,693.485 464.41,691.152 464.5,688.5 Z"/></g>
<g><path style="opacity:1" fill="#ebb298" d="M 533.5,688.5 C 533.59,691.152 532.924,693.485 531.5,695.5C 531.41,692.848 532.076,690.515 533.5,688.5 Z"/></g>
<g><path style="opacity:1" fill="#edb79e" d="M 168.5,705.5 C 170.446,706.035 171.446,707.368 171.5,709.5C 170.026,708.564 169.026,707.23 168.5,705.5 Z"/></g>
<g><path style="opacity:1" fill="#edc7b3" d="M 192.5,734.5 C 193.833,734.5 194.5,735.167 194.5,736.5C 193.5,736.167 192.833,735.5 192.5,734.5 Z"/></g>
<g><path style="opacity:1" fill="#edc3ae" d="M 194.5,736.5 C 198.436,738.766 201.769,741.766 204.5,745.5C 200.564,743.234 197.231,740.234 194.5,736.5 Z"/></g>
<g><path style="opacity:1" fill="#ecbca6" d="M 211.5,752.5 C 213.027,752.427 214.027,753.094 214.5,754.5C 212.973,754.573 211.973,753.906 211.5,752.5 Z"/></g>
<g><path style="opacity:1" fill="#edc0aa" d="M 217.5,757.5 C 219.027,757.427 220.027,758.094 220.5,759.5C 218.973,759.573 217.973,758.906 217.5,757.5 Z"/></g>
<g><path style="opacity:1" fill="#ecb9a2" d="M 226.5,764.5 C 228.027,764.427 229.027,765.094 229.5,766.5C 227.973,766.573 226.973,765.906 226.5,764.5 Z"/></g>
<g><path style="opacity:1" fill="#ebb59d" d="M 233.5,769.5 C 235.027,769.427 236.027,770.094 236.5,771.5C 234.973,771.573 233.973,770.906 233.5,769.5 Z"/></g>
<g><path style="opacity:1" fill="#ecb8a0" d="M 242.5,775.5 C 244.027,775.427 245.027,776.094 245.5,777.5C 243.973,777.573 242.973,776.906 242.5,775.5 Z"/></g>
<g><path style="opacity:1" fill="#edc2ad" d="M 245.5,777.5 C 247.027,777.427 248.027,778.094 248.5,779.5C 246.973,779.573 245.973,778.906 245.5,777.5 Z"/></g>
<g><path style="opacity:1" fill="#ecb69d" d="M 533.5,781.5 C 535.446,782.035 536.446,783.368 536.5,785.5C 535.026,784.564 534.026,783.23 533.5,781.5 Z"/></g>
<g><path style="opacity:1" fill="#ebae94" d="M 297.5,801.5 C 300.152,801.41 302.485,802.076 304.5,803.5C 301.848,803.59 299.515,802.924 297.5,801.5 Z"/></g>
<g><path style="opacity:1" fill="#ebb096" d="M 304.5,803.5 C 307.152,803.41 309.485,804.076 311.5,805.5C 308.848,805.59 306.515,804.924 304.5,803.5 Z"/></g>
</svg>
