<?xml version="1.0" encoding="UTF-8"?>
<!DOCTYPE svg PUBLIC "-//W3C//DTD SVG 1.1//EN" "http://www.w3.org/Graphics/SVG/1.1/DTD/svg11.dtd">
<svg xmlns="http://www.w3.org/2000/svg" version="1.1" width="999px" height="814px" style="shape-rendering:geometricPrecision; text-rendering:geometricPrecision; image-rendering:optimizeQuality; fill-rule:evenodd; clip-rule:evenodd" xmlns:xlink="http://www.w3.org/1999/xlink">
<g><path style="opacity:1" fill="#72806a" d="M 498.5,-0.5 C 498.833,-0.5 499.167,-0.5 499.5,-0.5C 527.152,20.9706 553.819,43.804 579.5,68C 609.521,92.0132 638.355,117.513 666,144.5C 687.016,166.194 704.349,190.528 718,217.5C 736.588,260.608 734.254,302.608 711,343.5C 698.548,363.952 684.548,383.285 669,401.5C 648.328,421.506 628.328,442.172 609,463.5C 590.667,485.833 572.333,508.167 554,530.5C 532.13,558.882 513.797,589.548 499,622.5C 483.7,589.879 465.366,559.213 444,530.5C 408.698,484.971 370.364,441.971 329,401.5C 313.452,383.285 299.452,363.952 287,343.5C 261.001,296.846 261.001,250.179 287,203.5C 309.396,167.756 336.896,136.256 369.5,109C 405.091,79.4135 440.091,49.0802 474.5,18C 482.115,11.2042 490.115,5.03754 498.5,-0.5 Z"/></g>
<g><path style="opacity:1" fill="#72806a" d="M 391.5,813.5 C 379.833,813.5 368.167,813.5 356.5,813.5C 286.546,807.274 228.712,777.607 183,724.5C 151.799,686.138 126.132,644.138 106,598.5C 93.3543,569.564 81.6876,540.231 71,510.5C 51.469,452.24 32.1357,393.907 13,335.5C 8.83333,324.333 4.66667,313.167 0.5,302C 1.09809,300.699 2.09809,299.865 3.5,299.5C 34.5165,302.78 64.5165,310.28 93.5,322C 190.101,359.52 273.601,416.02 344,491.5C 385.248,536.634 419.582,586.634 447,641.5C 458.332,665.83 466.665,691.163 472,717.5C 476.204,737.252 474.87,756.585 468,775.5C 461.746,787.752 452.246,796.585 439.5,802C 423.934,808.208 407.934,812.042 391.5,813.5 Z"/></g>
<g><path style="opacity:1" fill="#72806a" d="M 642.5,813.5 C 630.5,813.5 618.5,813.5 606.5,813.5C 590.874,811.93 575.541,808.43 560.5,803C 534.444,791.255 522.111,770.922 523.5,742C 526.148,706.723 535.314,673.223 551,641.5C 635.241,478.28 764.741,367.78 939.5,310C 958.506,303.665 977.84,300.498 997.5,300.5C 975.778,362.499 954.945,424.832 935,487.5C 917.71,539.704 896.71,590.37 872,639.5C 852.204,677.629 827.371,712.129 797.5,743C 754.308,784.926 702.641,808.426 642.5,813.5 Z"/></g>
</svg>
