<svg xmlns="http://www.w3.org/2000/svg" xmlns:v="https://svgstorm.com"
viewBox = "0 0 999 814"
width="999"
height="814">
<g fill="None" fill-opacity="0.0" stroke="#000000" stroke-opacity="0.00" stroke-width="0.3"><path d="
M 0.00 814.00 
L 357.00 814.00
C 347.03 812.84 334.90 810.99 324.93 809.07 C 314.96 807.16 304.56 804.95 295.32 801.68 C 286.08 798.40 277.37 795.46 268.92 791.08 C 260.48 786.70 252.02 782.70 244.30 777.70 C 236.59 772.69 229.83 767.80 222.77 762.23 C 215.71 756.67 209.44 751.19 202.77 745.23 C 196.10 739.27 190.42 732.18 184.25 725.75 C 178.08 719.32 173.63 712.02 167.75 705.25 C 161.88 698.48 157.97 690.64 152.70 683.30 C 147.43 675.97 142.47 667.87 138.08 659.92 C 133.69 651.98 128.72 644.55 124.70 636.31 C 120.67 628.06 116.22 620.23 112.23 611.77 C 108.24 603.31 104.76 593.88 100.69 585.31 C 96.62 576.73 93.57 567.84 90.02 558.98 C 86.48 550.12 82.74 541.48 79.68 532.32 C 76.62 523.16 72.19 514.06 69.22 504.78 C 66.25 495.49 63.35 486.17 60.02 476.98 C 56.70 467.78 53.69 458.74 50.68 449.32 C 47.66 439.91 44.49 430.20 41.22 420.78 C 37.95 411.35 35.70 402.21 32.22 392.78 C 28.75 383.34 26.96 374.52 23.07 364.93 C 19.19 355.33 18.11 346.34 13.68 336.32 C 9.24 326.31 9.34 320.37 3.68 309.32 C -1.99 298.27 13.92 299.82 24.00 302.00 C 34.08 304.18 44.98 306.56 54.67 309.33 C 64.37 312.09 73.39 315.19 82.68 318.32 C 91.97 321.46 100.32 325.20 109.22 328.78 C 118.13 332.35 127.05 336.54 135.69 340.31 C 144.34 344.08 151.78 348.95 160.23 352.77 C 168.68 356.59 176.18 361.40 184.23 365.77 C 192.28 370.14 200.49 375.02 208.23 379.77 C 215.97 384.52 223.30 389.20 230.75 394.25 C 238.19 399.30 245.42 404.12 252.70 409.30 C 259.98 414.48 267.09 420.53 274.25 425.75 C 281.40 430.97 287.22 437.46 294.25 442.75 C 301.27 448.04 306.46 455.06 313.25 460.75 C 320.03 466.45 326.66 472.87 332.30 479.70 C 337.95 486.53 344.80 491.86 350.25 498.75 C 355.70 505.65 361.76 511.80 367.25 518.75 C 372.74 525.71 378.91 532.62 384.25 539.75 C 389.59 546.88 394.64 553.88 399.77 561.23 C 404.90 568.58 409.61 575.72 414.75 583.25 C 419.90 590.77 424.18 599.18 428.92 607.08 C 433.66 614.98 437.86 622.63 441.92 631.08 C 445.99 639.52 450.20 647.31 453.77 656.23 C 457.34 665.15 460.97 674.64 463.93 684.07 C 466.88 693.50 469.98 703.23 471.78 713.22 C 473.58 723.22 475.27 736.61 475.00 747.00 C 474.73 757.39 471.71 768.54 467.69 777.69 C 463.68 786.85 457.81 791.34 449.92 796.92 C 442.03 802.50 433.38 804.97 423.98 807.98 C 414.57 810.99 401.62 812.43 392.00 814.00
L 607.00 814.00
C 574.11 812.36 531.77 798.13 526.02 760.98 C 520.27 723.83 533.48 684.07 546.98 651.98 C 560.47 619.88 577.18 594.37 595.75 566.75 C 614.32 539.13 632.73 516.39 654.77 491.77 C 676.81 467.15 698.30 447.13 723.75 426.75 C 749.19 406.37 774.66 388.85 803.23 372.23 C 831.80 355.61 861.08 340.14 892.68 327.68 C 924.27 315.21 962.73 299.98 998.00 301.00
C 961.36 404.70 928.92 520.42 882.70 619.69 C 836.47 718.97 756.66 806.92 643.00 814.00
L 999.00 814.00
L 999.00 0.00
L 500.00 0.00
C 529.43 22.14 555.48 46.59 583.75 71.25 C 612.02 95.91 638.69 116.13 665.75 144.25 C 692.81 172.37 713.21 201.19 725.98 239.02 C 738.74 276.86 724.22 328.22 701.70 359.70 C 679.17 391.17 656.96 415.98 629.75 442.75 C 602.54 469.52 582.13 497.35 558.25 526.25 C 534.37 555.15 515.64 589.22 500.00 623.00
C 482.97 590.28 465.16 555.79 441.08 526.92 C 417.01 498.04 397.17 470.13 369.75 443.25 C 342.33 416.36 320.28 391.63 297.70 360.30 C 275.11 328.97 260.20 277.73 272.78 239.78 C 285.36 201.83 305.78 172.97 332.77 144.77 C 359.76 116.57 386.43 96.46 414.75 71.75 C 443.08 47.04 469.53 22.18 499.00 0.00
L 0.00 0.00
L 0.00 814.00 Z"/>
</g>
<g fill="None" fill-opacity="0.0" stroke="#FFFFFF" stroke-opacity="1.00" stroke-width="0.3"><path d="
M 500.00 0.00 
L 499.00 0.00
C 469.53 22.18 443.08 47.04 414.75 71.75 C 386.43 96.46 359.76 116.57 332.77 144.77 C 305.78 172.97 285.36 201.83 272.78 239.78 C 260.20 277.73 275.11 328.97 297.70 360.30 C 320.28 391.63 342.33 416.36 369.75 443.25 C 397.17 470.13 417.01 498.04 441.08 526.92 C 465.16 555.79 482.97 590.28 500.00 623.00
C 515.64 589.22 534.37 555.15 558.25 526.25 C 582.13 497.35 602.54 469.52 629.75 442.75 C 656.96 415.98 679.17 391.17 701.70 359.70 C 724.22 328.22 738.74 276.86 725.98 239.02 C 713.21 201.19 692.81 172.37 665.75 144.25 C 638.69 116.13 612.02 95.91 583.75 71.25 C 555.48 46.59 529.43 22.14 500.00 0.00
M 500.00 53.00 
C 516.60 69.32 533.71 83.28 551.25 98.75 C 568.79 114.23 586.11 128.52 604.08 143.92 C 622.05 159.32 636.57 175.28 652.75 193.25 C 668.93 211.22 679.40 231.09 690.92 253.08 C 702.45 275.06 689.88 302.96 676.70 322.70 C 663.51 342.43 650.25 360.79 634.23 378.23 C 618.21 395.67 601.15 410.12 585.75 427.75 C 570.36 445.38 555.53 462.83 541.08 481.08 C 526.64 499.34 510.92 517.75 500.00 538.00
C 487.77 518.55 472.93 499.83 458.25 481.75 C 443.57 463.67 429.30 445.76 413.75 428.25 C 398.21 410.73 381.44 396.06 365.25 378.75 C 349.05 361.44 336.02 342.91 322.75 323.25 C 309.47 303.60 296.59 275.96 307.92 253.92 C 319.26 231.88 329.45 211.68 345.75 193.75 C 362.06 175.82 376.25 159.78 394.25 144.25 C 412.25 128.72 429.58 114.90 447.25 99.25 C 464.91 83.60 482.32 68.54 500.00 53.00 Z"/>
</g>
<g fill="None" fill-opacity="0.0" stroke="#FFFFFF" stroke-opacity="0.00" stroke-width="0.3"><path d="
M 500.00 53.00 
C 482.32 68.54 464.91 83.60 447.25 99.25 C 429.58 114.90 412.25 128.72 394.25 144.25 C 376.25 159.78 362.06 175.82 345.75 193.75 C 329.45 211.68 319.26 231.88 307.92 253.92 C 296.59 275.96 309.47 303.60 322.75 323.25 C 336.02 342.91 349.05 361.44 365.25 378.75 C 381.44 396.06 398.21 410.73 413.75 428.25 C 429.30 445.76 443.57 463.67 458.25 481.75 C 472.93 499.83 487.77 518.55 500.00 538.00
C 510.92 517.75 526.64 499.34 541.08 481.08 C 555.53 462.83 570.36 445.38 585.75 427.75 C 601.15 410.12 618.21 395.67 634.23 378.23 C 650.25 360.79 663.51 342.43 676.70 322.70 C 689.88 302.96 702.45 275.06 690.92 253.08 C 679.40 231.09 668.93 211.22 652.75 193.25 C 636.57 175.28 622.05 159.32 604.08 143.92 C 586.11 128.52 568.79 114.23 551.25 98.75 C 533.71 83.28 516.60 69.32 500.00 53.00 Z"/>
</g>
<g fill="None" fill-opacity="0.0" stroke="#FFFFFF" stroke-opacity="1.00" stroke-width="0.3"><path d="
M 357.00 814.00 
L 392.00 814.00
C 401.62 812.43 414.57 810.99 423.98 807.98 C 433.38 804.97 442.03 802.50 449.92 796.92 C 457.81 791.34 463.68 786.85 467.69 777.69 C 471.71 768.54 474.73 757.39 475.00 747.00 C 475.27 736.61 473.58 723.22 471.78 713.22 C 469.98 703.23 466.88 693.50 463.93 684.07 C 460.97 674.64 457.34 665.15 453.77 656.23 C 450.20 647.31 445.99 639.52 441.92 631.08 C 437.86 622.63 433.66 614.98 428.92 607.08 C 424.18 599.18 419.90 590.77 414.75 583.25 C 409.61 575.72 404.90 568.58 399.77 561.23 C 394.64 553.88 389.59 546.88 384.25 539.75 C 378.91 532.62 372.74 525.71 367.25 518.75 C 361.76 511.80 355.70 505.65 350.25 498.75 C 344.80 491.86 337.95 486.53 332.30 479.70 C 326.66 472.87 320.03 466.45 313.25 460.75 C 306.46 455.06 301.27 448.04 294.25 442.75 C 287.22 437.46 281.40 430.97 274.25 425.75 C 267.09 420.53 259.98 414.48 252.70 409.30 C 245.42 404.12 238.19 399.30 230.75 394.25 C 223.30 389.20 215.97 384.52 208.23 379.77 C 200.49 375.02 192.28 370.14 184.23 365.77 C 176.18 361.40 168.68 356.59 160.23 352.77 C 151.78 348.95 144.34 344.08 135.69 340.31 C 127.05 336.54 118.13 332.35 109.22 328.78 C 100.32 325.20 91.97 321.46 82.68 318.32 C 73.39 315.19 64.37 312.09 54.67 309.33 C 44.98 306.56 34.08 304.18 24.00 302.00 C 13.92 299.82 -1.99 298.27 3.68 309.32 C 9.34 320.37 9.24 326.31 13.68 336.32 C 18.11 346.34 19.19 355.33 23.07 364.93 C 26.96 374.52 28.75 383.34 32.22 392.78 C 35.70 402.21 37.95 411.35 41.22 420.78 C 44.49 430.20 47.66 439.91 50.68 449.32 C 53.69 458.74 56.70 467.78 60.02 476.98 C 63.35 486.17 66.25 495.49 69.22 504.78 C 72.19 514.06 76.62 523.16 79.68 532.32 C 82.74 541.48 86.48 550.12 90.02 558.98 C 93.57 567.84 96.62 576.73 100.69 585.31 C 104.76 593.88 108.24 603.31 112.23 611.77 C 116.22 620.23 120.67 628.06 124.70 636.31 C 128.72 644.55 133.69 651.98 138.08 659.92 C 142.47 667.87 147.43 675.97 152.70 683.30 C 157.97 690.64 161.88 698.48 167.75 705.25 C 173.63 712.02 178.08 719.32 184.25 725.75 C 190.42 732.18 196.10 739.27 202.77 745.23 C 209.44 751.19 215.71 756.67 222.77 762.23 C 229.83 767.80 236.59 772.69 244.30 777.70 C 252.02 782.70 260.48 786.70 268.92 791.08 C 277.37 795.46 286.08 798.40 295.32 801.68 C 304.56 804.95 314.96 807.16 324.93 809.07 C 334.90 810.99 347.03 812.84 357.00 814.00
M 58.00 350.00 
C 82.68 359.89 109.18 370.88 132.69 383.31 C 156.21 395.73 179.22 409.48 201.08 423.92 C 222.94 438.36 243.14 453.95 262.75 471.25 C 282.36 488.54 299.84 504.95 317.25 524.75 C 334.65 544.56 350.57 563.40 365.77 585.23 C 380.97 607.06 395.52 627.61 407.77 652.23 C 420.02 676.85 432.42 701.13 438.78 729.22 C 445.14 757.31 411.84 777.14 385.33 780.33 C 358.82 783.51 322.88 773.09 298.77 761.23 C 274.66 749.37 254.55 735.78 234.75 717.25 C 214.95 698.72 200.35 679.63 185.23 657.77 C 170.11 635.91 157.59 612.74 145.69 588.31 C 133.80 563.87 123.05 538.80 113.08 512.92 C 103.11 487.05 93.90 458.72 85.02 431.98 C 76.15 405.23 66.50 377.04 58.00 350.00 Z"/>
</g>
<g fill="None" fill-opacity="0.0" stroke="#FFFFFF" stroke-opacity="1.00" stroke-width="0.3"><path d="
M 607.00 814.00 
L 643.00 814.00
C 756.66 806.92 836.47 718.97 882.70 619.69 C 928.92 520.42 961.36 404.70 998.00 301.00
C 962.73 299.98 924.27 315.21 892.68 327.68 C 861.08 340.14 831.80 355.61 803.23 372.23 C 774.66 388.85 749.19 406.37 723.75 426.75 C 698.30 447.13 676.81 467.15 654.77 491.77 C 632.73 516.39 614.32 539.13 595.75 566.75 C 577.18 594.37 560.47 619.88 546.98 651.98 C 533.48 684.07 520.27 723.83 526.02 760.98 C 531.77 798.13 574.11 812.36 607.00 814.00
M 940.00 351.00 
C 934.74 370.55 927.85 390.42 921.68 409.68 C 915.51 428.94 908.65 448.22 902.22 467.22 C 895.80 486.23 888.48 505.85 881.22 524.22 C 873.97 542.60 866.59 560.72 858.22 578.22 C 849.86 595.73 841.17 613.24 831.69 629.70 C 822.22 646.15 812.05 660.76 800.75 675.75 C 789.45 690.74 778.14 703.96 764.25 717.25 C 750.35 730.54 736.32 739.81 720.30 750.30 C 704.28 760.79 685.06 767.46 666.93 773.93 C 648.79 780.39 619.22 784.19 601.93 777.07 C 584.63 769.96 562.33 762.92 559.08 742.92 C 555.82 722.93 570.22 702.17 575.98 683.98 C 581.73 665.78 593.37 649.54 601.92 632.92 C 610.48 616.31 622.65 601.23 632.77 585.77 C 642.89 570.31 655.12 557.06 666.75 542.75 C 678.39 528.44 690.25 515.72 703.25 502.25 C 716.25 488.78 729.53 476.56 743.75 464.75 C 757.97 452.93 771.96 441.91 787.25 431.25 C 802.53 420.58 818.76 410.56 835.08 401.08 C 851.39 391.59 867.67 382.20 885.08 374.08 C 902.48 365.95 921.60 356.80 940.00 351.00 Z"/>
</g>
<g fill="None" fill-opacity="0.0" stroke="#FFFFFF" stroke-opacity="0.00" stroke-width="0.3"><path d="
M 58.00 350.00 
C 66.50 377.04 76.15 405.23 85.02 431.98 C 93.90 458.72 103.11 487.05 113.08 512.92 C 123.05 538.80 133.80 563.87 145.69 588.31 C 157.59 612.74 170.11 635.91 185.23 657.77 C 200.35 679.63 214.95 698.72 234.75 717.25 C 254.55 735.78 274.66 749.37 298.77 761.23 C 322.88 773.09 358.82 783.51 385.33 780.33 C 411.84 777.14 445.14 757.31 438.78 729.22 C 432.42 701.13 420.02 676.85 407.77 652.23 C 395.52 627.61 380.97 607.06 365.77 585.23 C 350.57 563.40 334.65 544.56 317.25 524.75 C 299.84 504.95 282.36 488.54 262.75 471.25 C 243.14 453.95 222.94 438.36 201.08 423.92 C 179.22 409.48 156.21 395.73 132.69 383.31 C 109.18 370.88 82.68 359.89 58.00 350.00 Z"/>
</g>
<g fill="None" fill-opacity="0.0" stroke="#FFFFFF" stroke-opacity="0.00" stroke-width="0.3"><path d="
M 940.00 351.00 
C 921.60 356.80 902.48 365.95 885.08 374.08 C 867.67 382.20 851.39 391.59 835.08 401.08 C 818.76 410.56 802.53 420.58 787.25 431.25 C 771.96 441.91 757.97 452.93 743.75 464.75 C 729.53 476.56 716.25 488.78 703.25 502.25 C 690.25 515.72 678.39 528.44 666.75 542.75 C 655.12 557.06 642.89 570.31 632.77 585.77 C 622.65 601.23 610.48 616.31 601.92 632.92 C 593.37 649.54 581.73 665.78 575.98 683.98 C 570.22 702.17 555.82 722.93 559.08 742.92 C 562.33 762.92 584.63 769.96 601.93 777.07 C 619.22 784.19 648.79 780.39 666.93 773.93 C 685.06 767.46 704.28 760.79 720.30 750.30 C 736.32 739.81 750.35 730.54 764.25 717.25 C 778.14 703.96 789.45 690.74 800.75 675.75 C 812.05 660.76 822.22 646.15 831.69 629.70 C 841.17 613.24 849.86 595.73 858.22 578.22 C 866.59 560.72 873.97 542.60 881.22 524.22 C 888.48 505.85 895.80 486.23 902.22 467.22 C 908.65 448.22 915.51 428.94 921.68 409.68 C 927.85 390.42 934.74 370.55 940.00 351.00 Z"/>
</g>
<g fill="#000000" fill-opacity="0.00" stroke="None">
<path d="
M 0.00 814.00 
L 357.00 814.00
C 347.03 812.84 334.90 810.99 324.93 809.07 C 314.96 807.16 304.56 804.95 295.32 801.68 C 286.08 798.40 277.37 795.46 268.92 791.08 C 260.48 786.70 252.02 782.70 244.30 777.70 C 236.59 772.69 229.83 767.80 222.77 762.23 C 215.71 756.67 209.44 751.19 202.77 745.23 C 196.10 739.27 190.42 732.18 184.25 725.75 C 178.08 719.32 173.63 712.02 167.75 705.25 C 161.88 698.48 157.97 690.64 152.70 683.30 C 147.43 675.97 142.47 667.87 138.08 659.92 C 133.69 651.98 128.72 644.55 124.70 636.31 C 120.67 628.06 116.22 620.23 112.23 611.77 C 108.24 603.31 104.76 593.88 100.69 585.31 C 96.62 576.73 93.57 567.84 90.02 558.98 C 86.48 550.12 82.74 541.48 79.68 532.32 C 76.62 523.16 72.19 514.06 69.22 504.78 C 66.25 495.49 63.35 486.17 60.02 476.98 C 56.70 467.78 53.69 458.74 50.68 449.32 C 47.66 439.91 44.49 430.20 41.22 420.78 C 37.95 411.35 35.70 402.21 32.22 392.78 C 28.75 383.34 26.96 374.52 23.07 364.93 C 19.19 355.33 18.11 346.34 13.68 336.32 C 9.24 326.31 9.34 320.37 3.68 309.32 C -1.99 298.27 13.92 299.82 24.00 302.00 C 34.08 304.18 44.98 306.56 54.67 309.33 C 64.37 312.09 73.39 315.19 82.68 318.32 C 91.97 321.46 100.32 325.20 109.22 328.78 C 118.13 332.35 127.05 336.54 135.69 340.31 C 144.34 344.08 151.78 348.95 160.23 352.77 C 168.68 356.59 176.18 361.40 184.23 365.77 C 192.28 370.14 200.49 375.02 208.23 379.77 C 215.97 384.52 223.30 389.20 230.75 394.25 C 238.19 399.30 245.42 404.12 252.70 409.30 C 259.98 414.48 267.09 420.53 274.25 425.75 C 281.40 430.97 287.22 437.46 294.25 442.75 C 301.27 448.04 306.46 455.06 313.25 460.75 C 320.03 466.45 326.66 472.87 332.30 479.70 C 337.95 486.53 344.80 491.86 350.25 498.75 C 355.70 505.65 361.76 511.80 367.25 518.75 C 372.74 525.71 378.91 532.62 384.25 539.75 C 389.59 546.88 394.64 553.88 399.77 561.23 C 404.90 568.58 409.61 575.72 414.75 583.25 C 419.90 590.77 424.18 599.18 428.92 607.08 C 433.66 614.98 437.86 622.63 441.92 631.08 C 445.99 639.52 450.20 647.31 453.77 656.23 C 457.34 665.15 460.97 674.64 463.93 684.07 C 466.88 693.50 469.98 703.23 471.78 713.22 C 473.58 723.22 475.27 736.61 475.00 747.00 C 474.73 757.39 471.71 768.54 467.69 777.69 C 463.68 786.85 457.81 791.34 449.92 796.92 C 442.03 802.50 433.38 804.97 423.98 807.98 C 414.57 810.99 401.62 812.43 392.00 814.00
L 607.00 814.00
C 574.11 812.36 531.77 798.13 526.02 760.98 C 520.27 723.83 533.48 684.07 546.98 651.98 C 560.47 619.88 577.18 594.37 595.75 566.75 C 614.32 539.13 632.73 516.39 654.77 491.77 C 676.81 467.15 698.30 447.13 723.75 426.75 C 749.19 406.37 774.66 388.85 803.23 372.23 C 831.80 355.61 861.08 340.14 892.68 327.68 C 924.27 315.21 962.73 299.98 998.00 301.00
C 961.36 404.70 928.92 520.42 882.70 619.69 C 836.47 718.97 756.66 806.92 643.00 814.00
L 999.00 814.00
L 999.00 0.00
L 500.00 0.00
C 529.43 22.14 555.48 46.59 583.75 71.25 C 612.02 95.91 638.69 116.13 665.75 144.25 C 692.81 172.37 713.21 201.19 725.98 239.02 C 738.74 276.86 724.22 328.22 701.70 359.70 C 679.17 391.17 656.96 415.98 629.75 442.75 C 602.54 469.52 582.13 497.35 558.25 526.25 C 534.37 555.15 515.64 589.22 500.00 623.00
C 482.97 590.28 465.16 555.79 441.08 526.92 C 417.01 498.04 397.17 470.13 369.75 443.25 C 342.33 416.36 320.28 391.63 297.70 360.30 C 275.11 328.97 260.20 277.73 272.78 239.78 C 285.36 201.83 305.78 172.97 332.77 144.77 C 359.76 116.57 386.43 96.46 414.75 71.75 C 443.08 47.04 469.53 22.18 499.00 0.00
L 0.00 0.00
L 0.00 814.00 Z"/>
</g>
<g fill="#FFFFFF" fill-opacity="1.00" stroke="None">
<path d="
M 500.00 0.00 
L 499.00 0.00
C 469.53 22.18 443.08 47.04 414.75 71.75 C 386.43 96.46 359.76 116.57 332.77 144.77 C 305.78 172.97 285.36 201.83 272.78 239.78 C 260.20 277.73 275.11 328.97 297.70 360.30 C 320.28 391.63 342.33 416.36 369.75 443.25 C 397.17 470.13 417.01 498.04 441.08 526.92 C 465.16 555.79 482.97 590.28 500.00 623.00
C 515.64 589.22 534.37 555.15 558.25 526.25 C 582.13 497.35 602.54 469.52 629.75 442.75 C 656.96 415.98 679.17 391.17 701.70 359.70 C 724.22 328.22 738.74 276.86 725.98 239.02 C 713.21 201.19 692.81 172.37 665.75 144.25 C 638.69 116.13 612.02 95.91 583.75 71.25 C 555.48 46.59 529.43 22.14 500.00 0.00
M 500.00 53.00 
C 516.60 69.32 533.71 83.28 551.25 98.75 C 568.79 114.23 586.11 128.52 604.08 143.92 C 622.05 159.32 636.57 175.28 652.75 193.25 C 668.93 211.22 679.40 231.09 690.92 253.08 C 702.45 275.06 689.88 302.96 676.70 322.70 C 663.51 342.43 650.25 360.79 634.23 378.23 C 618.21 395.67 601.15 410.12 585.75 427.75 C 570.36 445.38 555.53 462.83 541.08 481.08 C 526.64 499.34 510.92 517.75 500.00 538.00
C 487.77 518.55 472.93 499.83 458.25 481.75 C 443.57 463.67 429.30 445.76 413.75 428.25 C 398.21 410.73 381.44 396.06 365.25 378.75 C 349.05 361.44 336.02 342.91 322.75 323.25 C 309.47 303.60 296.59 275.96 307.92 253.92 C 319.26 231.88 329.45 211.68 345.75 193.75 C 362.06 175.82 376.25 159.78 394.25 144.25 C 412.25 128.72 429.58 114.90 447.25 99.25 C 464.91 83.60 482.32 68.54 500.00 53.00 Z"/>
</g>
<g fill="#FFFFFF" fill-opacity="0.00" stroke="None">
<path d="
M 500.00 53.00 
C 482.32 68.54 464.91 83.60 447.25 99.25 C 429.58 114.90 412.25 128.72 394.25 144.25 C 376.25 159.78 362.06 175.82 345.75 193.75 C 329.45 211.68 319.26 231.88 307.92 253.92 C 296.59 275.96 309.47 303.60 322.75 323.25 C 336.02 342.91 349.05 361.44 365.25 378.75 C 381.44 396.06 398.21 410.73 413.75 428.25 C 429.30 445.76 443.57 463.67 458.25 481.75 C 472.93 499.83 487.77 518.55 500.00 538.00
C 510.92 517.75 526.64 499.34 541.08 481.08 C 555.53 462.83 570.36 445.38 585.75 427.75 C 601.15 410.12 618.21 395.67 634.23 378.23 C 650.25 360.79 663.51 342.43 676.70 322.70 C 689.88 302.96 702.45 275.06 690.92 253.08 C 679.40 231.09 668.93 211.22 652.75 193.25 C 636.57 175.28 622.05 159.32 604.08 143.92 C 586.11 128.52 568.79 114.23 551.25 98.75 C 533.71 83.28 516.60 69.32 500.00 53.00 Z"/>
</g>
<g fill="#FFFFFF" fill-opacity="1.00" stroke="None">
<path d="
M 357.00 814.00 
L 392.00 814.00
C 401.62 812.43 414.57 810.99 423.98 807.98 C 433.38 804.97 442.03 802.50 449.92 796.92 C 457.81 791.34 463.68 786.85 467.69 777.69 C 471.71 768.54 474.73 757.39 475.00 747.00 C 475.27 736.61 473.58 723.22 471.78 713.22 C 469.98 703.23 466.88 693.50 463.93 684.07 C 460.97 674.64 457.34 665.15 453.77 656.23 C 450.20 647.31 445.99 639.52 441.92 631.08 C 437.86 622.63 433.66 614.98 428.92 607.08 C 424.18 599.18 419.90 590.77 414.75 583.25 C 409.61 575.72 404.90 568.58 399.77 561.23 C 394.64 553.88 389.59 546.88 384.25 539.75 C 378.91 532.62 372.74 525.71 367.25 518.75 C 361.76 511.80 355.70 505.65 350.25 498.75 C 344.80 491.86 337.95 486.53 332.30 479.70 C 326.66 472.87 320.03 466.45 313.25 460.75 C 306.46 455.06 301.27 448.04 294.25 442.75 C 287.22 437.46 281.40 430.97 274.25 425.75 C 267.09 420.53 259.98 414.48 252.70 409.30 C 245.42 404.12 238.19 399.30 230.75 394.25 C 223.30 389.20 215.97 384.52 208.23 379.77 C 200.49 375.02 192.28 370.14 184.23 365.77 C 176.18 361.40 168.68 356.59 160.23 352.77 C 151.78 348.95 144.34 344.08 135.69 340.31 C 127.05 336.54 118.13 332.35 109.22 328.78 C 100.32 325.20 91.97 321.46 82.68 318.32 C 73.39 315.19 64.37 312.09 54.67 309.33 C 44.98 306.56 34.08 304.18 24.00 302.00 C 13.92 299.82 -1.99 298.27 3.68 309.32 C 9.34 320.37 9.24 326.31 13.68 336.32 C 18.11 346.34 19.19 355.33 23.07 364.93 C 26.96 374.52 28.75 383.34 32.22 392.78 C 35.70 402.21 37.95 411.35 41.22 420.78 C 44.49 430.20 47.66 439.91 50.68 449.32 C 53.69 458.74 56.70 467.78 60.02 476.98 C 63.35 486.17 66.25 495.49 69.22 504.78 C 72.19 514.06 76.62 523.16 79.68 532.32 C 82.74 541.48 86.48 550.12 90.02 558.98 C 93.57 567.84 96.62 576.73 100.69 585.31 C 104.76 593.88 108.24 603.31 112.23 611.77 C 116.22 620.23 120.67 628.06 124.70 636.31 C 128.72 644.55 133.69 651.98 138.08 659.92 C 142.47 667.87 147.43 675.97 152.70 683.30 C 157.97 690.64 161.88 698.48 167.75 705.25 C 173.63 712.02 178.08 719.32 184.25 725.75 C 190.42 732.18 196.10 739.27 202.77 745.23 C 209.44 751.19 215.71 756.67 222.77 762.23 C 229.83 767.80 236.59 772.69 244.30 777.70 C 252.02 782.70 260.48 786.70 268.92 791.08 C 277.37 795.46 286.08 798.40 295.32 801.68 C 304.56 804.95 314.96 807.16 324.93 809.07 C 334.90 810.99 347.03 812.84 357.00 814.00
M 58.00 350.00 
C 82.68 359.89 109.18 370.88 132.69 383.31 C 156.21 395.73 179.22 409.48 201.08 423.92 C 222.94 438.36 243.14 453.95 262.75 471.25 C 282.36 488.54 299.84 504.95 317.25 524.75 C 334.65 544.56 350.57 563.40 365.77 585.23 C 380.97 607.06 395.52 627.61 407.77 652.23 C 420.02 676.85 432.42 701.13 438.78 729.22 C 445.14 757.31 411.84 777.14 385.33 780.33 C 358.82 783.51 322.88 773.09 298.77 761.23 C 274.66 749.37 254.55 735.78 234.75 717.25 C 214.95 698.72 200.35 679.63 185.23 657.77 C 170.11 635.91 157.59 612.74 145.69 588.31 C 133.80 563.87 123.05 538.80 113.08 512.92 C 103.11 487.05 93.90 458.72 85.02 431.98 C 76.15 405.23 66.50 377.04 58.00 350.00 Z"/>
</g>
<g fill="#FFFFFF" fill-opacity="1.00" stroke="None">
<path d="
M 607.00 814.00 
L 643.00 814.00
C 756.66 806.92 836.47 718.97 882.70 619.69 C 928.92 520.42 961.36 404.70 998.00 301.00
C 962.73 299.98 924.27 315.21 892.68 327.68 C 861.08 340.14 831.80 355.61 803.23 372.23 C 774.66 388.85 749.19 406.37 723.75 426.75 C 698.30 447.13 676.81 467.15 654.77 491.77 C 632.73 516.39 614.32 539.13 595.75 566.75 C 577.18 594.37 560.47 619.88 546.98 651.98 C 533.48 684.07 520.27 723.83 526.02 760.98 C 531.77 798.13 574.11 812.36 607.00 814.00
M 940.00 351.00 
C 934.74 370.55 927.85 390.42 921.68 409.68 C 915.51 428.94 908.65 448.22 902.22 467.22 C 895.80 486.23 888.48 505.85 881.22 524.22 C 873.97 542.60 866.59 560.72 858.22 578.22 C 849.86 595.73 841.17 613.24 831.69 629.70 C 822.22 646.15 812.05 660.76 800.75 675.75 C 789.45 690.74 778.14 703.96 764.25 717.25 C 750.35 730.54 736.32 739.81 720.30 750.30 C 704.28 760.79 685.06 767.46 666.93 773.93 C 648.79 780.39 619.22 784.19 601.93 777.07 C 584.63 769.96 562.33 762.92 559.08 742.92 C 555.82 722.93 570.22 702.17 575.98 683.98 C 581.73 665.78 593.37 649.54 601.92 632.92 C 610.48 616.31 622.65 601.23 632.77 585.77 C 642.89 570.31 655.12 557.06 666.75 542.75 C 678.39 528.44 690.25 515.72 703.25 502.25 C 716.25 488.78 729.53 476.56 743.75 464.75 C 757.97 452.93 771.96 441.91 787.25 431.25 C 802.53 420.58 818.76 410.56 835.08 401.08 C 851.39 391.59 867.67 382.20 885.08 374.08 C 902.48 365.95 921.60 356.80 940.00 351.00 Z"/>
</g>
<g fill="#FFFFFF" fill-opacity="0.00" stroke="None">
<path d="
M 58.00 350.00 
C 66.50 377.04 76.15 405.23 85.02 431.98 C 93.90 458.72 103.11 487.05 113.08 512.92 C 123.05 538.80 133.80 563.87 145.69 588.31 C 157.59 612.74 170.11 635.91 185.23 657.77 C 200.35 679.63 214.95 698.72 234.75 717.25 C 254.55 735.78 274.66 749.37 298.77 761.23 C 322.88 773.09 358.82 783.51 385.33 780.33 C 411.84 777.14 445.14 757.31 438.78 729.22 C 432.42 701.13 420.02 676.85 407.77 652.23 C 395.52 627.61 380.97 607.06 365.77 585.23 C 350.57 563.40 334.65 544.56 317.25 524.75 C 299.84 504.95 282.36 488.54 262.75 471.25 C 243.14 453.95 222.94 438.36 201.08 423.92 C 179.22 409.48 156.21 395.73 132.69 383.31 C 109.18 370.88 82.68 359.89 58.00 350.00 Z"/>
</g>
<g fill="#FFFFFF" fill-opacity="0.00" stroke="None">
<path d="
M 940.00 351.00 
C 921.60 356.80 902.48 365.95 885.08 374.08 C 867.67 382.20 851.39 391.59 835.08 401.08 C 818.76 410.56 802.53 420.58 787.25 431.25 C 771.96 441.91 757.97 452.93 743.75 464.75 C 729.53 476.56 716.25 488.78 703.25 502.25 C 690.25 515.72 678.39 528.44 666.75 542.75 C 655.12 557.06 642.89 570.31 632.77 585.77 C 622.65 601.23 610.48 616.31 601.92 632.92 C 593.37 649.54 581.73 665.78 575.98 683.98 C 570.22 702.17 555.82 722.93 559.08 742.92 C 562.33 762.92 584.63 769.96 601.93 777.07 C 619.22 784.19 648.79 780.39 666.93 773.93 C 685.06 767.46 704.28 760.79 720.30 750.30 C 736.32 739.81 750.35 730.54 764.25 717.25 C 778.14 703.96 789.45 690.74 800.75 675.75 C 812.05 660.76 822.22 646.15 831.69 629.70 C 841.17 613.24 849.86 595.73 858.22 578.22 C 866.59 560.72 873.97 542.60 881.22 524.22 C 888.48 505.85 895.80 486.23 902.22 467.22 C 908.65 448.22 915.51 428.94 921.68 409.68 C 927.85 390.42 934.74 370.55 940.00 351.00 Z"/>
</g>
</svg>