<svg xmlns="http://www.w3.org/2000/svg" xmlns:v="https://svgstorm.com"
viewBox = "0 0 1138 880"
width="1138"
height="880">
<g fill="None" fill-opacity="0.0" stroke="#000000" stroke-opacity="0.00" stroke-width="0.3"><path d="
M 0.00 880.00 
L 1138.00 880.00
L 1138.00 0.00
L 0.00 0.00
L 0.00 880.00
M 597.00 46.00 
C 601.47 49.82 606.59 53.13 610.00 58.00
C 610.40 58.20 611.00 58.00 611.00 58.00
C 619.95 62.38 626.26 72.74 634.25 78.75 C 642.24 84.77 650.42 92.32 657.75 99.25 C 665.09 106.18 675.19 111.69 681.00 120.00
C 681.40 120.20 682.00 120.00 682.00 120.00
C 686.72 122.31 690.13 127.82 694.00 131.00
C 698.68 134.28 703.45 138.11 708.00 142.00
C 714.68 147.71 720.62 154.05 727.00 160.00
C 727.64 160.39 728.39 160.63 729.00 161.00
C 734.83 164.55 743.49 173.23 747.00 179.00
C 747.39 179.64 747.63 180.39 748.00 181.00
C 758.27 192.01 769.13 202.32 777.00 215.00
C 777.22 215.36 777.00 216.00 777.00 216.00
C 781.57 218.98 784.22 225.50 787.00 230.00
C 788.30 232.09 789.00 233.89 790.00 236.00
C 793.24 241.45 796.40 246.97 799.00 253.00
C 814.28 288.41 814.30 325.56 799.00 361.00
C 796.41 367.00 793.22 372.58 790.00 378.00
C 783.51 391.73 774.04 405.25 764.00 417.00
C 753.83 428.90 744.83 443.27 732.25 453.25 C 719.67 463.23 711.22 477.76 698.00 487.00
C 697.80 487.40 698.00 488.00 698.00 488.00
C 693.79 496.62 682.94 503.77 677.00 511.00
C 668.90 522.57 659.34 534.07 650.00 545.00
C 637.94 559.12 626.56 574.21 616.00 589.00
C 611.30 597.34 605.85 605.58 601.00 614.00
C 598.73 617.94 596.02 622.29 594.00 626.00
C 590.66 633.73 586.37 641.19 583.00 649.00
C 582.03 651.26 581.46 653.86 580.00 656.00
C 577.61 654.60 576.60 651.56 576.00 649.00
C 575.28 647.27 574.63 645.72 574.00 644.00
C 571.25 638.49 567.90 632.68 565.00 627.00
C 562.05 621.24 558.72 615.74 556.00 610.00
C 552.24 603.67 545.59 597.20 543.00 590.00
C 542.84 589.56 543.00 589.00 543.00 589.00
C 537.65 585.52 534.52 577.70 530.25 572.75 C 525.97 567.80 522.16 561.27 518.00 556.00
C 513.24 549.97 508.01 544.22 504.00 538.00
C 500.33 533.53 494.61 529.33 492.00 524.00
C 491.80 523.60 492.00 523.00 492.00 523.00
C 481.38 515.58 474.53 501.91 465.25 492.75 C 455.96 483.59 446.34 473.09 437.75 463.25 C 429.16 453.41 414.77 445.84 409.00 434.00
C 408.80 433.60 409.00 433.00 409.00 433.00
C 404.91 430.14 402.18 425.72 399.00 422.00
C 397.31 420.02 396.21 418.00 395.00 416.00
C 390.13 410.08 385.37 404.38 381.00 398.00
C 376.51 391.45 372.10 385.18 369.00 378.00
C 366.01 372.51 362.58 366.98 360.00 361.00
C 344.70 325.55 344.69 288.48 360.00 253.00
C 362.59 247.00 365.78 241.42 369.00 236.00
C 369.97 233.95 370.75 232.03 372.00 230.00
C 380.53 216.22 390.72 204.51 401.00 192.00
C 403.94 187.44 408.33 183.29 412.00 179.00
C 417.31 172.78 423.51 165.91 430.00 161.00
C 430.94 160.29 432.10 159.68 433.00 159.00
C 443.42 149.44 453.42 137.85 465.23 130.23 C 477.04 122.61 485.45 108.14 498.00 102.00
C 498.40 101.80 499.00 102.00 499.00 102.00
C 505.45 92.78 516.60 86.24 524.75 78.75 C 532.89 71.26 541.86 62.00 550.75 55.75 C 559.64 49.51 567.56 36.95 578.00 34.00
C 583.53 32.44 592.69 42.31 597.00 46.00
M 212.00 372.00 
C 225.38 377.77 238.44 385.15 251.00 392.00
C 266.42 398.65 280.67 408.13 295.00 417.00
C 305.06 423.23 314.54 430.24 324.00 437.00
C 326.69 438.51 329.32 440.16 332.00 442.00
C 342.75 449.37 353.95 457.68 363.70 466.30 C 373.44 474.93 385.40 483.13 393.00 494.00
C 393.40 494.20 394.00 494.00 394.00 494.00
C 399.73 496.80 405.44 504.36 409.75 509.25 C 414.06 514.14 421.54 520.31 425.00 526.00
C 425.39 526.64 425.63 527.39 426.00 528.00
C 434.87 537.51 448.24 548.29 454.00 560.00
C 454.20 560.40 454.00 561.00 454.00 561.00
C 462.86 567.19 469.98 580.22 476.00 589.00
C 489.90 609.26 505.30 629.53 515.00 652.00
C 519.40 660.07 524.25 668.32 528.00 677.00
C 540.86 706.80 554.00 737.43 554.00 771.00
C 554.33 774.46 554.33 778.61 554.00 782.00
C 554.00 791.17 552.23 798.77 549.00 807.00
C 546.08 814.43 540.66 824.24 533.00 828.00
C 532.60 828.20 532.00 828.00 532.00 828.00
C 528.18 831.99 523.08 834.00 518.00 836.00
C 451.50 862.10 363.83 843.29 309.00 800.00
C 281.31 778.14 256.01 752.46 237.00 723.00
C 226.68 707.00 215.52 691.41 208.00 674.00
C 202.54 664.00 196.62 653.70 192.00 643.00
C 188.51 634.90 184.50 627.97 181.22 619.78 C 177.95 611.58 174.11 603.32 171.02 594.98 C 167.94 586.63 164.11 578.36 161.08 569.92 C 158.04 561.49 154.88 552.75 151.69 544.31 C 148.51 535.86 146.28 527.43 143.07 518.93 C 139.86 510.43 137.08 501.57 134.07 492.93 C 131.07 484.29 128.37 475.06 125.68 466.32 C 122.98 457.58 119.47 448.71 117.02 439.98 C 114.58 431.24 111.26 422.90 108.68 414.32 C 106.10 405.74 102.10 396.50 100.02 387.98 C 97.94 379.46 92.26 370.18 91.02 361.98 C 89.79 353.77 80.95 344.21 81.23 336.77 C 81.50 329.33 100.94 335.39 108.01 335.99 C 115.08 336.59 128.12 340.76 136.07 342.93 C 144.02 345.09 154.50 348.40 162.68 351.32 C 170.85 354.25 179.82 357.84 188.02 360.98 C 196.23 364.11 203.91 368.51 212.00 372.00
M 1020.00 507.00 
C 1018.16 512.36 1015.90 517.98 1014.00 523.00
C 1002.93 564.46 984.01 603.58 967.00 643.00
C 962.39 653.68 956.44 664.02 951.00 674.00
C 946.63 684.13 940.85 693.55 935.00 703.00
C 932.20 707.53 928.86 711.79 926.00 716.00
C 924.76 718.29 923.50 720.68 922.00 723.00
C 915.73 732.71 908.26 741.16 901.00 750.00
C 899.50 752.15 897.86 754.82 896.00 757.00
C 877.45 778.71 855.69 797.34 832.00 812.00
C 778.73 844.98 703.63 859.38 643.00 837.00
C 625.96 830.71 612.87 818.69 608.00 801.00
C 606.14 794.24 605.00 788.36 605.00 781.00
C 604.67 777.54 604.67 773.39 605.00 770.00
C 605.00 736.94 618.32 706.38 631.00 677.00
C 634.73 668.35 639.62 660.04 644.00 652.00
C 648.07 642.57 653.55 633.80 659.00 625.00
C 661.79 620.50 665.23 616.22 668.00 612.00
C 668.65 610.75 669.21 609.32 670.00 608.00
C 678.98 593.09 690.02 579.37 701.00 566.00
C 702.18 564.05 703.39 561.89 705.00 560.00
C 711.59 552.29 717.61 541.85 726.00 536.00
C 726.20 535.60 726.00 535.00 726.00 535.00
C 729.55 527.74 740.39 517.63 747.00 513.00
C 747.20 512.60 747.00 512.00 747.00 512.00
C 752.46 500.85 766.14 494.41 774.25 485.25 C 782.35 476.09 793.67 467.96 803.23 460.23 C 812.79 452.50 823.50 443.52 834.00 437.00
C 834.36 436.78 835.00 437.00 835.00 437.00
C 837.58 433.04 843.11 430.51 847.00 428.00
C 866.13 415.66 885.17 401.99 906.00 393.00
C 909.82 390.92 913.85 388.12 918.00 386.00
C 924.24 382.81 930.47 379.35 937.00 377.00
C 940.86 375.09 944.90 372.77 949.00 371.00
C 990.02 353.30 1032.45 334.17 1078.00 334.00
C 1057.17 391.07 1039.45 449.39 1020.00 507.00 Z"/>
</g>
<g fill="None" fill-opacity="0.0" stroke="#A4A4A4" stroke-opacity="1.00" stroke-width="0.3"><path d="
M 578.00 34.00 
C 568.06 38.11 560.63 50.30 551.25 56.25 C 541.86 62.20 534.60 73.09 525.25 79.25 C 515.90 85.40 509.03 97.09 499.00 102.00
C 499.00 102.00 498.40 101.80 498.00 102.00
C 490.02 113.42 476.10 121.51 465.75 130.75 C 455.41 139.99 444.18 150.55 433.00 159.00
C 432.10 159.68 430.94 160.29 430.00 161.00
C 423.93 166.57 417.80 173.20 412.00 179.00
C 408.33 183.29 403.94 187.44 401.00 192.00
C 392.53 205.13 381.35 217.92 372.00 230.00
C 370.75 232.03 369.97 233.95 369.00 236.00
C 366.25 241.82 363.11 247.66 360.00 253.00
C 344.69 288.48 344.70 325.55 360.00 361.00
C 363.11 366.35 366.46 372.13 369.00 378.00
C 372.10 385.18 376.51 391.45 381.00 398.00
C 385.89 403.66 391.06 409.51 395.00 416.00
C 396.21 418.00 397.31 420.02 399.00 422.00
C 402.37 425.37 406.87 428.66 409.00 433.00
C 409.00 433.00 408.80 433.60 409.00 434.00
C 419.68 441.47 427.67 453.60 437.75 462.25 C 447.83 470.89 456.91 481.70 465.25 491.75 C 473.58 501.80 486.29 511.36 492.00 523.00
C 492.00 523.00 491.80 523.60 492.00 524.00
C 496.77 527.34 500.91 533.21 504.00 538.00
C 508.01 544.22 513.24 549.97 518.00 556.00
C 527.68 565.68 535.83 577.45 543.00 589.00
C 543.00 589.00 542.84 589.56 543.00 590.00
C 548.37 595.14 552.80 603.23 556.00 610.00
C 558.72 615.74 562.05 621.24 565.00 627.00
C 568.42 632.35 571.73 637.82 574.00 644.00
C 574.63 645.72 575.28 647.27 576.00 649.00
C 576.98 650.76 579.11 652.57 579.00 655.00
C 581.02 653.66 580.95 650.28 583.00 649.00
C 586.37 641.19 590.66 633.73 594.00 626.00
C 595.90 621.59 598.37 617.68 601.00 614.00
C 605.85 605.58 611.30 597.34 616.00 589.00
C 624.81 573.35 637.25 557.75 650.00 545.00
C 659.34 534.07 668.90 522.57 677.00 511.00
C 682.46 503.20 690.07 493.51 698.00 488.00
C 698.00 488.00 697.80 487.40 698.00 487.00
C 702.55 477.70 713.18 471.96 719.75 463.75 C 726.32 455.54 735.61 449.44 742.30 441.30 C 749.00 433.17 756.61 424.39 764.00 417.00
C 774.04 405.25 783.51 391.73 790.00 378.00
C 792.75 372.18 795.89 366.34 799.00 361.00
C 814.30 325.56 814.28 288.41 799.00 253.00
C 795.87 247.61 792.75 241.81 790.00 236.00
C 789.00 233.89 788.30 232.09 787.00 230.00
C 783.56 225.56 780.06 220.91 777.00 216.00
C 777.00 216.00 777.22 215.36 777.00 215.00
C 771.49 211.41 767.07 203.53 762.75 198.25 C 758.43 192.97 751.61 186.93 748.00 181.00
C 747.63 180.39 747.39 179.64 747.00 179.00
C 741.43 173.03 734.92 166.52 729.00 161.00
C 728.39 160.63 727.64 160.39 727.00 160.00
C 719.83 155.63 713.83 147.83 708.00 142.00
C 703.45 138.11 698.68 134.28 694.00 131.00
C 689.69 127.98 685.04 124.36 682.00 120.00
C 682.00 120.00 681.40 120.20 681.00 120.00
C 668.15 113.71 656.24 98.94 645.30 89.70 C 634.37 80.45 619.17 69.68 611.00 58.00
C 611.00 58.00 610.40 58.20 610.00 58.00
C 605.05 55.58 600.77 49.77 597.00 46.00
C 592.69 42.31 583.53 32.44 578.00 34.00 Z"/>
</g>
<g fill="None" fill-opacity="0.0" stroke="#D0D0D0" stroke-opacity="1.00" stroke-width="0.3"><path d="
M 499.00 102.00 
C 509.03 97.09 515.90 85.40 525.25 79.25 C 534.60 73.09 541.86 62.20 551.25 56.25 C 560.63 50.30 568.06 38.11 578.00 34.00
C 567.56 36.95 559.64 49.51 550.75 55.75 C 541.86 62.00 532.89 71.26 524.75 78.75 C 516.60 86.24 505.45 92.78 499.00 102.00 Z"/>
</g>
<g fill="None" fill-opacity="0.0" stroke="#D6D6D6" stroke-opacity="1.00" stroke-width="0.3"><path d="
M 610.00 58.00 
C 606.59 53.13 601.47 49.82 597.00 46.00
C 600.77 49.77 605.05 55.58 610.00 58.00 Z"/>
</g>
<g fill="None" fill-opacity="0.0" stroke="#D2D2D2" stroke-opacity="1.00" stroke-width="0.3"><path d="
M 681.00 120.00 
C 675.19 111.69 665.09 106.18 657.75 99.25 C 650.42 92.32 642.24 84.77 634.25 78.75 C 626.26 72.74 619.95 62.38 611.00 58.00
C 619.17 69.68 634.37 80.45 645.30 89.70 C 656.24 98.94 668.15 113.71 681.00 120.00 Z"/>
</g>
<g fill="None" fill-opacity="0.0" stroke="#D3D3D3" stroke-opacity="1.00" stroke-width="0.3"><path d="
M 433.00 159.00 
C 444.18 150.55 455.41 139.99 465.75 130.75 C 476.10 121.51 490.02 113.42 498.00 102.00
C 485.45 108.14 477.04 122.61 465.23 130.23 C 453.42 137.85 443.42 149.44 433.00 159.00 Z"/>
</g>
<g fill="None" fill-opacity="0.0" stroke="#D5D5D5" stroke-opacity="1.00" stroke-width="0.3"><path d="
M 694.00 131.00 
C 690.13 127.82 686.72 122.31 682.00 120.00
C 685.04 124.36 689.69 127.98 694.00 131.00 Z"/>
</g>
<g fill="None" fill-opacity="0.0" stroke="#D5D5D5" stroke-opacity="1.00" stroke-width="0.3"><path d="
M 727.00 160.00 
C 720.62 154.05 714.68 147.71 708.00 142.00
C 713.83 147.83 719.83 155.63 727.00 160.00 Z"/>
</g>
<g fill="None" fill-opacity="0.0" stroke="#E3E3E3" stroke-opacity="1.00" stroke-width="0.3"><path d="
M 412.00 179.00 
C 417.80 173.20 423.93 166.57 430.00 161.00
C 423.51 165.91 417.31 172.78 412.00 179.00 Z"/>
</g>
<g fill="None" fill-opacity="0.0" stroke="#E4E4E4" stroke-opacity="1.00" stroke-width="0.3"><path d="
M 747.00 179.00 
C 743.49 173.23 734.83 164.55 729.00 161.00
C 734.92 166.52 741.43 173.03 747.00 179.00 Z"/>
</g>
<g fill="None" fill-opacity="0.0" stroke="#D2D2D2" stroke-opacity="1.00" stroke-width="0.3"><path d="
M 777.00 215.00 
C 769.13 202.32 758.27 192.01 748.00 181.00
C 751.61 186.93 758.43 192.97 762.75 198.25 C 767.07 203.53 771.49 211.41 777.00 215.00 Z"/>
</g>
<g fill="None" fill-opacity="0.0" stroke="#D2D2D2" stroke-opacity="1.00" stroke-width="0.3"><path d="
M 372.00 230.00 
C 381.35 217.92 392.53 205.13 401.00 192.00
C 390.72 204.51 380.53 216.22 372.00 230.00 Z"/>
</g>
<g fill="None" fill-opacity="0.0" stroke="#D4D4D4" stroke-opacity="1.00" stroke-width="0.3"><path d="
M 787.00 230.00 
C 784.22 225.50 781.57 218.98 777.00 216.00
C 780.06 220.91 783.56 225.56 787.00 230.00 Z"/>
</g>
<g fill="None" fill-opacity="0.0" stroke="#D3D3D3" stroke-opacity="1.00" stroke-width="0.3"><path d="
M 360.00 253.00 
C 363.11 247.66 366.25 241.82 369.00 236.00
C 365.78 241.42 362.59 247.00 360.00 253.00 Z"/>
</g>
<g fill="None" fill-opacity="0.0" stroke="#D5D5D5" stroke-opacity="1.00" stroke-width="0.3"><path d="
M 799.00 253.00 
C 796.40 246.97 793.24 241.45 790.00 236.00
C 792.75 241.81 795.87 247.61 799.00 253.00 Z"/>
</g>
<g fill="None" fill-opacity="0.0" stroke="#A5A5A5" stroke-opacity="1.00" stroke-width="0.3"><path d="
M 192.00 643.00 
C 197.67 652.76 203.44 663.44 208.00 674.00
C 215.52 691.41 226.68 707.00 237.00 723.00
C 259.18 750.27 282.84 775.81 309.00 800.00
C 363.83 843.29 451.50 862.10 518.00 836.00
C 522.40 833.65 527.14 829.76 532.00 828.00
C 532.00 828.00 532.60 828.20 533.00 828.00
C 538.25 820.49 544.82 814.84 549.00 807.00
C 552.23 798.77 554.00 791.17 554.00 782.00
C 554.00 778.33 554.00 774.67 554.00 771.00
C 554.00 737.43 540.86 706.80 528.00 677.00
C 523.42 669.13 518.69 660.55 515.00 652.00
C 505.30 629.53 489.90 609.26 476.00 589.00
C 468.28 580.65 460.07 570.76 454.00 561.00
C 454.00 561.00 454.20 560.40 454.00 560.00
C 448.35 556.05 444.16 549.47 439.75 544.25 C 435.34 539.03 429.55 533.83 426.00 528.00
C 425.63 527.39 425.39 526.64 425.00 526.00
C 415.12 515.41 402.33 505.91 394.00 494.00
C 394.00 494.00 393.40 494.20 393.00 494.00
C 381.50 488.38 374.56 474.33 363.75 467.25 C 352.94 460.17 341.74 450.41 332.00 442.00
C 329.32 440.16 326.69 438.51 324.00 437.00
C 313.91 431.32 303.97 423.94 295.00 417.00
C 280.67 408.13 266.42 398.65 251.00 392.00
C 237.77 386.29 224.23 379.11 212.00 372.00
C 203.91 368.51 196.23 364.11 188.02 360.98 C 179.82 357.84 170.85 354.25 162.68 351.32 C 154.50 348.40 144.02 345.09 136.07 342.93 C 128.12 340.76 115.08 336.59 108.01 335.99 C 100.94 335.39 81.50 329.33 81.23 336.77 C 80.95 344.21 89.79 353.77 91.02 361.98 C 92.26 370.18 97.94 379.46 100.02 387.98 C 102.10 396.50 106.10 405.74 108.68 414.32 C 111.26 422.90 114.58 431.24 117.02 439.98 C 119.47 448.71 122.98 457.58 125.68 466.32 C 128.37 475.06 131.07 484.29 134.07 492.93 C 137.08 501.57 139.86 510.43 143.07 518.93 C 146.28 527.43 148.51 535.86 151.69 544.31 C 154.88 552.75 158.04 561.49 161.08 569.92 C 164.11 578.36 167.94 586.63 171.02 594.98 C 174.11 603.32 177.95 611.58 181.22 619.78 C 184.50 627.97 188.51 634.90 192.00 643.00 Z"/>
</g>
<g fill="None" fill-opacity="0.0" stroke="#A4A4A4" stroke-opacity="1.00" stroke-width="0.3"><path d="
M 949.00 371.00 
C 945.18 373.22 941.30 375.45 937.00 377.00
C 930.47 379.35 924.24 382.81 918.00 386.00
C 914.20 388.43 910.41 391.10 906.00 393.00
C 885.17 401.99 866.13 415.66 847.00 428.00
C 843.10 431.17 839.37 434.28 835.00 437.00
C 835.00 437.00 834.36 436.78 834.00 437.00
C 827.49 446.99 812.66 452.57 803.75 460.75 C 794.84 468.94 784.15 477.69 774.75 485.75 C 765.35 493.81 757.17 504.91 747.00 512.00
C 747.00 512.00 747.20 512.60 747.00 513.00
C 743.56 520.02 732.34 530.57 726.00 535.00
C 726.00 535.00 726.20 535.60 726.00 536.00
C 721.82 544.55 711.62 553.38 705.00 560.00
C 703.39 561.89 702.18 564.05 701.00 566.00
C 692.11 580.66 680.15 594.53 670.00 608.00
C 669.21 609.32 668.65 610.75 668.00 612.00
C 665.51 616.78 662.16 620.92 659.00 625.00
C 653.55 633.80 648.07 642.57 644.00 652.00
C 640.31 660.55 635.55 669.17 631.00 677.00
C 618.32 706.38 605.00 736.94 605.00 770.00
C 605.00 773.67 605.00 777.33 605.00 781.00
C 605.00 788.36 606.14 794.24 608.00 801.00
C 614.62 818.51 626.59 828.71 643.00 837.00
C 703.63 859.38 778.73 844.98 832.00 812.00
C 854.00 794.98 875.51 777.49 896.00 757.00
C 897.86 754.82 899.50 752.15 901.00 750.00
C 907.55 740.65 914.96 731.66 922.00 723.00
C 923.50 720.68 924.76 718.29 926.00 716.00
C 928.56 711.25 931.84 707.09 935.00 703.00
C 940.85 693.55 946.63 684.13 951.00 674.00
C 955.56 663.44 961.35 652.72 967.00 643.00
C 984.01 603.58 1002.93 564.46 1014.00 523.00
C 1015.49 517.41 1017.67 511.99 1020.00 507.00
C 1039.45 449.39 1057.17 391.07 1078.00 334.00
C 1032.45 334.17 990.02 353.30 949.00 371.00 Z"/>
</g>
<g fill="None" fill-opacity="0.0" stroke="#D2D2D2" stroke-opacity="1.00" stroke-width="0.3"><path d="
M 369.00 378.00 
C 366.46 372.13 363.11 366.35 360.00 361.00
C 362.58 366.98 366.01 372.51 369.00 378.00 Z"/>
</g>
<g fill="None" fill-opacity="0.0" stroke="#D3D3D3" stroke-opacity="1.00" stroke-width="0.3"><path d="
M 790.00 378.00 
C 793.22 372.58 796.41 367.00 799.00 361.00
C 795.89 366.34 792.75 372.18 790.00 378.00 Z"/>
</g>
<g fill="None" fill-opacity="0.0" stroke="#D2D2D2" stroke-opacity="1.00" stroke-width="0.3"><path d="
M 937.00 377.00 
C 941.30 375.45 945.18 373.22 949.00 371.00
C 944.90 372.77 940.86 375.09 937.00 377.00 Z"/>
</g>
<g fill="None" fill-opacity="0.0" stroke="#D0D0D0" stroke-opacity="1.00" stroke-width="0.3"><path d="
M 251.00 392.00 
C 238.44 385.15 225.38 377.77 212.00 372.00
C 224.23 379.11 237.77 386.29 251.00 392.00 Z"/>
</g>
<g fill="None" fill-opacity="0.0" stroke="#D3D3D3" stroke-opacity="1.00" stroke-width="0.3"><path d="
M 906.00 393.00 
C 910.41 391.10 914.20 388.43 918.00 386.00
C 913.85 388.12 909.82 390.92 906.00 393.00 Z"/>
</g>
<g fill="None" fill-opacity="0.0" stroke="#D1D1D1" stroke-opacity="1.00" stroke-width="0.3"><path d="
M 395.00 416.00 
C 391.06 409.51 385.89 403.66 381.00 398.00
C 385.37 404.38 390.13 410.08 395.00 416.00 Z"/>
</g>
<g fill="None" fill-opacity="0.0" stroke="#D3D3D3" stroke-opacity="1.00" stroke-width="0.3"><path d="
M 324.00 437.00 
C 314.54 430.24 305.06 423.23 295.00 417.00
C 303.97 423.94 313.91 431.32 324.00 437.00 Z"/>
</g>
<g fill="None" fill-opacity="0.0" stroke="#D1D1D1" stroke-opacity="1.00" stroke-width="0.3"><path d="
M 698.00 487.00 
C 711.22 477.76 719.67 463.23 732.25 453.25 C 744.83 443.27 753.83 428.90 764.00 417.00
C 756.61 424.39 749.00 433.17 742.30 441.30 C 735.61 449.44 726.32 455.54 719.75 463.75 C 713.18 471.96 702.55 477.70 698.00 487.00 Z"/>
</g>
<g fill="None" fill-opacity="0.0" stroke="#D5D5D5" stroke-opacity="1.00" stroke-width="0.3"><path d="
M 409.00 433.00 
C 406.87 428.66 402.37 425.37 399.00 422.00
C 402.18 425.72 404.91 430.14 409.00 433.00 Z"/>
</g>
<g fill="None" fill-opacity="0.0" stroke="#D5D5D5" stroke-opacity="1.00" stroke-width="0.3"><path d="
M 835.00 437.00 
C 839.37 434.28 843.10 431.17 847.00 428.00
C 843.11 430.51 837.58 433.04 835.00 437.00 Z"/>
</g>
<g fill="None" fill-opacity="0.0" stroke="#D1D1D1" stroke-opacity="1.00" stroke-width="0.3"><path d="
M 492.00 523.00 
C 486.29 511.36 473.58 501.80 465.25 491.75 C 456.91 481.70 447.83 470.89 437.75 462.25 C 427.67 453.60 419.68 441.47 409.00 434.00
C 414.77 445.84 429.16 453.41 437.75 463.25 C 446.34 473.09 455.96 483.59 465.25 492.75 C 474.53 501.91 481.38 515.58 492.00 523.00 Z"/>
</g>
<g fill="None" fill-opacity="0.0" stroke="#D7D7D7" stroke-opacity="1.00" stroke-width="0.3"><path d="
M 747.00 512.00 
C 757.17 504.91 765.35 493.81 774.75 485.75 C 784.15 477.69 794.84 468.94 803.75 460.75 C 812.66 452.57 827.49 446.99 834.00 437.00
C 823.50 443.52 812.79 452.50 803.23 460.23 C 793.67 467.96 782.35 476.09 774.25 485.25 C 766.14 494.41 752.46 500.85 747.00 512.00 Z"/>
</g>
<g fill="None" fill-opacity="0.0" stroke="#D2D2D2" stroke-opacity="1.00" stroke-width="0.3"><path d="
M 393.00 494.00 
C 385.40 483.13 373.44 474.93 363.70 466.30 C 353.95 457.68 342.75 449.37 332.00 442.00
C 341.74 450.41 352.94 460.17 363.75 467.25 C 374.56 474.33 381.50 488.38 393.00 494.00 Z"/>
</g>
<g fill="None" fill-opacity="0.0" stroke="#D6D6D6" stroke-opacity="1.00" stroke-width="0.3"><path d="
M 677.00 511.00 
C 682.94 503.77 693.79 496.62 698.00 488.00
C 690.07 493.51 682.46 503.20 677.00 511.00 Z"/>
</g>
<g fill="None" fill-opacity="0.0" stroke="#DDDDDD" stroke-opacity="1.00" stroke-width="0.3"><path d="
M 425.00 526.00 
C 421.54 520.31 414.06 514.14 409.75 509.25 C 405.44 504.36 399.73 496.80 394.00 494.00
C 402.33 505.91 415.12 515.41 425.00 526.00 Z"/>
</g>
<g fill="None" fill-opacity="0.0" stroke="#D1D1D1" stroke-opacity="1.00" stroke-width="0.3"><path d="
M 1014.00 523.00 
C 1015.90 517.98 1018.16 512.36 1020.00 507.00
C 1017.67 511.99 1015.49 517.41 1014.00 523.00 Z"/>
</g>
<g fill="None" fill-opacity="0.0" stroke="#D5D5D5" stroke-opacity="1.00" stroke-width="0.3"><path d="
M 726.00 535.00 
C 732.34 530.57 743.56 520.02 747.00 513.00
C 740.39 517.63 729.55 527.74 726.00 535.00 Z"/>
</g>
<g fill="None" fill-opacity="0.0" stroke="#D3D3D3" stroke-opacity="1.00" stroke-width="0.3"><path d="
M 504.00 538.00 
C 500.91 533.21 496.77 527.34 492.00 524.00
C 494.61 529.33 500.33 533.53 504.00 538.00 Z"/>
</g>
<g fill="None" fill-opacity="0.0" stroke="#D3D3D3" stroke-opacity="1.00" stroke-width="0.3"><path d="
M 454.00 560.00 
C 448.24 548.29 434.87 537.51 426.00 528.00
C 429.55 533.83 435.34 539.03 439.75 544.25 C 444.16 549.47 448.35 556.05 454.00 560.00 Z"/>
</g>
<g fill="None" fill-opacity="0.0" stroke="#D3D3D3" stroke-opacity="1.00" stroke-width="0.3"><path d="
M 705.00 560.00 
C 711.62 553.38 721.82 544.55 726.00 536.00
C 717.61 541.85 711.59 552.29 705.00 560.00 Z"/>
</g>
<g fill="None" fill-opacity="0.0" stroke="#D1D1D1" stroke-opacity="1.00" stroke-width="0.3"><path d="
M 616.00 589.00 
C 626.56 574.21 637.94 559.12 650.00 545.00
C 637.25 557.75 624.81 573.35 616.00 589.00 Z"/>
</g>
<g fill="None" fill-opacity="0.0" stroke="#D2D2D2" stroke-opacity="1.00" stroke-width="0.3"><path d="
M 543.00 589.00 
C 535.83 577.45 527.68 565.68 518.00 556.00
C 522.16 561.27 525.97 567.80 530.25 572.75 C 534.52 577.70 537.65 585.52 543.00 589.00 Z"/>
</g>
<g fill="None" fill-opacity="0.0" stroke="#D2D2D2" stroke-opacity="1.00" stroke-width="0.3"><path d="
M 476.00 589.00 
C 469.98 580.22 462.86 567.19 454.00 561.00
C 460.07 570.76 468.28 580.65 476.00 589.00 Z"/>
</g>
<g fill="None" fill-opacity="0.0" stroke="#D3D3D3" stroke-opacity="1.00" stroke-width="0.3"><path d="
M 670.00 608.00 
C 680.15 594.53 692.11 580.66 701.00 566.00
C 690.02 579.37 678.98 593.09 670.00 608.00 Z"/>
</g>
<g fill="None" fill-opacity="0.0" stroke="#D5D5D5" stroke-opacity="1.00" stroke-width="0.3"><path d="
M 556.00 610.00 
C 552.80 603.23 548.37 595.14 543.00 590.00
C 545.59 597.20 552.24 603.67 556.00 610.00 Z"/>
</g>
<g fill="None" fill-opacity="0.0" stroke="#D4D4D4" stroke-opacity="1.00" stroke-width="0.3"><path d="
M 659.00 625.00 
C 662.16 620.92 665.51 616.78 668.00 612.00
C 665.23 616.22 661.79 620.50 659.00 625.00 Z"/>
</g>
<g fill="None" fill-opacity="0.0" stroke="#D5D5D5" stroke-opacity="1.00" stroke-width="0.3"><path d="
M 594.00 626.00 
C 596.02 622.29 598.73 617.94 601.00 614.00
C 598.37 617.68 595.90 621.59 594.00 626.00 Z"/>
</g>
<g fill="None" fill-opacity="0.0" stroke="#D1D1D1" stroke-opacity="1.00" stroke-width="0.3"><path d="
M 574.00 644.00 
C 571.73 637.82 568.42 632.35 565.00 627.00
C 567.90 632.68 571.25 638.49 574.00 644.00 Z"/>
</g>
<g fill="None" fill-opacity="0.0" stroke="#D8D8D8" stroke-opacity="1.00" stroke-width="0.3"><path d="
M 208.00 674.00 
C 203.44 663.44 197.67 652.76 192.00 643.00
C 196.62 653.70 202.54 664.00 208.00 674.00 Z"/>
</g>
<g fill="None" fill-opacity="0.0" stroke="#D5D5D5" stroke-opacity="1.00" stroke-width="0.3"><path d="
M 951.00 674.00 
C 956.44 664.02 962.39 653.68 967.00 643.00
C 961.35 652.72 955.56 663.44 951.00 674.00 Z"/>
</g>
<g fill="None" fill-opacity="0.0" stroke="#D5D5D5" stroke-opacity="1.00" stroke-width="0.3"><path d="
M 583.00 649.00 
C 580.95 650.28 581.02 653.66 579.00 655.00
C 579.11 652.57 576.98 650.76 576.00 649.00
C 576.60 651.56 577.61 654.60 580.00 656.00
C 581.46 653.86 582.03 651.26 583.00 649.00 Z"/>
</g>
<g fill="None" fill-opacity="0.0" stroke="#D5D5D5" stroke-opacity="1.00" stroke-width="0.3"><path d="
M 528.00 677.00 
C 524.25 668.32 519.40 660.07 515.00 652.00
C 518.69 660.55 523.42 669.13 528.00 677.00 Z"/>
</g>
<g fill="None" fill-opacity="0.0" stroke="#D6D6D6" stroke-opacity="1.00" stroke-width="0.3"><path d="
M 631.00 677.00 
C 635.55 669.17 640.31 660.55 644.00 652.00
C 639.62 660.04 634.73 668.35 631.00 677.00 Z"/>
</g>
<g fill="None" fill-opacity="0.0" stroke="#D2D2D2" stroke-opacity="1.00" stroke-width="0.3"><path d="
M 926.00 716.00 
C 928.86 711.79 932.20 707.53 935.00 703.00
C 931.84 707.09 928.56 711.25 926.00 716.00 Z"/>
</g>
<g fill="None" fill-opacity="0.0" stroke="#D0D0D0" stroke-opacity="1.00" stroke-width="0.3"><path d="
M 309.00 800.00 
C 282.84 775.81 259.18 750.27 237.00 723.00
C 256.01 752.46 281.31 778.14 309.00 800.00 Z"/>
</g>
<g fill="None" fill-opacity="0.0" stroke="#D3D3D3" stroke-opacity="1.00" stroke-width="0.3"><path d="
M 901.00 750.00 
C 908.26 741.16 915.73 732.71 922.00 723.00
C 914.96 731.66 907.55 740.65 901.00 750.00 Z"/>
</g>
<g fill="None" fill-opacity="0.0" stroke="#D1D1D1" stroke-opacity="1.00" stroke-width="0.3"><path d="
M 832.00 812.00 
C 855.69 797.34 877.45 778.71 896.00 757.00
C 875.51 777.49 854.00 794.98 832.00 812.00 Z"/>
</g>
<g fill="None" fill-opacity="0.0" stroke="#DEDEDE" stroke-opacity="1.00" stroke-width="0.3"><path d="
M 605.00 781.00 
C 605.00 777.33 605.00 773.67 605.00 770.00
C 604.67 773.39 604.67 777.54 605.00 781.00 Z"/>
</g>
<g fill="None" fill-opacity="0.0" stroke="#E0E0E0" stroke-opacity="1.00" stroke-width="0.3"><path d="
M 554.00 782.00 
C 554.33 778.61 554.33 774.46 554.00 771.00
C 554.00 774.67 554.00 778.33 554.00 782.00 Z"/>
</g>
<g fill="None" fill-opacity="0.0" stroke="#D1D1D1" stroke-opacity="1.00" stroke-width="0.3"><path d="
M 643.00 837.00 
C 626.59 828.71 614.62 818.51 608.00 801.00
C 612.87 818.69 625.96 830.71 643.00 837.00 Z"/>
</g>
<g fill="None" fill-opacity="0.0" stroke="#D1D1D1" stroke-opacity="1.00" stroke-width="0.3"><path d="
M 533.00 828.00 
C 540.66 824.24 546.08 814.43 549.00 807.00
C 544.82 814.84 538.25 820.49 533.00 828.00 Z"/>
</g>
<g fill="None" fill-opacity="0.0" stroke="#D0D0D0" stroke-opacity="1.00" stroke-width="0.3"><path d="
M 518.00 836.00 
C 523.08 834.00 528.18 831.99 532.00 828.00
C 527.14 829.76 522.40 833.65 518.00 836.00 Z"/>
</g>
<g fill="#000000" fill-opacity="0.00" stroke="None">
<path d="
M 0.00 880.00 
L 1138.00 880.00
L 1138.00 0.00
L 0.00 0.00
L 0.00 880.00
M 597.00 46.00 
C 601.47 49.82 606.59 53.13 610.00 58.00
C 610.40 58.20 611.00 58.00 611.00 58.00
C 619.95 62.38 626.26 72.74 634.25 78.75 C 642.24 84.77 650.42 92.32 657.75 99.25 C 665.09 106.18 675.19 111.69 681.00 120.00
C 681.40 120.20 682.00 120.00 682.00 120.00
C 686.72 122.31 690.13 127.82 694.00 131.00
C 698.68 134.28 703.45 138.11 708.00 142.00
C 714.68 147.71 720.62 154.05 727.00 160.00
C 727.64 160.39 728.39 160.63 729.00 161.00
C 734.83 164.55 743.49 173.23 747.00 179.00
C 747.39 179.64 747.63 180.39 748.00 181.00
C 758.27 192.01 769.13 202.32 777.00 215.00
C 777.22 215.36 777.00 216.00 777.00 216.00
C 781.57 218.98 784.22 225.50 787.00 230.00
C 788.30 232.09 789.00 233.89 790.00 236.00
C 793.24 241.45 796.40 246.97 799.00 253.00
C 814.28 288.41 814.30 325.56 799.00 361.00
C 796.41 367.00 793.22 372.58 790.00 378.00
C 783.51 391.73 774.04 405.25 764.00 417.00
C 753.83 428.90 744.83 443.27 732.25 453.25 C 719.67 463.23 711.22 477.76 698.00 487.00
C 697.80 487.40 698.00 488.00 698.00 488.00
C 693.79 496.62 682.94 503.77 677.00 511.00
C 668.90 522.57 659.34 534.07 650.00 545.00
C 637.94 559.12 626.56 574.21 616.00 589.00
C 611.30 597.34 605.85 605.58 601.00 614.00
C 598.73 617.94 596.02 622.29 594.00 626.00
C 590.66 633.73 586.37 641.19 583.00 649.00
C 582.03 651.26 581.46 653.86 580.00 656.00
C 577.61 654.60 576.60 651.56 576.00 649.00
C 575.28 647.27 574.63 645.72 574.00 644.00
C 571.25 638.49 567.90 632.68 565.00 627.00
C 562.05 621.24 558.72 615.74 556.00 610.00
C 552.24 603.67 545.59 597.20 543.00 590.00
C 542.84 589.56 543.00 589.00 543.00 589.00
C 537.65 585.52 534.52 577.70 530.25 572.75 C 525.97 567.80 522.16 561.27 518.00 556.00
C 513.24 549.97 508.01 544.22 504.00 538.00
C 500.33 533.53 494.61 529.33 492.00 524.00
C 491.80 523.60 492.00 523.00 492.00 523.00
C 481.38 515.58 474.53 501.91 465.25 492.75 C 455.96 483.59 446.34 473.09 437.75 463.25 C 429.16 453.41 414.77 445.84 409.00 434.00
C 408.80 433.60 409.00 433.00 409.00 433.00
C 404.91 430.14 402.18 425.72 399.00 422.00
C 397.31 420.02 396.21 418.00 395.00 416.00
C 390.13 410.08 385.37 404.38 381.00 398.00
C 376.51 391.45 372.10 385.18 369.00 378.00
C 366.01 372.51 362.58 366.98 360.00 361.00
C 344.70 325.55 344.69 288.48 360.00 253.00
C 362.59 247.00 365.78 241.42 369.00 236.00
C 369.97 233.95 370.75 232.03 372.00 230.00
C 380.53 216.22 390.72 204.51 401.00 192.00
C 403.94 187.44 408.33 183.29 412.00 179.00
C 417.31 172.78 423.51 165.91 430.00 161.00
C 430.94 160.29 432.10 159.68 433.00 159.00
C 443.42 149.44 453.42 137.85 465.23 130.23 C 477.04 122.61 485.45 108.14 498.00 102.00
C 498.40 101.80 499.00 102.00 499.00 102.00
C 505.45 92.78 516.60 86.24 524.75 78.75 C 532.89 71.26 541.86 62.00 550.75 55.75 C 559.64 49.51 567.56 36.95 578.00 34.00
C 583.53 32.44 592.69 42.31 597.00 46.00
M 212.00 372.00 
C 225.38 377.77 238.44 385.15 251.00 392.00
C 266.42 398.65 280.67 408.13 295.00 417.00
C 305.06 423.23 314.54 430.24 324.00 437.00
C 326.69 438.51 329.32 440.16 332.00 442.00
C 342.75 449.37 353.95 457.68 363.70 466.30 C 373.44 474.93 385.40 483.13 393.00 494.00
C 393.40 494.20 394.00 494.00 394.00 494.00
C 399.73 496.80 405.44 504.36 409.75 509.25 C 414.06 514.14 421.54 520.31 425.00 526.00
C 425.39 526.64 425.63 527.39 426.00 528.00
C 434.87 537.51 448.24 548.29 454.00 560.00
C 454.20 560.40 454.00 561.00 454.00 561.00
C 462.86 567.19 469.98 580.22 476.00 589.00
C 489.90 609.26 505.30 629.53 515.00 652.00
C 519.40 660.07 524.25 668.32 528.00 677.00
C 540.86 706.80 554.00 737.43 554.00 771.00
C 554.33 774.46 554.33 778.61 554.00 782.00
C 554.00 791.17 552.23 798.77 549.00 807.00
C 546.08 814.43 540.66 824.24 533.00 828.00
C 532.60 828.20 532.00 828.00 532.00 828.00
C 528.18 831.99 523.08 834.00 518.00 836.00
C 451.50 862.10 363.83 843.29 309.00 800.00
C 281.31 778.14 256.01 752.46 237.00 723.00
C 226.68 707.00 215.52 691.41 208.00 674.00
C 202.54 664.00 196.62 653.70 192.00 643.00
C 188.51 634.90 184.50 627.97 181.22 619.78 C 177.95 611.58 174.11 603.32 171.02 594.98 C 167.94 586.63 164.11 578.36 161.08 569.92 C 158.04 561.49 154.88 552.75 151.69 544.31 C 148.51 535.86 146.28 527.43 143.07 518.93 C 139.86 510.43 137.08 501.57 134.07 492.93 C 131.07 484.29 128.37 475.06 125.68 466.32 C 122.98 457.58 119.47 448.71 117.02 439.98 C 114.58 431.24 111.26 422.90 108.68 414.32 C 106.10 405.74 102.10 396.50 100.02 387.98 C 97.94 379.46 92.26 370.18 91.02 361.98 C 89.79 353.77 80.95 344.21 81.23 336.77 C 81.50 329.33 100.94 335.39 108.01 335.99 C 115.08 336.59 128.12 340.76 136.07 342.93 C 144.02 345.09 154.50 348.40 162.68 351.32 C 170.85 354.25 179.82 357.84 188.02 360.98 C 196.23 364.11 203.91 368.51 212.00 372.00
M 1020.00 507.00 
C 1018.16 512.36 1015.90 517.98 1014.00 523.00
C 1002.93 564.46 984.01 603.58 967.00 643.00
C 962.39 653.68 956.44 664.02 951.00 674.00
C 946.63 684.13 940.85 693.55 935.00 703.00
C 932.20 707.53 928.86 711.79 926.00 716.00
C 924.76 718.29 923.50 720.68 922.00 723.00
C 915.73 732.71 908.26 741.16 901.00 750.00
C 899.50 752.15 897.86 754.82 896.00 757.00
C 877.45 778.71 855.69 797.34 832.00 812.00
C 778.73 844.98 703.63 859.38 643.00 837.00
C 625.96 830.71 612.87 818.69 608.00 801.00
C 606.14 794.24 605.00 788.36 605.00 781.00
C 604.67 777.54 604.67 773.39 605.00 770.00
C 605.00 736.94 618.32 706.38 631.00 677.00
C 634.73 668.35 639.62 660.04 644.00 652.00
C 648.07 642.57 653.55 633.80 659.00 625.00
C 661.79 620.50 665.23 616.22 668.00 612.00
C 668.65 610.75 669.21 609.32 670.00 608.00
C 678.98 593.09 690.02 579.37 701.00 566.00
C 702.18 564.05 703.39 561.89 705.00 560.00
C 711.59 552.29 717.61 541.85 726.00 536.00
C 726.20 535.60 726.00 535.00 726.00 535.00
C 729.55 527.74 740.39 517.63 747.00 513.00
C 747.20 512.60 747.00 512.00 747.00 512.00
C 752.46 500.85 766.14 494.41 774.25 485.25 C 782.35 476.09 793.67 467.96 803.23 460.23 C 812.79 452.50 823.50 443.52 834.00 437.00
C 834.36 436.78 835.00 437.00 835.00 437.00
C 837.58 433.04 843.11 430.51 847.00 428.00
C 866.13 415.66 885.17 401.99 906.00 393.00
C 909.82 390.92 913.85 388.12 918.00 386.00
C 924.24 382.81 930.47 379.35 937.00 377.00
C 940.86 375.09 944.90 372.77 949.00 371.00
C 990.02 353.30 1032.45 334.17 1078.00 334.00
C 1057.17 391.07 1039.45 449.39 1020.00 507.00 Z"/>
</g>
<g fill="#A4A4A4" fill-opacity="1.00" stroke="None">
<path d="
M 578.00 34.00 
C 568.06 38.11 560.63 50.30 551.25 56.25 C 541.86 62.20 534.60 73.09 525.25 79.25 C 515.90 85.40 509.03 97.09 499.00 102.00
C 499.00 102.00 498.40 101.80 498.00 102.00
C 490.02 113.42 476.10 121.51 465.75 130.75 C 455.41 139.99 444.18 150.55 433.00 159.00
C 432.10 159.68 430.94 160.29 430.00 161.00
C 423.93 166.57 417.80 173.20 412.00 179.00
C 408.33 183.29 403.94 187.44 401.00 192.00
C 392.53 205.13 381.35 217.92 372.00 230.00
C 370.75 232.03 369.97 233.95 369.00 236.00
C 366.25 241.82 363.11 247.66 360.00 253.00
C 344.69 288.48 344.70 325.55 360.00 361.00
C 363.11 366.35 366.46 372.13 369.00 378.00
C 372.10 385.18 376.51 391.45 381.00 398.00
C 385.89 403.66 391.06 409.51 395.00 416.00
C 396.21 418.00 397.31 420.02 399.00 422.00
C 402.37 425.37 406.87 428.66 409.00 433.00
C 409.00 433.00 408.80 433.60 409.00 434.00
C 419.68 441.47 427.67 453.60 437.75 462.25 C 447.83 470.89 456.91 481.70 465.25 491.75 C 473.58 501.80 486.29 511.36 492.00 523.00
C 492.00 523.00 491.80 523.60 492.00 524.00
C 496.77 527.34 500.91 533.21 504.00 538.00
C 508.01 544.22 513.24 549.97 518.00 556.00
C 527.68 565.68 535.83 577.45 543.00 589.00
C 543.00 589.00 542.84 589.56 543.00 590.00
C 548.37 595.14 552.80 603.23 556.00 610.00
C 558.72 615.74 562.05 621.24 565.00 627.00
C 568.42 632.35 571.73 637.82 574.00 644.00
C 574.63 645.72 575.28 647.27 576.00 649.00
C 576.98 650.76 579.11 652.57 579.00 655.00
C 581.02 653.66 580.95 650.28 583.00 649.00
C 586.37 641.19 590.66 633.73 594.00 626.00
C 595.90 621.59 598.37 617.68 601.00 614.00
C 605.85 605.58 611.30 597.34 616.00 589.00
C 624.81 573.35 637.25 557.75 650.00 545.00
C 659.34 534.07 668.90 522.57 677.00 511.00
C 682.46 503.20 690.07 493.51 698.00 488.00
C 698.00 488.00 697.80 487.40 698.00 487.00
C 702.55 477.70 713.18 471.96 719.75 463.75 C 726.32 455.54 735.61 449.44 742.30 441.30 C 749.00 433.17 756.61 424.39 764.00 417.00
C 774.04 405.25 783.51 391.73 790.00 378.00
C 792.75 372.18 795.89 366.34 799.00 361.00
C 814.30 325.56 814.28 288.41 799.00 253.00
C 795.87 247.61 792.75 241.81 790.00 236.00
C 789.00 233.89 788.30 232.09 787.00 230.00
C 783.56 225.56 780.06 220.91 777.00 216.00
C 777.00 216.00 777.22 215.36 777.00 215.00
C 771.49 211.41 767.07 203.53 762.75 198.25 C 758.43 192.97 751.61 186.93 748.00 181.00
C 747.63 180.39 747.39 179.64 747.00 179.00
C 741.43 173.03 734.92 166.52 729.00 161.00
C 728.39 160.63 727.64 160.39 727.00 160.00
C 719.83 155.63 713.83 147.83 708.00 142.00
C 703.45 138.11 698.68 134.28 694.00 131.00
C 689.69 127.98 685.04 124.36 682.00 120.00
C 682.00 120.00 681.40 120.20 681.00 120.00
C 668.15 113.71 656.24 98.94 645.30 89.70 C 634.37 80.45 619.17 69.68 611.00 58.00
C 611.00 58.00 610.40 58.20 610.00 58.00
C 605.05 55.58 600.77 49.77 597.00 46.00
C 592.69 42.31 583.53 32.44 578.00 34.00 Z"/>
</g>
<g fill="#D0D0D0" fill-opacity="1.00" stroke="None">
<path d="
M 499.00 102.00 
C 509.03 97.09 515.90 85.40 525.25 79.25 C 534.60 73.09 541.86 62.20 551.25 56.25 C 560.63 50.30 568.06 38.11 578.00 34.00
C 567.56 36.95 559.64 49.51 550.75 55.75 C 541.86 62.00 532.89 71.26 524.75 78.75 C 516.60 86.24 505.45 92.78 499.00 102.00 Z"/>
</g>
<g fill="#D6D6D6" fill-opacity="1.00" stroke="None">
<path d="
M 610.00 58.00 
C 606.59 53.13 601.47 49.82 597.00 46.00
C 600.77 49.77 605.05 55.58 610.00 58.00 Z"/>
</g>
<g fill="#D2D2D2" fill-opacity="1.00" stroke="None">
<path d="
M 681.00 120.00 
C 675.19 111.69 665.09 106.18 657.75 99.25 C 650.42 92.32 642.24 84.77 634.25 78.75 C 626.26 72.74 619.95 62.38 611.00 58.00
C 619.17 69.68 634.37 80.45 645.30 89.70 C 656.24 98.94 668.15 113.71 681.00 120.00 Z"/>
</g>
<g fill="#D3D3D3" fill-opacity="1.00" stroke="None">
<path d="
M 433.00 159.00 
C 444.18 150.55 455.41 139.99 465.75 130.75 C 476.10 121.51 490.02 113.42 498.00 102.00
C 485.45 108.14 477.04 122.61 465.23 130.23 C 453.42 137.85 443.42 149.44 433.00 159.00 Z"/>
</g>
<g fill="#D5D5D5" fill-opacity="1.00" stroke="None">
<path d="
M 694.00 131.00 
C 690.13 127.82 686.72 122.31 682.00 120.00
C 685.04 124.36 689.69 127.98 694.00 131.00 Z"/>
</g>
<g fill="#D5D5D5" fill-opacity="1.00" stroke="None">
<path d="
M 727.00 160.00 
C 720.62 154.05 714.68 147.71 708.00 142.00
C 713.83 147.83 719.83 155.63 727.00 160.00 Z"/>
</g>
<g fill="#E3E3E3" fill-opacity="1.00" stroke="None">
<path d="
M 412.00 179.00 
C 417.80 173.20 423.93 166.57 430.00 161.00
C 423.51 165.91 417.31 172.78 412.00 179.00 Z"/>
</g>
<g fill="#E4E4E4" fill-opacity="1.00" stroke="None">
<path d="
M 747.00 179.00 
C 743.49 173.23 734.83 164.55 729.00 161.00
C 734.92 166.52 741.43 173.03 747.00 179.00 Z"/>
</g>
<g fill="#D2D2D2" fill-opacity="1.00" stroke="None">
<path d="
M 777.00 215.00 
C 769.13 202.32 758.27 192.01 748.00 181.00
C 751.61 186.93 758.43 192.97 762.75 198.25 C 767.07 203.53 771.49 211.41 777.00 215.00 Z"/>
</g>
<g fill="#D2D2D2" fill-opacity="1.00" stroke="None">
<path d="
M 372.00 230.00 
C 381.35 217.92 392.53 205.13 401.00 192.00
C 390.72 204.51 380.53 216.22 372.00 230.00 Z"/>
</g>
<g fill="#D4D4D4" fill-opacity="1.00" stroke="None">
<path d="
M 787.00 230.00 
C 784.22 225.50 781.57 218.98 777.00 216.00
C 780.06 220.91 783.56 225.56 787.00 230.00 Z"/>
</g>
<g fill="#D3D3D3" fill-opacity="1.00" stroke="None">
<path d="
M 360.00 253.00 
C 363.11 247.66 366.25 241.82 369.00 236.00
C 365.78 241.42 362.59 247.00 360.00 253.00 Z"/>
</g>
<g fill="#D5D5D5" fill-opacity="1.00" stroke="None">
<path d="
M 799.00 253.00 
C 796.40 246.97 793.24 241.45 790.00 236.00
C 792.75 241.81 795.87 247.61 799.00 253.00 Z"/>
</g>
<g fill="#A5A5A5" fill-opacity="1.00" stroke="None">
<path d="
M 192.00 643.00 
C 197.67 652.76 203.44 663.44 208.00 674.00
C 215.52 691.41 226.68 707.00 237.00 723.00
C 259.18 750.27 282.84 775.81 309.00 800.00
C 363.83 843.29 451.50 862.10 518.00 836.00
C 522.40 833.65 527.14 829.76 532.00 828.00
C 532.00 828.00 532.60 828.20 533.00 828.00
C 538.25 820.49 544.82 814.84 549.00 807.00
C 552.23 798.77 554.00 791.17 554.00 782.00
C 554.00 778.33 554.00 774.67 554.00 771.00
C 554.00 737.43 540.86 706.80 528.00 677.00
C 523.42 669.13 518.69 660.55 515.00 652.00
C 505.30 629.53 489.90 609.26 476.00 589.00
C 468.28 580.65 460.07 570.76 454.00 561.00
C 454.00 561.00 454.20 560.40 454.00 560.00
C 448.35 556.05 444.16 549.47 439.75 544.25 C 435.34 539.03 429.55 533.83 426.00 528.00
C 425.63 527.39 425.39 526.64 425.00 526.00
C 415.12 515.41 402.33 505.91 394.00 494.00
C 394.00 494.00 393.40 494.20 393.00 494.00
C 381.50 488.38 374.56 474.33 363.75 467.25 C 352.94 460.17 341.74 450.41 332.00 442.00
C 329.32 440.16 326.69 438.51 324.00 437.00
C 313.91 431.32 303.97 423.94 295.00 417.00
C 280.67 408.13 266.42 398.65 251.00 392.00
C 237.77 386.29 224.23 379.11 212.00 372.00
C 203.91 368.51 196.23 364.11 188.02 360.98 C 179.82 357.84 170.85 354.25 162.68 351.32 C 154.50 348.40 144.02 345.09 136.07 342.93 C 128.12 340.76 115.08 336.59 108.01 335.99 C 100.94 335.39 81.50 329.33 81.23 336.77 C 80.95 344.21 89.79 353.77 91.02 361.98 C 92.26 370.18 97.94 379.46 100.02 387.98 C 102.10 396.50 106.10 405.74 108.68 414.32 C 111.26 422.90 114.58 431.24 117.02 439.98 C 119.47 448.71 122.98 457.58 125.68 466.32 C 128.37 475.06 131.07 484.29 134.07 492.93 C 137.08 501.57 139.86 510.43 143.07 518.93 C 146.28 527.43 148.51 535.86 151.69 544.31 C 154.88 552.75 158.04 561.49 161.08 569.92 C 164.11 578.36 167.94 586.63 171.02 594.98 C 174.11 603.32 177.95 611.58 181.22 619.78 C 184.50 627.97 188.51 634.90 192.00 643.00 Z"/>
</g>
<g fill="#A4A4A4" fill-opacity="1.00" stroke="None">
<path d="
M 949.00 371.00 
C 945.18 373.22 941.30 375.45 937.00 377.00
C 930.47 379.35 924.24 382.81 918.00 386.00
C 914.20 388.43 910.41 391.10 906.00 393.00
C 885.17 401.99 866.13 415.66 847.00 428.00
C 843.10 431.17 839.37 434.28 835.00 437.00
C 835.00 437.00 834.36 436.78 834.00 437.00
C 827.49 446.99 812.66 452.57 803.75 460.75 C 794.84 468.94 784.15 477.69 774.75 485.75 C 765.35 493.81 757.17 504.91 747.00 512.00
C 747.00 512.00 747.20 512.60 747.00 513.00
C 743.56 520.02 732.34 530.57 726.00 535.00
C 726.00 535.00 726.20 535.60 726.00 536.00
C 721.82 544.55 711.62 553.38 705.00 560.00
C 703.39 561.89 702.18 564.05 701.00 566.00
C 692.11 580.66 680.15 594.53 670.00 608.00
C 669.21 609.32 668.65 610.75 668.00 612.00
C 665.51 616.78 662.16 620.92 659.00 625.00
C 653.55 633.80 648.07 642.57 644.00 652.00
C 640.31 660.55 635.55 669.17 631.00 677.00
C 618.32 706.38 605.00 736.94 605.00 770.00
C 605.00 773.67 605.00 777.33 605.00 781.00
C 605.00 788.36 606.14 794.24 608.00 801.00
C 614.62 818.51 626.59 828.71 643.00 837.00
C 703.63 859.38 778.73 844.98 832.00 812.00
C 854.00 794.98 875.51 777.49 896.00 757.00
C 897.86 754.82 899.50 752.15 901.00 750.00
C 907.55 740.65 914.96 731.66 922.00 723.00
C 923.50 720.68 924.76 718.29 926.00 716.00
C 928.56 711.25 931.84 707.09 935.00 703.00
C 940.85 693.55 946.63 684.13 951.00 674.00
C 955.56 663.44 961.35 652.72 967.00 643.00
C 984.01 603.58 1002.93 564.46 1014.00 523.00
C 1015.49 517.41 1017.67 511.99 1020.00 507.00
C 1039.45 449.39 1057.17 391.07 1078.00 334.00
C 1032.45 334.17 990.02 353.30 949.00 371.00 Z"/>
</g>
<g fill="#D2D2D2" fill-opacity="1.00" stroke="None">
<path d="
M 369.00 378.00 
C 366.46 372.13 363.11 366.35 360.00 361.00
C 362.58 366.98 366.01 372.51 369.00 378.00 Z"/>
</g>
<g fill="#D3D3D3" fill-opacity="1.00" stroke="None">
<path d="
M 790.00 378.00 
C 793.22 372.58 796.41 367.00 799.00 361.00
C 795.89 366.34 792.75 372.18 790.00 378.00 Z"/>
</g>
<g fill="#D2D2D2" fill-opacity="1.00" stroke="None">
<path d="
M 937.00 377.00 
C 941.30 375.45 945.18 373.22 949.00 371.00
C 944.90 372.77 940.86 375.09 937.00 377.00 Z"/>
</g>
<g fill="#D0D0D0" fill-opacity="1.00" stroke="None">
<path d="
M 251.00 392.00 
C 238.44 385.15 225.38 377.77 212.00 372.00
C 224.23 379.11 237.77 386.29 251.00 392.00 Z"/>
</g>
<g fill="#D3D3D3" fill-opacity="1.00" stroke="None">
<path d="
M 906.00 393.00 
C 910.41 391.10 914.20 388.43 918.00 386.00
C 913.85 388.12 909.82 390.92 906.00 393.00 Z"/>
</g>
<g fill="#D1D1D1" fill-opacity="1.00" stroke="None">
<path d="
M 395.00 416.00 
C 391.06 409.51 385.89 403.66 381.00 398.00
C 385.37 404.38 390.13 410.08 395.00 416.00 Z"/>
</g>
<g fill="#D3D3D3" fill-opacity="1.00" stroke="None">
<path d="
M 324.00 437.00 
C 314.54 430.24 305.06 423.23 295.00 417.00
C 303.97 423.94 313.91 431.32 324.00 437.00 Z"/>
</g>
<g fill="#D1D1D1" fill-opacity="1.00" stroke="None">
<path d="
M 698.00 487.00 
C 711.22 477.76 719.67 463.23 732.25 453.25 C 744.83 443.27 753.83 428.90 764.00 417.00
C 756.61 424.39 749.00 433.17 742.30 441.30 C 735.61 449.44 726.32 455.54 719.75 463.75 C 713.18 471.96 702.55 477.70 698.00 487.00 Z"/>
</g>
<g fill="#D5D5D5" fill-opacity="1.00" stroke="None">
<path d="
M 409.00 433.00 
C 406.87 428.66 402.37 425.37 399.00 422.00
C 402.18 425.72 404.91 430.14 409.00 433.00 Z"/>
</g>
<g fill="#D5D5D5" fill-opacity="1.00" stroke="None">
<path d="
M 835.00 437.00 
C 839.37 434.28 843.10 431.17 847.00 428.00
C 843.11 430.51 837.58 433.04 835.00 437.00 Z"/>
</g>
<g fill="#D1D1D1" fill-opacity="1.00" stroke="None">
<path d="
M 492.00 523.00 
C 486.29 511.36 473.58 501.80 465.25 491.75 C 456.91 481.70 447.83 470.89 437.75 462.25 C 427.67 453.60 419.68 441.47 409.00 434.00
C 414.77 445.84 429.16 453.41 437.75 463.25 C 446.34 473.09 455.96 483.59 465.25 492.75 C 474.53 501.91 481.38 515.58 492.00 523.00 Z"/>
</g>
<g fill="#D7D7D7" fill-opacity="1.00" stroke="None">
<path d="
M 747.00 512.00 
C 757.17 504.91 765.35 493.81 774.75 485.75 C 784.15 477.69 794.84 468.94 803.75 460.75 C 812.66 452.57 827.49 446.99 834.00 437.00
C 823.50 443.52 812.79 452.50 803.23 460.23 C 793.67 467.96 782.35 476.09 774.25 485.25 C 766.14 494.41 752.46 500.85 747.00 512.00 Z"/>
</g>
<g fill="#D2D2D2" fill-opacity="1.00" stroke="None">
<path d="
M 393.00 494.00 
C 385.40 483.13 373.44 474.93 363.70 466.30 C 353.95 457.68 342.75 449.37 332.00 442.00
C 341.74 450.41 352.94 460.17 363.75 467.25 C 374.56 474.33 381.50 488.38 393.00 494.00 Z"/>
</g>
<g fill="#D6D6D6" fill-opacity="1.00" stroke="None">
<path d="
M 677.00 511.00 
C 682.94 503.77 693.79 496.62 698.00 488.00
C 690.07 493.51 682.46 503.20 677.00 511.00 Z"/>
</g>
<g fill="#DDDDDD" fill-opacity="1.00" stroke="None">
<path d="
M 425.00 526.00 
C 421.54 520.31 414.06 514.14 409.75 509.25 C 405.44 504.36 399.73 496.80 394.00 494.00
C 402.33 505.91 415.12 515.41 425.00 526.00 Z"/>
</g>
<g fill="#D1D1D1" fill-opacity="1.00" stroke="None">
<path d="
M 1014.00 523.00 
C 1015.90 517.98 1018.16 512.36 1020.00 507.00
C 1017.67 511.99 1015.49 517.41 1014.00 523.00 Z"/>
</g>
<g fill="#D5D5D5" fill-opacity="1.00" stroke="None">
<path d="
M 726.00 535.00 
C 732.34 530.57 743.56 520.02 747.00 513.00
C 740.39 517.63 729.55 527.74 726.00 535.00 Z"/>
</g>
<g fill="#D3D3D3" fill-opacity="1.00" stroke="None">
<path d="
M 504.00 538.00 
C 500.91 533.21 496.77 527.34 492.00 524.00
C 494.61 529.33 500.33 533.53 504.00 538.00 Z"/>
</g>
<g fill="#D3D3D3" fill-opacity="1.00" stroke="None">
<path d="
M 454.00 560.00 
C 448.24 548.29 434.87 537.51 426.00 528.00
C 429.55 533.83 435.34 539.03 439.75 544.25 C 444.16 549.47 448.35 556.05 454.00 560.00 Z"/>
</g>
<g fill="#D3D3D3" fill-opacity="1.00" stroke="None">
<path d="
M 705.00 560.00 
C 711.62 553.38 721.82 544.55 726.00 536.00
C 717.61 541.85 711.59 552.29 705.00 560.00 Z"/>
</g>
<g fill="#D1D1D1" fill-opacity="1.00" stroke="None">
<path d="
M 616.00 589.00 
C 626.56 574.21 637.94 559.12 650.00 545.00
C 637.25 557.75 624.81 573.35 616.00 589.00 Z"/>
</g>
<g fill="#D2D2D2" fill-opacity="1.00" stroke="None">
<path d="
M 543.00 589.00 
C 535.83 577.45 527.68 565.68 518.00 556.00
C 522.16 561.27 525.97 567.80 530.25 572.75 C 534.52 577.70 537.65 585.52 543.00 589.00 Z"/>
</g>
<g fill="#D2D2D2" fill-opacity="1.00" stroke="None">
<path d="
M 476.00 589.00 
C 469.98 580.22 462.86 567.19 454.00 561.00
C 460.07 570.76 468.28 580.65 476.00 589.00 Z"/>
</g>
<g fill="#D3D3D3" fill-opacity="1.00" stroke="None">
<path d="
M 670.00 608.00 
C 680.15 594.53 692.11 580.66 701.00 566.00
C 690.02 579.37 678.98 593.09 670.00 608.00 Z"/>
</g>
<g fill="#D5D5D5" fill-opacity="1.00" stroke="None">
<path d="
M 556.00 610.00 
C 552.80 603.23 548.37 595.14 543.00 590.00
C 545.59 597.20 552.24 603.67 556.00 610.00 Z"/>
</g>
<g fill="#D4D4D4" fill-opacity="1.00" stroke="None">
<path d="
M 659.00 625.00 
C 662.16 620.92 665.51 616.78 668.00 612.00
C 665.23 616.22 661.79 620.50 659.00 625.00 Z"/>
</g>
<g fill="#D5D5D5" fill-opacity="1.00" stroke="None">
<path d="
M 594.00 626.00 
C 596.02 622.29 598.73 617.94 601.00 614.00
C 598.37 617.68 595.90 621.59 594.00 626.00 Z"/>
</g>
<g fill="#D1D1D1" fill-opacity="1.00" stroke="None">
<path d="
M 574.00 644.00 
C 571.73 637.82 568.42 632.35 565.00 627.00
C 567.90 632.68 571.25 638.49 574.00 644.00 Z"/>
</g>
<g fill="#D8D8D8" fill-opacity="1.00" stroke="None">
<path d="
M 208.00 674.00 
C 203.44 663.44 197.67 652.76 192.00 643.00
C 196.62 653.70 202.54 664.00 208.00 674.00 Z"/>
</g>
<g fill="#D5D5D5" fill-opacity="1.00" stroke="None">
<path d="
M 951.00 674.00 
C 956.44 664.02 962.39 653.68 967.00 643.00
C 961.35 652.72 955.56 663.44 951.00 674.00 Z"/>
</g>
<g fill="#D5D5D5" fill-opacity="1.00" stroke="None">
<path d="
M 583.00 649.00 
C 580.95 650.28 581.02 653.66 579.00 655.00
C 579.11 652.57 576.98 650.76 576.00 649.00
C 576.60 651.56 577.61 654.60 580.00 656.00
C 581.46 653.86 582.03 651.26 583.00 649.00 Z"/>
</g>
<g fill="#D5D5D5" fill-opacity="1.00" stroke="None">
<path d="
M 528.00 677.00 
C 524.25 668.32 519.40 660.07 515.00 652.00
C 518.69 660.55 523.42 669.13 528.00 677.00 Z"/>
</g>
<g fill="#D6D6D6" fill-opacity="1.00" stroke="None">
<path d="
M 631.00 677.00 
C 635.55 669.17 640.31 660.55 644.00 652.00
C 639.62 660.04 634.73 668.35 631.00 677.00 Z"/>
</g>
<g fill="#D2D2D2" fill-opacity="1.00" stroke="None">
<path d="
M 926.00 716.00 
C 928.86 711.79 932.20 707.53 935.00 703.00
C 931.84 707.09 928.56 711.25 926.00 716.00 Z"/>
</g>
<g fill="#D0D0D0" fill-opacity="1.00" stroke="None">
<path d="
M 309.00 800.00 
C 282.84 775.81 259.18 750.27 237.00 723.00
C 256.01 752.46 281.31 778.14 309.00 800.00 Z"/>
</g>
<g fill="#D3D3D3" fill-opacity="1.00" stroke="None">
<path d="
M 901.00 750.00 
C 908.26 741.16 915.73 732.71 922.00 723.00
C 914.96 731.66 907.55 740.65 901.00 750.00 Z"/>
</g>
<g fill="#D1D1D1" fill-opacity="1.00" stroke="None">
<path d="
M 832.00 812.00 
C 855.69 797.34 877.45 778.71 896.00 757.00
C 875.51 777.49 854.00 794.98 832.00 812.00 Z"/>
</g>
<g fill="#DEDEDE" fill-opacity="1.00" stroke="None">
<path d="
M 605.00 781.00 
C 605.00 777.33 605.00 773.67 605.00 770.00
C 604.67 773.39 604.67 777.54 605.00 781.00 Z"/>
</g>
<g fill="#E0E0E0" fill-opacity="1.00" stroke="None">
<path d="
M 554.00 782.00 
C 554.33 778.61 554.33 774.46 554.00 771.00
C 554.00 774.67 554.00 778.33 554.00 782.00 Z"/>
</g>
<g fill="#D1D1D1" fill-opacity="1.00" stroke="None">
<path d="
M 643.00 837.00 
C 626.59 828.71 614.62 818.51 608.00 801.00
C 612.87 818.69 625.96 830.71 643.00 837.00 Z"/>
</g>
<g fill="#D1D1D1" fill-opacity="1.00" stroke="None">
<path d="
M 533.00 828.00 
C 540.66 824.24 546.08 814.43 549.00 807.00
C 544.82 814.84 538.25 820.49 533.00 828.00 Z"/>
</g>
<g fill="#D0D0D0" fill-opacity="1.00" stroke="None">
<path d="
M 518.00 836.00 
C 523.08 834.00 528.18 831.99 532.00 828.00
C 527.14 829.76 522.40 833.65 518.00 836.00 Z"/>
</g>
</svg>